<svg width="390" height="735" viewBox="0 0 390 735" fill="none" xmlns="http://www.w3.org/2000/svg">
<g clip-path="url(#clip0_5897_75005)">
<path d="M196.772 559.169C196.831 559.131 196.892 559.098 196.955 559.066C196.892 559.097 196.831 559.131 196.772 559.169Z" fill="#1685B0"/>
<path d="M196.994 559.045C197.069 559.011 197.147 558.981 197.228 558.957C197.147 558.981 197.069 559.011 196.994 559.045Z" fill="#1685B0"/>
<path d="M213.944 563.036C214.005 563.094 214.06 563.156 214.111 563.222C214.06 563.157 214.005 563.094 213.944 563.036Z" fill="#1685B0"/>
<path d="M209.329 570.524C209.312 570.594 209.29 570.662 209.265 570.729C209.29 570.662 209.312 570.594 209.329 570.524Z" fill="#1685B0"/>
<path d="M208.786 571.416C208.786 571.416 208.782 571.419 208.781 571.421C208.782 571.42 208.784 571.418 208.786 571.416Z" fill="#1685B0"/>
<path d="M198.196 569.223C198.187 569.211 198.18 569.198 198.171 569.186C198.18 569.198 198.187 569.211 198.196 569.223Z" fill="#1685B0"/>
<path d="M208.392 571.68C208.378 571.687 208.366 571.695 208.352 571.701C208.366 571.695 208.378 571.687 208.392 571.68Z" fill="#1685B0"/>
<path d="M208.599 571.562C208.591 571.567 208.584 571.573 208.576 571.578C208.584 571.573 208.591 571.567 208.599 571.562Z" fill="#1685B0"/>
<path d="M209.086 571.071C209.083 571.075 209.081 571.079 209.078 571.083C209.081 571.079 209.083 571.075 209.086 571.071Z" fill="#1685B0"/>
<path d="M210.499 565.265C210.5 565.268 210.5 565.272 210.5 565.276C210.5 565.272 210.5 565.268 210.499 565.265Z" fill="#1685B0"/>
<path d="M209.207 570.856C209.198 570.875 209.19 570.895 209.18 570.914C209.19 570.895 209.198 570.875 209.207 570.856Z" fill="#1685B0"/>
<path d="M210.511 565.461C210.511 565.481 210.509 565.501 210.508 565.522C210.509 565.501 210.511 565.481 210.511 565.461Z" fill="#1685B0"/>
<path d="M210.5 565.664C210.492 565.734 210.481 565.804 210.464 565.874C210.481 565.804 210.492 565.734 210.5 565.664Z" fill="#1685B0"/>
<path d="M196.748 559.185C196.684 559.228 196.623 559.274 196.566 559.325C196.623 559.274 196.684 559.228 196.748 559.185Z" fill="#1685B0"/>
<path d="M211.95 574.098L211.953 574.096C211.953 574.096 211.951 574.097 211.95 574.098Z" fill="#1685B0"/>
<path d="M214.135 563.258C214.177 563.315 214.216 563.372 214.25 563.433C214.216 563.373 214.177 563.315 214.135 563.258Z" fill="#1685B0"/>
<path d="M214.436 563.91L210.465 565.07L214.436 563.91Z" fill="#1685B0"/>
<path d="M211.776 574.275C211.784 574.266 211.791 574.258 211.8 574.249C211.791 574.258 211.784 574.267 211.775 574.275L211.776 574.275Z" fill="#1685B0"/>
<path d="M205.935 560.521C205.864 560.494 205.792 560.471 205.719 560.453C205.645 560.435 205.571 560.422 205.496 560.414C205.646 560.43 205.794 560.466 205.935 560.521Z" fill="#1685B0"/>
<path d="M198.057 569.012C198.053 569.004 198.049 568.995 198.044 568.987C198.049 568.995 198.052 569.004 198.057 569.012Z" fill="#1685B0"/>
<path d="M202.545 577.149C202.245 577.236 201.933 577.241 201.639 577.169C201.346 577.098 201.071 576.95 200.845 576.734L194.395 570.569C194.334 570.511 194.278 570.449 194.227 570.383C194.278 570.448 194.334 570.511 194.395 570.569L200.845 576.734C201.297 577.166 201.945 577.324 202.545 577.149L211.111 574.647C211.192 574.623 211.27 574.593 211.345 574.559C211.269 574.594 211.192 574.623 211.111 574.647L202.545 577.149Z" fill="#1685B0"/>
<path d="M197.945 568.778C197.945 568.778 197.944 568.774 197.943 568.772C197.944 568.774 197.945 568.776 197.945 568.778Z" fill="#1685B0"/>
<path d="M197.872 568.536C197.812 568.275 197.808 567.999 197.874 567.73L199.008 563.081C199.074 562.812 199.204 562.57 199.378 562.365L196.388 559.507C196.441 559.444 196.499 559.386 196.56 559.33C196.298 559.563 196.104 559.871 196.018 560.223L193.903 568.89C193.817 569.242 193.847 569.605 193.973 569.932C193.944 569.855 193.919 569.776 193.901 569.695L197.872 568.535L197.872 568.536Z" fill="#1685B0"/>
<path d="M214.436 563.91C214.436 563.91 214.437 563.913 214.437 563.915C214.418 563.833 214.394 563.752 214.364 563.673C214.393 563.751 214.417 563.829 214.436 563.91Z" fill="#1685B0"/>
<path d="M212.098 573.897C212.058 573.959 212.016 574.02 211.968 574.077C212.015 574.02 212.059 573.96 212.098 573.897Z" fill="#1685B0"/>
<path d="M210.391 564.826C210.391 564.826 210.393 564.831 210.394 564.833C210.393 564.831 210.392 564.828 210.391 564.826Z" fill="#1685B0"/>
<path d="M212.214 573.676C212.186 573.739 212.156 573.8 212.121 573.858C212.156 573.8 212.187 573.739 212.214 573.676Z" fill="#1685B0"/>
<path d="M211.566 574.435C211.507 574.473 211.445 574.507 211.382 574.538C211.445 574.507 211.507 574.473 211.566 574.435Z" fill="#1685B0"/>
<path d="M211.771 574.28C211.714 574.331 211.652 574.377 211.589 574.42C211.653 574.377 211.714 574.331 211.771 574.28Z" fill="#1685B0"/>
<path d="M211.949 574.098C211.896 574.16 211.838 574.219 211.777 574.274C211.839 574.219 211.896 574.16 211.949 574.098Z" fill="#1685B0"/>
<path d="M214.441 563.935C214.458 564.008 214.468 564.083 214.474 564.157C214.468 564.083 214.457 564.008 214.441 563.935Z" fill="#1685B0"/>
<path d="M214.264 563.458C214.3 563.526 214.333 563.595 214.361 563.666C214.333 563.595 214.301 563.526 214.264 563.458Z" fill="#1685B0"/>
<path d="M214.434 564.715C214.454 564.631 214.467 564.547 214.475 564.462C214.467 564.546 214.454 564.631 214.434 564.715Z" fill="#1685B0"/>
<path d="M214.479 564.201C214.483 564.269 214.482 564.337 214.478 564.406C214.483 564.338 214.483 564.269 214.479 564.201Z" fill="#1685B0"/>
<path d="M212.319 573.383C212.298 573.467 212.271 573.547 212.239 573.625C212.271 573.547 212.298 573.466 212.319 573.383Z" fill="#1685B0"/>
<path d="M199.944 561.924C199.958 561.918 199.97 561.91 199.984 561.903C199.971 561.91 199.958 561.918 199.944 561.924Z" fill="#1685B0"/>
<path d="M210.282 564.593C210.286 564.601 210.29 564.61 210.295 564.618C210.29 564.61 210.286 564.601 210.282 564.593Z" fill="#1685B0"/>
<path d="M199.738 562.043C199.745 562.038 199.753 562.032 199.76 562.027C199.753 562.032 199.745 562.038 199.738 562.043Z" fill="#1685B0"/>
<path d="M210.14 564.381C210.149 564.393 210.157 564.406 210.165 564.418C210.157 564.406 210.149 564.393 210.14 564.381Z" fill="#1685B0"/>
<path d="M194.2 570.347C194.159 570.29 194.119 570.232 194.085 570.172C194.119 570.232 194.158 570.29 194.2 570.347Z" fill="#1685B0"/>
<path d="M194.073 570.147C194.036 570.079 194.003 570.01 193.976 569.938C194.004 570.01 194.036 570.079 194.073 570.147Z" fill="#1685B0"/>
<path d="M205.038 560.424C205.191 560.4 205.344 560.397 205.494 560.414C205.344 560.398 205.191 560.401 205.038 560.424Z" fill="#1685B0"/>
<path d="M199.551 562.187C199.551 562.187 199.555 562.184 199.557 562.183C199.555 562.184 199.553 562.186 199.551 562.187Z" fill="#1685B0"/>
<path d="M211.949 574.098L208.959 571.24C208.906 571.303 208.848 571.362 208.786 571.417C208.784 571.418 208.782 571.42 208.781 571.422C208.723 571.473 208.662 571.519 208.598 571.562C208.59 571.567 208.584 571.573 208.576 571.578C208.517 571.616 208.455 571.649 208.392 571.68C208.379 571.686 208.366 571.694 208.353 571.701C208.277 571.735 208.2 571.765 208.119 571.789L203.524 573.131C203.224 573.219 202.912 573.223 202.618 573.151L201.638 577.169C201.931 577.241 202.243 577.236 202.543 577.149L211.109 574.647C211.19 574.623 211.267 574.594 211.343 574.559C211.356 574.552 211.369 574.545 211.382 574.538C211.445 574.507 211.507 574.474 211.566 574.436C211.573 574.431 211.581 574.425 211.588 574.42C211.652 574.377 211.713 574.33 211.77 574.28C211.772 574.278 211.774 574.277 211.776 574.275C211.785 574.267 211.792 574.258 211.8 574.25C211.852 574.201 211.903 574.151 211.949 574.098Z" fill="#1685B0"/>
<path d="M200.844 576.733C201.07 576.949 201.345 577.097 201.639 577.169L202.619 573.151C202.326 573.079 202.051 572.932 201.825 572.716L198.365 569.409C198.304 569.35 198.249 569.288 198.198 569.223C198.189 569.211 198.181 569.199 198.172 569.186C198.131 569.13 198.091 569.072 198.057 569.011C198.052 569.003 198.048 568.995 198.044 568.987C198.007 568.919 197.974 568.85 197.946 568.778C197.945 568.776 197.945 568.774 197.944 568.772C197.915 568.694 197.891 568.615 197.872 568.535L193.902 569.695C193.92 569.775 193.944 569.854 193.973 569.932C193.974 569.934 193.975 569.936 193.976 569.939C194.003 570.01 194.036 570.079 194.073 570.147C194.077 570.155 194.081 570.164 194.086 570.171C194.12 570.232 194.159 570.29 194.201 570.347C194.211 570.359 194.218 570.371 194.227 570.383C194.278 570.449 194.333 570.511 194.394 570.569L200.844 576.733Z" fill="#1685B0"/>
<path d="M205.717 560.453C205.791 560.471 205.863 560.494 205.934 560.521C206.145 560.603 206.342 560.727 206.512 560.889L209.972 564.196C210.033 564.254 210.088 564.316 210.139 564.382C210.148 564.393 210.156 564.406 210.165 564.419C210.206 564.475 210.246 564.533 210.28 564.594C210.285 564.602 210.288 564.61 210.293 564.618C210.329 564.686 210.362 564.755 210.39 564.827C210.391 564.829 210.392 564.831 210.393 564.833C210.422 564.911 210.446 564.99 210.465 565.07L214.435 563.911C214.416 563.83 214.393 563.751 214.364 563.674C214.363 563.671 214.362 563.669 214.361 563.667C214.362 563.669 214.363 563.671 214.364 563.674C214.393 563.751 214.417 563.83 214.436 563.91C214.417 563.83 214.393 563.751 214.364 563.674C214.363 563.671 214.362 563.669 214.361 563.667C214.334 563.595 214.301 563.526 214.264 563.458C214.26 563.451 214.256 563.442 214.251 563.434C214.217 563.373 214.178 563.316 214.136 563.259C214.127 563.246 214.12 563.234 214.11 563.222C214.059 563.157 214.004 563.094 213.943 563.036L207.493 556.871C207.323 556.709 207.126 556.586 206.915 556.504C206.844 556.476 206.772 556.454 206.698 556.436L205.718 560.454L205.717 560.453Z" fill="#1685B0"/>
<path d="M196.561 559.33C196.499 559.385 196.441 559.444 196.388 559.507L199.378 562.365C199.432 562.302 199.489 562.243 199.551 562.188C199.553 562.186 199.555 562.185 199.557 562.183C199.614 562.133 199.675 562.086 199.739 562.043C199.747 562.038 199.754 562.032 199.762 562.027C199.82 561.989 199.882 561.956 199.945 561.925C199.959 561.918 199.971 561.91 199.985 561.904C200.06 561.87 200.138 561.84 200.219 561.816L201.092 561.561L200.598 558.499L204.053 560.696L204.814 560.474C204.889 560.452 204.965 560.435 205.04 560.423C205.193 560.4 205.346 560.397 205.496 560.414C205.572 560.422 205.646 560.435 205.719 560.453L206.7 556.435C206.48 556.382 206.249 556.371 206.021 556.405C205.945 556.417 205.869 556.434 205.794 556.456L197.228 558.958C197.147 558.982 197.069 559.011 196.994 559.046C196.98 559.052 196.968 559.06 196.954 559.067C196.891 559.098 196.829 559.131 196.771 559.169C196.763 559.174 196.756 559.18 196.748 559.185C196.685 559.228 196.623 559.274 196.566 559.325C196.564 559.327 196.563 559.329 196.561 559.33L196.561 559.33Z" fill="#1685B0"/>
<path d="M210.466 565.069C210.481 565.134 210.492 565.199 210.5 565.264C210.501 565.268 210.501 565.272 210.501 565.276C210.508 565.337 210.511 565.398 210.512 565.46C210.512 565.48 210.51 565.501 210.509 565.521C210.508 565.568 210.506 565.616 210.501 565.663C210.493 565.733 210.482 565.803 210.465 565.873L209.33 570.523C209.312 570.594 209.29 570.662 209.265 570.728C209.248 570.772 209.228 570.814 209.208 570.856C209.199 570.875 209.19 570.895 209.181 570.914C209.152 570.967 209.121 571.02 209.087 571.071C209.085 571.075 209.082 571.078 209.08 571.082C209.043 571.136 209.003 571.189 208.961 571.239L208.961 571.24L211.95 574.097C211.95 574.097 211.952 574.095 211.953 574.094C211.958 574.088 211.963 574.082 211.968 574.076C212.016 574.019 212.058 573.959 212.098 573.896C212.107 573.883 212.115 573.871 212.123 573.858C212.158 573.799 212.188 573.738 212.216 573.675C212.224 573.658 212.233 573.642 212.24 573.624C212.272 573.546 212.299 573.465 212.32 573.382L214.435 564.714C214.456 564.63 214.468 564.546 214.476 564.461C214.478 564.443 214.478 564.424 214.478 564.406C214.482 564.337 214.484 564.268 214.48 564.2C214.479 564.185 214.477 564.171 214.476 564.156C214.469 564.081 214.459 564.007 214.443 563.934C214.441 563.927 214.44 563.92 214.438 563.913C214.438 563.912 214.437 563.91 214.437 563.909L210.467 565.068L210.466 565.069Z" fill="#1685B0"/>
<path d="M214.437 563.91C214.419 563.83 214.394 563.751 214.365 563.674C214.395 563.751 214.418 563.83 214.437 563.911L214.437 563.91Z" fill="#1685B0"/>
<path d="M211.95 574.097C211.903 574.151 211.854 574.201 211.801 574.249C211.793 574.257 211.786 574.266 211.777 574.274C211.839 574.219 211.896 574.16 211.949 574.098L211.95 574.097Z" fill="#1685B0"/>
<path d="M214.363 563.666C214.363 563.666 214.364 563.671 214.365 563.673L214.363 563.666Z" fill="#1685B0"/>
</g>
<path fill-rule="evenodd" clip-rule="evenodd" d="M70.2738 27.3216C72.7396 23.9843 73.294 19.6559 71.7588 15.9182C67.7259 16.0859 64.0346 18.4248 62.1248 22.0632L59.2322 27.4567L58.8332 28.6651L65.5824 32.9625L66.4972 32.0639L70.2738 27.3216ZM68.7274 33.6877L72.4503 28.957C72.4503 28.957 72.4885 28.8084 72.5153 28.8027C72.5134 30.4866 72.0485 32.6913 70.4924 35.6923L68.7274 33.6877ZM74.5974 24.9868C75.8233 21.4958 75.6156 17.472 73.9236 14.0486C73.6739 13.5413 73.185 13.2258 72.6198 13.2073C68.7704 13.0549 65.1069 14.546 62.4007 17.0934C61.7416 17.0951 60.9237 17.2714 59.9737 17.6164C57.7232 18.2418 54.9106 19.9703 52.1004 23.6625C50.9659 25.1697 51.7635 27.2425 53.4541 27.8602L55.5624 28.5282C55.4522 29.2535 55.7173 29.8978 56.2599 30.2017L56.0835 30.0995L55.3338 31.2431C54.5057 32.544 54.8813 34.2869 56.1717 35.1311L60.7888 38.0643C62.0658 38.9114 63.7687 38.5444 64.5968 37.2435L65.3466 36.0999L65.1568 36.0005C65.7261 36.2987 66.4523 36.2824 66.9845 35.8872L68.4885 37.5272C69.6913 38.8112 71.9099 38.7539 72.8257 37.0132C75.1202 33.0113 75.488 29.7052 75.1979 27.3827C75.0895 26.424 74.8491 25.6341 74.5974 24.9868ZM63.038 34.6333L62.2883 35.7769L57.6423 32.7097L58.392 31.5661L63.038 34.6333ZM56.803 26.0161L54.3842 25.2748C56.3622 22.6037 58.2382 21.2173 59.7492 20.611C59.7224 20.6168 59.6956 20.6226 59.6843 20.7653L56.803 26.0161Z" fill="#1685B0"/>
<ellipse cx="2.46923" cy="2.4686" rx="2.46923" ry="2.4686" transform="matrix(-0.210691 -0.977553 -0.977553 0.210691 72.2148 21.6946)" fill="#1685B0"/>
<path fill-rule="evenodd" clip-rule="evenodd" d="M54.6926 35.6812C55.1978 35.3451 55.8556 35.4377 56.2223 35.9891C56.5889 36.5405 56.42 37.183 55.9148 37.5191C54.3901 38.5335 53.9536 40.547 54.9925 42.1092C55.3592 42.6606 55.1903 43.3032 54.6851 43.6392C54.1799 43.9753 53.5221 43.8827 53.1554 43.3313C51.4443 40.7582 52.1574 37.3677 54.6926 35.6812Z" fill="#1685B0"/>
<path fill-rule="evenodd" clip-rule="evenodd" d="M54.2342 43.7311C53.6492 43.6322 53.2425 43.1257 53.3503 42.4873C53.4582 41.849 54.0087 41.5044 54.5936 41.6033C56.3592 41.9019 58.018 40.7598 58.3236 38.9512C58.4314 38.3128 58.9819 37.9682 59.5669 38.0671C60.1518 38.1661 60.5585 38.6726 60.4507 39.3109C59.9474 42.2899 57.1696 44.2276 54.2342 43.7311Z" fill="#1685B0"/>
<path d="M66.217 25.2673C65.5132 24.8135 64.5721 25.0163 64.1177 25.7197L62.1432 28.7185C61.6888 29.4219 61.907 30.4345 62.6108 30.8882C63.3291 31.3389 64.2701 31.1361 64.7245 30.4327L66.6846 27.437C67.139 26.7336 66.9208 25.721 66.217 25.2673Z" fill="#1685B0"/>
<path d="M369.157 32.2729L382.829 29.715C383.345 29.6184 383.696 29.1345 383.608 28.6311L380.961 14.4694C380.933 14.3193 380.875 14.1748 380.789 14.0475C380.598 13.7605 380.174 13.4873 379.301 12.9395C377.733 11.9604 375.361 10.4742 374.451 8.40358L374.344 8.16079C374.009 7.39891 373.502 6.25088 373.249 5.33022C373.037 4.5632 372.387 3.60939 370.79 3.9082C369.565 4.13736 368.843 4.86393 368.755 5.8244C368.62 7.32565 368.918 9.95265 370.864 14.1118C370.875 14.1395 370.874 14.1637 370.865 14.1833C370.855 14.1971 370.84 14.2178 370.804 14.2245L362.65 15.75C361.954 15.8803 361.321 16.2855 360.924 16.8557C360.532 17.4189 360.391 18.0908 360.525 18.7409C360.752 19.8218 361.699 20.6006 362.793 20.7007C362.42 21.2306 362.252 21.8953 362.376 22.5592C362.584 23.6735 363.552 24.4962 364.655 24.6125C364.276 25.1435 364.109 25.8141 364.233 26.478C364.439 27.5807 365.377 28.3733 366.473 28.4849C366.119 29.0172 365.968 29.6728 366.102 30.323C366.37 31.659 367.738 32.5264 369.155 32.2613L369.157 32.2729ZM370.975 4.73393C371.912 4.55869 372.279 5.09348 372.402 5.55437C372.655 6.54078 373.192 7.71895 373.538 8.5028L373.645 8.74559C374.654 11.0485 377.159 12.6173 378.82 13.6569C379.348 13.9884 379.946 14.3605 380.042 14.5098C380.068 14.5468 380.083 14.5919 380.09 14.6323L382.738 28.794C382.745 28.8344 382.716 28.8758 382.674 28.8837L369.002 31.4415C368.059 31.6179 367.144 31.0423 366.972 30.1601C366.815 29.383 367.269 28.6527 368.039 28.3532C368.254 28.2712 368.367 28.0469 368.303 27.8378C368.239 27.6286 368.023 27.5018 367.801 27.5434L367.795 27.5445L367.095 27.6275C366.165 27.8016 365.272 27.2157 365.105 26.3209C364.953 25.5069 365.455 24.7019 366.27 24.4418C366.487 24.3714 366.619 24.1494 366.567 23.9381C366.514 23.7209 366.297 23.5883 366.074 23.6241C366.002 23.6376 365.35 23.7416 365.254 23.7596C364.335 23.9315 363.417 23.3085 363.248 22.4021C363.088 21.5477 363.646 20.7084 364.519 20.4913C364.749 20.4302 364.895 20.2117 364.841 19.9888C364.793 19.7648 364.567 19.6218 364.333 19.6656C364.333 19.6656 363.51 19.8195 363.366 19.8464C362.454 20.0172 361.564 19.4486 361.382 18.5745C361.296 18.1484 361.388 17.707 361.648 17.3357C361.912 16.9518 362.335 16.6874 362.803 16.5998L370.957 15.0743C371.257 15.0181 371.502 14.8348 371.647 14.5748C371.783 14.3102 371.79 14.0103 371.654 13.7489C370.077 10.6022 369.499 7.20895 369.631 5.88764C369.706 5.12667 370.493 4.84801 370.959 4.74884C370.959 4.74884 370.959 4.74884 370.965 4.74772L370.975 4.73393Z" fill="#1685B0" stroke="#1685B0" stroke-width="1.9"/>
<path d="M386.203 26.3351C385.739 26.422 385.295 26.1305 385.211 25.6841C385.128 25.2377 385.437 24.8055 385.901 24.7186C386.365 24.6318 386.809 24.9232 386.893 25.3696C386.976 25.816 386.667 26.2483 386.203 26.3351Z" fill="#1685B0" stroke="#1685B0"/>
<path d="M383.994 29.4967L389.314 28.5014C389.902 28.3914 390.29 27.8408 390.185 27.2808L387.482 12.8189C387.376 12.2531 386.81 11.8869 386.228 11.9958L380.908 12.9911C380.32 13.1012 379.932 13.6518 380.036 14.2118L382.74 28.6737C382.846 29.2395 383.411 29.6057 383.994 29.4967ZM386.38 12.8099C386.5 12.7874 386.614 12.8618 386.635 12.9772L389.339 27.4391C389.36 27.5546 389.282 27.665 389.162 27.6874L383.842 28.6827C383.722 28.7052 383.608 28.6308 383.587 28.5153L380.883 14.0534C380.861 13.9379 380.94 13.8276 381.06 13.8051L386.38 12.8099Z" fill="#1685B0" stroke="#1685B0" stroke-width="1.9"/>
<path fill-rule="evenodd" clip-rule="evenodd" d="M369.546 231.631C368.929 231.834 368.595 232.445 368.579 233.094L368.529 233.185C368.543 234.087 368.607 234.899 368.196 235.653C367.682 236.284 366.597 237.345 364.133 237.84C360.749 238.474 358.425 240.26 356.76 241.764C355.996 242.545 355.426 243.281 355.107 243.866C354.814 244.094 354.686 244.328 354.594 244.497L354.445 244.77L354.431 244.796C351.685 249.828 353.496 256.098 358.568 258.866C363.64 261.634 369.892 259.765 372.638 254.732C374.007 252.223 374.809 249.825 375.176 247.916C375.485 247.039 375.485 246.111 375.523 245.423C375.419 244.995 375.431 244.664 375.292 244.301C375.152 243.938 375.027 243.549 374.563 243.161C374.346 242.941 373.913 242.806 373.409 242.801C373.036 242.867 372.728 243.121 372.4 243.414C372.215 243.752 371.823 244.163 371.286 244.528C371.761 243.657 372.258 242.746 372.501 241.681C373.509 238.907 373.547 235.434 371.256 232.21C370.87 231.679 370.156 231.441 369.546 231.631ZM357.032 246.215C355.074 249.804 356.346 254.278 359.987 256.266C363.629 258.253 368.079 256.902 370.037 253.313C371.25 251.089 372.019 249.062 372.359 247.51C372.13 247.621 371.9 247.732 371.671 247.843C370.468 248.502 368.595 249.151 367.034 248.299C366.514 248.015 366.23 247.607 366.277 247.211C366.195 246.744 366.299 246.244 366.642 245.925C367.663 244.981 369.044 243.068 369.761 240.827C370.106 239.885 370.17 238.84 370.198 237.859C369.151 239.161 367.417 240.172 364.745 240.739C362.102 241.254 360.177 242.616 358.827 243.854C358.278 244.55 357.793 245.129 357.408 245.526L357.032 246.215Z" fill="#1685B0"/>
<g clip-path="url(#clip1_5897_75005)">
<path d="M349.515 668.743C349.398 668.704 349.277 668.675 349.154 668.649C349.277 668.674 349.397 668.704 349.515 668.743Z" fill="#1685B0"/>
<path d="M349.078 668.631C348.933 668.606 348.786 668.589 348.636 668.585C348.786 668.589 348.933 668.606 349.078 668.631Z" fill="#1685B0"/>
<path d="M321.69 683.131C321.611 683.259 321.544 683.391 321.486 683.526C321.544 683.391 321.611 683.259 321.69 683.131Z" fill="#1685B0"/>
<path d="M333.004 693.95C333.065 694.063 333.134 694.171 333.207 694.274C333.134 694.171 333.065 694.064 333.004 693.95Z" fill="#1685B0"/>
<path d="M334.338 695.243C334.338 695.243 334.345 695.247 334.348 695.249C334.345 695.248 334.341 695.246 334.338 695.243Z" fill="#1685B0"/>
<path d="M351.583 686.7C351.593 686.675 351.6 686.65 351.61 686.625C351.6 686.65 351.593 686.675 351.583 686.7Z" fill="#1685B0"/>
<path d="M335.135 695.519C335.161 695.524 335.186 695.532 335.212 695.537C335.186 695.532 335.161 695.525 335.135 695.519Z" fill="#1685B0"/>
<path d="M334.726 695.408C334.742 695.413 334.756 695.42 334.772 695.425C334.757 695.419 334.742 695.413 334.726 695.408Z" fill="#1685B0"/>
<path d="M333.667 694.783C333.673 694.789 333.678 694.794 333.685 694.8C333.678 694.795 333.673 694.789 333.667 694.783Z" fill="#1685B0"/>
<path d="M328.621 685.419C328.622 685.426 328.624 685.432 328.625 685.439C328.624 685.432 328.622 685.426 328.621 685.419Z" fill="#1685B0"/>
<path d="M333.361 694.467C333.386 694.496 333.409 694.527 333.434 694.555C333.408 694.527 333.386 694.496 333.361 694.467Z" fill="#1685B0"/>
<path d="M328.69 685.763C328.699 685.798 328.712 685.832 328.722 685.867C328.712 685.832 328.7 685.798 328.69 685.763Z" fill="#1685B0"/>
<path d="M328.799 686.108C328.845 686.225 328.896 686.341 328.956 686.454C328.896 686.341 328.844 686.225 328.799 686.108Z" fill="#1685B0"/>
<path d="M349.563 668.76C349.692 668.805 349.818 668.858 349.939 668.919C349.818 668.858 349.692 668.806 349.563 668.76Z" fill="#1685B0"/>
<path d="M330.097 701.285L330.092 701.281C330.092 701.281 330.096 701.283 330.097 701.285Z" fill="#1685B0"/>
<path d="M321.458 683.602C321.411 683.718 321.369 683.835 321.338 683.956C321.37 683.836 321.411 683.718 321.458 683.602Z" fill="#1685B0"/>
<path d="M321.235 684.859L328.593 685.069L321.235 684.859Z" fill="#1685B0"/>
<path d="M330.476 701.51C330.457 701.5 330.442 701.488 330.424 701.478C330.442 701.488 330.458 701.5 330.477 701.51L330.476 701.51Z" fill="#1685B0"/>
<path d="M334.348 675.196C334.458 675.117 334.571 675.046 334.69 674.982C334.808 674.918 334.93 674.862 335.056 674.814C334.805 674.91 334.567 675.039 334.348 675.196Z" fill="#1685B0"/>
<path d="M351.731 686.272C351.735 686.256 351.738 686.24 351.742 686.224C351.738 686.24 351.736 686.256 351.731 686.272Z" fill="#1685B0"/>
<path d="M347.663 702.304C348.219 702.319 348.759 702.187 349.232 701.931C349.705 701.676 350.112 701.298 350.404 700.824L358.737 687.305C358.816 687.177 358.883 687.045 358.941 686.909C358.883 687.044 358.816 687.177 358.737 687.305L350.404 700.824C349.82 701.772 348.776 702.336 347.663 702.304L331.79 701.851C331.64 701.847 331.492 701.83 331.347 701.805C331.493 701.831 331.64 701.847 331.79 701.851L347.663 702.304Z" fill="#1685B0"/>
<path d="M351.816 685.821C351.816 685.821 351.817 685.813 351.817 685.809C351.816 685.813 351.815 685.817 351.816 685.821Z" fill="#1685B0"/>
<path d="M351.834 685.368C351.819 684.891 351.702 684.416 351.468 683.981L347.423 676.487C347.189 676.052 346.856 675.694 346.465 675.42L350.328 669.152C350.208 669.068 350.082 668.993 349.951 668.926C350.507 669.208 350.979 669.651 351.286 670.219L358.827 684.192C359.133 684.76 359.244 685.397 359.175 686.018C359.19 685.872 359.196 685.724 359.192 685.577L351.833 685.367L351.834 685.368Z" fill="#1685B0"/>
<path d="M321.233 684.859C321.233 684.859 321.233 684.864 321.233 684.868C321.228 684.718 321.234 684.568 321.251 684.419C321.235 684.565 321.228 684.712 321.233 684.859Z" fill="#1685B0"/>
<path d="M329.752 701.004C329.85 701.094 329.951 701.179 330.058 701.256C329.951 701.178 329.849 701.095 329.752 701.004Z" fill="#1685B0"/>
<path d="M328.612 684.616C328.612 684.616 328.611 684.624 328.611 684.628C328.611 684.624 328.611 684.62 328.612 684.616Z" fill="#1685B0"/>
<path d="M329.452 700.678C329.528 700.773 329.607 700.865 329.694 700.95C329.607 700.865 329.528 700.774 329.452 700.678Z" fill="#1685B0"/>
<path d="M330.91 701.694C331.027 701.733 331.149 701.763 331.272 701.787C331.149 701.763 331.028 701.733 330.91 701.694Z" fill="#1685B0"/>
<path d="M330.487 701.517C330.608 701.579 330.734 701.631 330.863 701.677C330.734 701.631 330.608 701.579 330.487 701.517Z" fill="#1685B0"/>
<path d="M330.099 701.284C330.219 701.368 330.345 701.443 330.475 701.51C330.345 701.444 330.219 701.368 330.099 701.284Z" fill="#1685B0"/>
<path d="M321.236 684.906C321.241 685.039 321.257 685.172 321.279 685.303C321.256 685.172 321.242 685.039 321.236 684.906Z" fill="#1685B0"/>
<path d="M321.327 684.003C321.294 684.136 321.268 684.27 321.253 684.406C321.269 684.27 321.294 684.136 321.327 684.003Z" fill="#1685B0"/>
<path d="M321.6 686.244C321.527 686.109 321.467 685.97 321.416 685.827C321.467 685.969 321.527 686.109 321.6 686.244Z" fill="#1685B0"/>
<path d="M321.292 685.38C321.316 685.499 321.348 685.616 321.386 685.733C321.348 685.617 321.316 685.499 321.292 685.38Z" fill="#1685B0"/>
<path d="M329.141 700.218C329.214 700.353 329.297 700.48 329.387 700.6C329.297 700.479 329.213 700.353 329.141 700.218Z" fill="#1685B0"/>
<path d="M345.293 674.917C345.267 674.912 345.242 674.903 345.215 674.899C345.241 674.904 345.267 674.911 345.293 674.917Z" fill="#1685B0"/>
<path d="M328.695 684.165C328.691 684.18 328.688 684.197 328.684 684.213C328.688 684.197 328.691 684.18 328.695 684.165Z" fill="#1685B0"/>
<path d="M345.7 675.028C345.684 675.023 345.669 675.016 345.653 675.011C345.669 675.016 345.684 675.023 345.7 675.028Z" fill="#1685B0"/>
<path d="M328.843 683.737C328.832 683.762 328.825 683.787 328.815 683.812C328.825 683.787 328.832 683.762 328.843 683.737Z" fill="#1685B0"/>
<path d="M358.97 686.835C359.016 686.719 359.058 686.601 359.09 686.481C359.058 686.601 359.017 686.719 358.97 686.835Z" fill="#1685B0"/>
<path d="M359.101 686.433C359.134 686.3 359.16 686.166 359.175 686.031C359.159 686.166 359.135 686.3 359.101 686.433Z" fill="#1685B0"/>
<path d="M335.846 674.625C335.574 674.654 335.309 674.717 335.058 674.814C335.309 674.718 335.574 674.654 335.846 674.625Z" fill="#1685B0"/>
<path d="M346.088 675.192C346.088 675.192 346.081 675.188 346.077 675.187C346.081 675.188 346.085 675.191 346.088 675.192Z" fill="#1685B0"/>
<path d="M330.098 701.284L333.961 695.017C334.081 695.101 334.207 695.177 334.339 695.244C334.342 695.245 334.346 695.247 334.349 695.25C334.471 695.312 334.598 695.364 334.727 695.409C334.742 695.415 334.757 695.421 334.773 695.426C334.89 695.465 335.012 695.495 335.135 695.52C335.161 695.524 335.186 695.533 335.212 695.537C335.357 695.563 335.505 695.579 335.655 695.584L344.169 695.827C344.725 695.843 345.265 695.71 345.738 695.454L349.233 701.932C348.76 702.187 348.221 702.32 347.665 702.304L331.792 701.852C331.642 701.847 331.495 701.831 331.349 701.805C331.323 701.8 331.298 701.792 331.272 701.787C331.15 701.763 331.028 701.733 330.91 701.694C330.895 701.689 330.879 701.682 330.864 701.677C330.735 701.631 330.609 701.579 330.487 701.517C330.483 701.515 330.48 701.513 330.476 701.511C330.457 701.501 330.44 701.489 330.422 701.479C330.311 701.419 330.202 701.355 330.098 701.284Z" fill="#1685B0"/>
<path d="M350.406 700.824C350.114 701.298 349.707 701.676 349.234 701.931L345.738 695.454C346.212 695.199 346.619 694.82 346.91 694.347L351.38 687.095C351.459 686.967 351.526 686.835 351.584 686.699C351.595 686.675 351.602 686.65 351.612 686.625C351.658 686.509 351.701 686.391 351.732 686.271C351.736 686.255 351.74 686.239 351.744 686.224C351.776 686.091 351.803 685.956 351.818 685.82C351.818 685.816 351.819 685.812 351.818 685.808C351.834 685.662 351.84 685.515 351.836 685.367L359.194 685.578C359.199 685.725 359.192 685.872 359.177 686.018C359.177 686.023 359.176 686.027 359.176 686.032C359.161 686.167 359.135 686.301 359.102 686.434C359.098 686.45 359.095 686.466 359.091 686.482C359.06 686.602 359.018 686.72 358.971 686.836C358.961 686.86 358.954 686.886 358.943 686.91C358.885 687.046 358.818 687.178 358.739 687.306L350.406 700.824Z" fill="#1685B0"/>
<path d="M334.689 674.983C334.57 675.047 334.457 675.118 334.347 675.197C334.019 675.433 333.736 675.735 333.517 676.09L329.047 683.342C328.969 683.47 328.901 683.602 328.843 683.737C328.833 683.762 328.825 683.788 328.815 683.813C328.769 683.929 328.727 684.046 328.695 684.166C328.691 684.182 328.689 684.199 328.684 684.214C328.652 684.347 328.626 684.482 328.61 684.617C328.61 684.621 328.609 684.626 328.609 684.63C328.593 684.776 328.587 684.923 328.591 685.07L321.233 684.86C321.23 684.714 321.234 684.567 321.251 684.42C321.251 684.415 321.251 684.412 321.252 684.407C321.251 684.412 321.251 684.415 321.251 684.42C321.235 684.566 321.229 684.713 321.233 684.86C321.229 684.713 321.235 684.565 321.251 684.42C321.251 684.415 321.251 684.412 321.252 684.407C321.267 684.272 321.292 684.137 321.325 684.005C321.329 683.989 321.332 683.972 321.336 683.956C321.368 683.837 321.41 683.719 321.456 683.603C321.466 683.578 321.473 683.552 321.484 683.528C321.542 683.393 321.609 683.26 321.688 683.132L330.021 669.613C330.24 669.258 330.523 668.956 330.851 668.72C330.961 668.641 331.074 668.57 331.193 668.506L334.688 674.983L334.689 674.983Z" fill="#1685B0"/>
<path d="M349.952 668.925C350.083 668.992 350.209 669.067 350.329 669.152L346.466 675.42C346.346 675.335 346.22 675.26 346.088 675.193C346.085 675.191 346.081 675.189 346.077 675.187C345.956 675.126 345.829 675.073 345.7 675.028C345.684 675.023 345.669 675.016 345.653 675.011C345.536 674.972 345.415 674.943 345.292 674.917C345.266 674.911 345.241 674.903 345.214 674.899C345.069 674.874 344.921 674.857 344.771 674.853L343.155 674.807L342.626 669.311L337.667 674.65L336.257 674.609C336.118 674.605 335.979 674.611 335.844 674.625C335.571 674.653 335.306 674.717 335.055 674.814C334.929 674.862 334.807 674.918 334.688 674.982L331.193 668.505C331.547 668.313 331.939 668.191 332.348 668.147C332.484 668.133 332.622 668.128 332.761 668.132L348.636 668.585C348.786 668.589 348.933 668.605 349.078 668.631C349.105 668.636 349.13 668.644 349.157 668.649C349.279 668.674 349.4 668.703 349.518 668.743C349.533 668.748 349.549 668.755 349.564 668.76C349.693 668.806 349.819 668.858 349.941 668.92C349.945 668.922 349.948 668.924 349.952 668.926L349.952 668.925Z" fill="#1685B0"/>
<path d="M328.593 685.069C328.597 685.186 328.606 685.304 328.622 685.42C328.623 685.427 328.625 685.433 328.626 685.44C328.642 685.548 328.663 685.655 328.69 685.762C328.699 685.797 328.711 685.832 328.722 685.867C328.746 685.947 328.77 686.028 328.8 686.107C328.845 686.225 328.897 686.34 328.958 686.453L333.003 693.95C333.065 694.064 333.133 694.171 333.207 694.274C333.255 694.341 333.309 694.404 333.362 694.467C333.387 694.496 333.41 694.527 333.435 694.555C333.509 694.635 333.586 694.711 333.667 694.783C333.673 694.789 333.678 694.794 333.685 694.8C333.773 694.876 333.865 694.949 333.96 695.016L333.961 695.017L330.098 701.284C330.098 701.284 330.094 701.281 330.093 701.28C330.081 701.272 330.07 701.264 330.058 701.256C329.951 701.179 329.85 701.094 329.753 701.004C329.733 700.986 329.713 700.968 329.694 700.949C329.607 700.864 329.528 700.773 329.452 700.677C329.43 700.651 329.407 700.627 329.387 700.599C329.297 700.479 329.213 700.352 329.141 700.218L321.6 686.244C321.527 686.109 321.467 685.969 321.415 685.827C321.404 685.796 321.396 685.764 321.386 685.732C321.349 685.616 321.316 685.498 321.292 685.379C321.287 685.353 321.283 685.328 321.279 685.301C321.256 685.17 321.241 685.037 321.235 684.904C321.235 684.891 321.234 684.878 321.234 684.866C321.234 684.863 321.234 684.86 321.234 684.858L328.592 685.068L328.593 685.069Z" fill="#1685B0"/>
<path d="M321.234 684.859C321.23 684.712 321.236 684.565 321.252 684.42C321.235 684.566 321.231 684.713 321.235 684.86L321.234 684.859Z" fill="#1685B0"/>
<path d="M330.099 701.284C330.203 701.356 330.311 701.419 330.423 701.479C330.441 701.488 330.457 701.501 330.475 701.51C330.345 701.444 330.219 701.368 330.099 701.284L330.099 701.284Z" fill="#1685B0"/>
<path d="M321.254 684.405C321.254 684.405 321.253 684.414 321.253 684.418L321.254 684.405Z" fill="#1685B0"/>
</g>
<g clip-path="url(#clip2_5897_75005)">
<path d="M99.1726 499.269C99.0973 499.299 99.0245 499.335 98.9523 499.373C99.0242 499.334 99.0972 499.299 99.1726 499.269Z" fill="#1685B0"/>
<path d="M98.9062 499.397C98.823 499.445 98.7421 499.498 98.6651 499.559C98.7421 499.498 98.823 499.445 98.9062 499.397Z" fill="#1685B0"/>
<path d="M91.2647 518.142C91.2789 518.239 91.3004 518.334 91.3282 518.426C91.3009 518.334 91.2789 518.239 91.2647 518.142Z" fill="#1685B0"/>
<path d="M101.467 518.82C101.545 518.851 101.625 518.876 101.705 518.897C101.625 518.876 101.546 518.851 101.467 518.82Z" fill="#1685B0"/>
<path d="M102.679 518.908C102.679 518.908 102.683 518.907 102.686 518.907C102.684 518.907 102.681 518.908 102.679 518.908Z" fill="#1685B0"/>
<path d="M107.735 507.398C107.73 507.382 107.723 507.366 107.718 507.349C107.723 507.366 107.73 507.382 107.735 507.398Z" fill="#1685B0"/>
<path d="M103.193 518.712C103.208 518.704 103.224 518.698 103.239 518.689C103.224 518.698 103.208 518.704 103.193 518.712Z" fill="#1685B0"/>
<path d="M102.943 518.828C102.953 518.824 102.963 518.821 102.973 518.817C102.963 518.821 102.953 518.824 102.943 518.828Z" fill="#1685B0"/>
<path d="M102.149 518.959C102.154 518.96 102.159 518.96 102.165 518.96C102.159 518.96 102.154 518.959 102.149 518.959Z" fill="#1685B0"/>
<path d="M95.696 516.383C95.6993 516.386 95.7027 516.388 95.706 516.391C95.7027 516.388 95.6993 516.386 95.696 516.383Z" fill="#1685B0"/>
<path d="M101.863 518.929C101.887 518.933 101.912 518.939 101.936 518.942C101.912 518.939 101.887 518.933 101.863 518.929Z" fill="#1685B0"/>
<path d="M95.8758 516.526C95.8948 516.539 95.9156 516.552 95.9355 516.564C95.9158 516.551 95.8953 516.54 95.8758 516.526Z" fill="#1685B0"/>
<path d="M96.0745 516.653C96.1468 516.692 96.2207 516.729 96.2986 516.76C96.2207 516.729 96.1466 516.693 96.0745 516.653Z" fill="#1685B0"/>
<path d="M99.2033 499.258C99.2867 499.226 99.3722 499.2 99.4587 499.18C99.3722 499.2 99.287 499.227 99.2033 499.258Z" fill="#1685B0"/>
<path d="M103.086 523.711L103.082 523.712C103.082 523.712 103.084 523.711 103.086 523.711Z" fill="#1685B0"/>
<path d="M91.3448 518.475C91.3701 518.552 91.3982 518.628 91.433 518.702C91.3989 518.628 91.37 518.553 91.3448 518.475Z" fill="#1685B0"/>
<path d="M91.7606 519.198L95.5344 516.219L91.7606 519.198Z" fill="#1685B0"/>
<path d="M103.372 523.666C103.358 523.669 103.345 523.669 103.332 523.672C103.345 523.669 103.359 523.669 103.372 523.666L103.372 523.666Z" fill="#1685B0"/>
<path d="M94.2789 508.86C94.3007 508.775 94.3277 508.692 94.3603 508.61C94.3928 508.528 94.4305 508.449 94.4734 508.372C94.3877 508.526 94.3223 508.69 94.2789 508.86Z" fill="#1685B0"/>
<path d="M107.631 507.122C107.626 507.112 107.621 507.103 107.616 507.093C107.621 507.103 107.626 507.112 107.631 507.122Z" fill="#1685B0"/>
<path d="M112.315 516.86C112.601 516.634 112.815 516.342 112.945 516.015C113.075 515.689 113.121 515.329 113.068 514.969L111.575 504.703C111.561 504.606 111.539 504.512 111.512 504.42C111.539 504.512 111.561 504.606 111.575 504.703L113.068 514.969C113.173 515.689 112.886 516.409 112.315 516.86L104.174 523.287C104.097 523.347 104.016 523.401 103.933 523.449C104.016 523.401 104.097 523.347 104.174 523.287L112.315 516.86Z" fill="#1685B0"/>
<path d="M107.484 506.861C107.484 506.861 107.481 506.856 107.479 506.855C107.48 506.857 107.482 506.859 107.484 506.861Z" fill="#1685B0"/>
<path d="M107.304 506.626C107.097 506.393 106.839 506.204 106.54 506.085L101.372 504.026C101.072 503.906 100.755 503.866 100.445 503.893L99.7521 499.134C99.6564 499.142 99.5618 499.157 99.4682 499.178C99.8655 499.086 100.288 499.11 100.679 499.266L110.314 503.106C110.706 503.262 111.029 503.535 111.254 503.874C111.201 503.795 111.142 503.718 111.078 503.647L107.304 506.626L107.304 506.626Z" fill="#1685B0"/>
<path d="M91.7596 519.198C91.7596 519.198 91.7617 519.201 91.7635 519.203C91.6983 519.13 91.6384 519.053 91.5841 518.971C91.6375 519.051 91.6957 519.127 91.7596 519.198Z" fill="#1685B0"/>
<path d="M102.796 523.716C102.882 523.72 102.969 523.721 103.055 523.714C102.969 523.72 102.883 523.721 102.796 523.716Z" fill="#1685B0"/>
<path d="M95.3551 515.984C95.3551 515.984 95.3583 515.989 95.3596 515.991C95.3583 515.989 95.3564 515.986 95.3551 515.984Z" fill="#1685B0"/>
<path d="M102.509 523.679C102.587 523.694 102.665 523.707 102.744 523.713C102.665 523.707 102.587 523.695 102.509 523.679Z" fill="#1685B0"/>
<path d="M103.665 523.576C103.74 523.547 103.813 523.511 103.885 523.471C103.813 523.511 103.74 523.546 103.665 523.576Z" fill="#1685B0"/>
<path d="M103.379 523.665C103.465 523.645 103.55 523.618 103.634 523.587C103.55 523.619 103.465 523.645 103.379 523.665Z" fill="#1685B0"/>
<path d="M103.087 523.711C103.182 523.703 103.277 523.688 103.37 523.667C103.277 523.688 103.182 523.703 103.087 523.711Z" fill="#1685B0"/>
<path d="M91.7802 519.221C91.8386 519.286 91.9022 519.345 91.9688 519.402C91.902 519.346 91.8393 519.285 91.7802 519.221Z" fill="#1685B0"/>
<path d="M91.4475 518.731C91.4868 518.811 91.5298 518.889 91.5793 518.963C91.5305 518.889 91.4866 518.811 91.4475 518.731Z" fill="#1685B0"/>
<path d="M92.5248 519.74C92.4316 519.702 92.3431 519.658 92.2576 519.608C92.3426 519.657 92.4316 519.702 92.5248 519.74Z" fill="#1685B0"/>
<path d="M92.0069 519.436C92.0689 519.485 92.1345 519.53 92.2022 519.573C92.1343 519.531 92.0689 519.485 92.0069 519.436Z" fill="#1685B0"/>
<path d="M102.161 523.579C102.254 523.616 102.349 523.644 102.444 523.667C102.349 523.644 102.254 523.616 102.161 523.579Z" fill="#1685B0"/>
<path d="M99.6453 504.132C99.6302 504.141 99.6138 504.147 99.5985 504.156C99.6136 504.148 99.6297 504.141 99.6453 504.132Z" fill="#1685B0"/>
<path d="M95.2076 515.722C95.2122 515.732 95.2178 515.741 95.2224 515.751C95.2178 515.741 95.2122 515.732 95.2076 515.722Z" fill="#1685B0"/>
<path d="M99.8962 504.017C99.8864 504.021 99.8757 504.024 99.8658 504.028C99.8757 504.024 99.8864 504.021 99.8962 504.017Z" fill="#1685B0"/>
<path d="M95.1028 515.447C95.1077 515.464 95.1149 515.479 95.1205 515.496C95.1149 515.479 95.1077 515.464 95.1028 515.447Z" fill="#1685B0"/>
<path d="M111.494 504.371C111.469 504.293 111.44 504.217 111.406 504.143C111.44 504.217 111.469 504.293 111.494 504.371Z" fill="#1685B0"/>
<path d="M111.39 504.114C111.351 504.034 111.307 503.956 111.258 503.882C111.307 503.957 111.351 504.034 111.39 504.114Z" fill="#1685B0"/>
<path d="M94.7908 507.947C94.6661 508.075 94.56 508.219 94.4749 508.372C94.5605 508.219 94.6666 508.076 94.7908 507.947Z" fill="#1685B0"/>
<path d="M100.16 503.937C100.16 503.937 100.155 503.938 100.152 503.939C100.155 503.938 100.158 503.938 100.16 503.937Z" fill="#1685B0"/>
<path d="M103.086 523.711L102.394 518.952C102.489 518.944 102.584 518.929 102.678 518.907C102.681 518.907 102.683 518.906 102.686 518.906C102.773 518.886 102.858 518.859 102.942 518.828C102.952 518.824 102.962 518.821 102.972 518.817C103.047 518.787 103.121 518.751 103.193 518.712C103.208 518.703 103.224 518.697 103.239 518.688C103.322 518.64 103.403 518.587 103.48 518.526L107.847 515.079C108.132 514.854 108.347 514.561 108.477 514.235L112.943 516.014C112.813 516.341 112.599 516.633 112.314 516.858L104.172 523.285C104.095 523.346 104.015 523.4 103.931 523.448C103.916 523.456 103.9 523.463 103.885 523.471C103.813 523.51 103.74 523.546 103.665 523.576C103.655 523.58 103.644 523.583 103.634 523.587C103.55 523.618 103.465 523.645 103.379 523.665C103.376 523.665 103.373 523.666 103.37 523.666C103.357 523.669 103.343 523.67 103.33 523.673C103.249 523.689 103.168 523.703 103.086 523.711Z" fill="#1685B0"/>
<path d="M113.067 514.969C113.119 515.328 113.073 515.688 112.943 516.015L108.477 514.235C108.607 513.909 108.652 513.548 108.6 513.189L107.799 507.682C107.785 507.585 107.763 507.491 107.735 507.398C107.73 507.382 107.724 507.366 107.718 507.35C107.693 507.272 107.664 507.195 107.63 507.122C107.626 507.112 107.62 507.103 107.616 507.093C107.576 507.013 107.533 506.934 107.484 506.86C107.482 506.858 107.481 506.856 107.479 506.854C107.426 506.774 107.367 506.698 107.303 506.626L111.077 503.647C111.141 503.719 111.2 503.795 111.253 503.875C111.255 503.877 111.257 503.879 111.258 503.882C111.307 503.956 111.351 504.034 111.39 504.114C111.395 504.124 111.401 504.133 111.405 504.143C111.439 504.216 111.468 504.293 111.493 504.371C111.498 504.387 111.505 504.403 111.51 504.419C111.538 504.512 111.56 504.606 111.574 504.703L113.067 514.969Z" fill="#1685B0"/>
<path d="M94.3606 508.61C94.328 508.691 94.3009 508.775 94.2792 508.86C94.214 509.116 94.1984 509.386 94.2374 509.655L95.0385 515.163C95.0528 515.26 95.0743 515.354 95.102 515.446C95.1072 515.463 95.1141 515.479 95.1197 515.496C95.1451 515.573 95.1731 515.649 95.2079 515.723C95.2124 515.732 95.2181 515.742 95.2226 515.752C95.2619 515.832 95.3055 515.91 95.3543 515.984C95.3556 515.987 95.3574 515.989 95.3588 515.991C95.4122 516.071 95.4709 516.147 95.5346 516.22L91.7607 519.198C91.6975 519.127 91.638 519.051 91.5848 518.971C91.5829 518.968 91.5816 518.966 91.5797 518.964C91.5816 518.966 91.5829 518.968 91.5848 518.971C91.6382 519.05 91.6964 519.127 91.7603 519.198C91.6964 519.127 91.6377 519.05 91.5848 518.971C91.5829 518.968 91.5816 518.966 91.5797 518.964C91.5308 518.89 91.4872 518.812 91.4479 518.731C91.4434 518.722 91.4377 518.712 91.4332 518.703C91.3989 518.629 91.3708 518.553 91.345 518.475C91.3394 518.459 91.3323 518.443 91.3273 518.426C91.3 518.334 91.2781 518.239 91.2638 518.142L89.7707 507.876C89.7317 507.607 89.7473 507.337 89.8125 507.081C89.8342 506.995 89.8613 506.912 89.8939 506.83L94.3604 508.61L94.3606 508.61Z" fill="#1685B0"/>
<path d="M99.4675 499.178C99.5611 499.157 99.6557 499.142 99.7514 499.134L100.444 503.893C100.348 503.901 100.253 503.916 100.159 503.938C100.157 503.939 100.154 503.939 100.151 503.94C100.065 503.96 99.9796 503.987 99.8957 504.018C99.8858 504.022 99.8751 504.025 99.8652 504.029C99.79 504.059 99.7171 504.095 99.6449 504.133C99.6294 504.142 99.6134 504.148 99.5982 504.157C99.515 504.205 99.4341 504.259 99.357 504.319L98.5278 504.974L95.9593 502.442L95.7131 507.196L94.9896 507.767C94.9182 507.823 94.8511 507.884 94.789 507.948C94.6643 508.076 94.5583 508.219 94.4731 508.373C94.4302 508.45 94.3925 508.529 94.36 508.611L89.8935 506.831C89.9909 506.586 90.1359 506.361 90.3225 506.168C90.3848 506.103 90.4517 506.043 90.5231 505.987L98.6654 499.559C98.7425 499.499 98.8229 499.445 98.9066 499.397C98.9216 499.389 98.9378 499.382 98.9533 499.373C99.025 499.334 99.0979 499.298 99.1736 499.269C99.1835 499.265 99.1942 499.262 99.204 499.258C99.2878 499.227 99.3725 499.2 99.4595 499.18C99.4625 499.18 99.465 499.179 99.468 499.178L99.4675 499.178Z" fill="#1685B0"/>
<path d="M95.5359 516.219C95.5871 516.276 95.641 516.331 95.6978 516.383C95.7011 516.386 95.7046 516.388 95.7078 516.391C95.7613 516.439 95.8169 516.484 95.8753 516.526C95.8943 516.54 95.9151 516.552 95.935 516.565C95.9807 516.595 96.0265 516.626 96.0747 516.653C96.1468 516.693 96.2209 516.729 96.2988 516.76L101.468 518.82C101.547 518.851 101.626 518.876 101.706 518.897C101.759 518.91 101.812 518.919 101.865 518.928C101.889 518.932 101.914 518.938 101.938 518.942C102.009 518.951 102.079 518.957 102.15 518.959C102.155 518.959 102.16 518.96 102.166 518.96C102.242 518.961 102.319 518.959 102.394 518.953L102.395 518.953L103.087 523.712C103.087 523.712 103.084 523.712 103.083 523.712C103.074 523.713 103.065 523.714 103.056 523.714C102.97 523.721 102.883 523.72 102.797 523.716C102.78 523.715 102.762 523.715 102.744 523.713C102.665 523.707 102.587 523.695 102.509 523.679C102.487 523.675 102.466 523.672 102.444 523.667C102.349 523.644 102.254 523.616 102.161 523.579L92.5252 519.739C92.432 519.702 92.3435 519.658 92.258 519.608C92.239 519.597 92.2219 519.584 92.2037 519.572C92.136 519.53 92.07 519.485 92.0084 519.435C91.995 519.424 91.9827 519.413 91.9694 519.402C91.9028 519.345 91.8393 519.285 91.7809 519.221C91.7755 519.215 91.7696 519.208 91.7642 519.202C91.7632 519.201 91.7621 519.199 91.7609 519.198L95.5347 516.219L95.5359 516.219Z" fill="#1685B0"/>
<path d="M91.7618 519.199C91.6979 519.127 91.6392 519.051 91.5862 518.971C91.639 519.051 91.6985 519.127 91.7622 519.199L91.7618 519.199Z" fill="#1685B0"/>
<path d="M103.087 523.711C103.169 523.704 103.25 523.69 103.331 523.673C103.343 523.67 103.357 523.669 103.37 523.667C103.277 523.688 103.182 523.703 103.087 523.711L103.087 523.711Z" fill="#1685B0"/>
<path d="M91.5812 518.963C91.5812 518.963 91.5843 518.967 91.5862 518.97L91.5812 518.963Z" fill="#1685B0"/>
</g>
<g clip-path="url(#clip3_5897_75005)">
<path d="M18.2126 709.333C18.1444 709.32 18.0749 709.312 18.0048 709.306C18.075 709.311 18.1441 709.32 18.2126 709.333Z" fill="#1685B0"/>
<path d="M17.9619 709.301C17.8793 709.297 17.7959 709.298 17.7119 709.306C17.7959 709.298 17.8793 709.297 17.9619 709.301Z" fill="#1685B0"/>
<path d="M3.68539 719.272C3.65038 719.348 3.62182 719.426 3.59875 719.506C3.62208 719.427 3.65038 719.348 3.68539 719.272Z" fill="#1685B0"/>
<path d="M10.7409 724.525C10.7826 724.584 10.8285 724.639 10.8767 724.692C10.8285 724.639 10.7829 724.584 10.7409 724.525Z" fill="#1685B0"/>
<path d="M11.5741 725.154C11.5741 725.154 11.5783 725.155 11.5803 725.156C11.5782 725.156 11.5761 725.155 11.5741 725.154Z" fill="#1685B0"/>
<path d="M20.6027 719.203C20.6067 719.188 20.6089 719.174 20.6129 719.159C20.6089 719.174 20.6067 719.188 20.6027 719.203Z" fill="#1685B0"/>
<path d="M12.0378 725.253C12.0527 725.254 12.0672 725.257 12.082 725.258C12.0672 725.257 12.0529 725.254 12.0378 725.253Z" fill="#1685B0"/>
<path d="M11.8021 725.219C11.8111 725.221 11.8195 725.224 11.8289 725.225C11.8199 725.224 11.8111 725.221 11.8021 725.219Z" fill="#1685B0"/>
<path d="M11.1674 724.943C11.171 724.946 11.1744 724.949 11.1785 724.951C11.1747 724.949 11.1714 724.946 11.1674 724.943Z" fill="#1685B0"/>
<path d="M7.70963 720.07C7.71061 720.074 7.71195 720.077 7.71292 720.081C7.71195 720.077 7.71061 720.074 7.70963 720.07Z" fill="#1685B0"/>
<path d="M10.9767 724.788C10.9924 724.803 11.0073 724.819 11.0232 724.832C11.007 724.819 10.9924 724.803 10.9767 724.788Z" fill="#1685B0"/>
<path d="M7.77209 720.256C7.77944 720.275 7.78876 720.294 7.79709 720.312C7.78912 720.293 7.7797 720.276 7.77209 720.256Z" fill="#1685B0"/>
<path d="M7.85652 720.441C7.89035 720.503 7.92662 720.564 7.96837 720.623C7.92662 720.564 7.88999 720.504 7.85652 720.441Z" fill="#1685B0"/>
<path d="M18.2404 709.339C18.3156 709.355 18.3895 709.376 18.4614 709.402C18.3895 709.376 18.3154 709.356 18.2404 709.339Z" fill="#1685B0"/>
<path d="M9.62476 728.815L9.6215 728.813C9.6215 728.813 9.62362 728.814 9.62476 728.815Z" fill="#1685B0"/>
<path d="M3.5889 719.55C3.57103 719.618 3.55565 719.686 3.54647 719.755C3.55627 719.686 3.57067 719.618 3.5889 719.55Z" fill="#1685B0"/>
<path d="M3.55139 720.265L7.66919 719.876L3.55139 720.265Z" fill="#1685B0"/>
<path d="M9.85071 728.915C9.83934 728.91 9.82979 728.904 9.81904 728.9C9.82979 728.904 9.83996 728.91 9.85107 728.914L9.85071 728.915Z" fill="#1685B0"/>
<path d="M10.1995 713.976C10.2552 713.924 10.3136 713.877 10.3753 713.833C10.437 713.789 10.5011 713.75 10.5681 713.714C10.4345 713.785 10.3104 713.873 10.1995 713.976Z" fill="#1685B0"/>
<path d="M20.655 718.954C20.6563 718.945 20.6569 718.936 20.6581 718.927C20.6569 718.936 20.6566 718.945 20.655 718.954Z" fill="#1685B0"/>
<path d="M19.4935 728.174C19.8049 728.144 20.0966 728.033 20.3429 727.858C20.5893 727.683 20.7902 727.444 20.9203 727.16L24.6364 719.049C24.6714 718.972 24.6999 718.894 24.723 718.814C24.6997 718.893 24.6714 718.972 24.6364 719.049L20.9203 727.16C20.66 727.729 20.1162 728.115 19.4935 728.174L10.6098 729.014C10.5259 729.022 10.4424 729.023 10.3598 729.019C10.4427 729.023 10.5259 729.022 10.6098 729.014L19.4935 728.174Z" fill="#1685B0"/>
<path d="M20.6714 718.697C20.6714 718.697 20.6715 718.693 20.671 718.69C20.6709 718.692 20.6709 718.695 20.6714 718.697Z" fill="#1685B0"/>
<path d="M20.6513 718.443C20.6106 718.179 20.5125 717.921 20.3519 717.695L17.5799 713.795C17.4194 713.569 17.209 713.392 16.9721 713.266L18.6946 709.505C18.6217 709.467 18.5463 709.433 18.4687 709.405C18.7987 709.524 19.0924 709.739 19.3024 710.034L24.4703 717.306C24.6804 717.602 24.7861 717.95 24.7903 718.3C24.7889 718.218 24.7822 718.135 24.7695 718.054L20.6511 718.443L20.6513 718.443Z" fill="#1685B0"/>
<path d="M3.55076 720.266C3.55076 720.266 3.55085 720.269 3.55152 720.271C3.53844 720.188 3.53126 720.104 3.53023 720.02C3.53157 720.102 3.53809 720.184 3.55076 720.266Z" fill="#1685B0"/>
<path d="M9.415 728.682C9.47532 728.725 9.53765 728.766 9.60254 728.801C9.53776 728.765 9.47521 728.726 9.415 728.682Z" fill="#1685B0"/>
<path d="M7.64802 719.623C7.64802 719.623 7.64816 719.627 7.6481 719.63C7.64816 719.627 7.64796 719.625 7.64802 719.623Z" fill="#1685B0"/>
<path d="M9.22255 728.52C9.27163 728.568 9.32226 728.613 9.37622 728.655C9.32226 728.613 9.27153 728.568 9.22255 728.52Z" fill="#1685B0"/>
<path d="M10.1067 728.986C10.1749 729 10.2446 729.008 10.3149 729.013C10.2446 729.008 10.1752 728.999 10.1067 728.986Z" fill="#1685B0"/>
<path d="M9.85878 728.917C9.93068 728.943 10.0048 728.963 10.0798 728.98C10.0044 728.964 9.93068 728.943 9.85878 728.917Z" fill="#1685B0"/>
<path d="M9.62608 728.813C9.69872 728.852 9.77417 728.885 9.85107 728.913C9.77381 728.885 9.69872 728.852 9.62608 728.813Z" fill="#1685B0"/>
<path d="M3.5554 720.291C3.56748 720.365 3.58545 720.438 3.6071 720.51C3.58509 720.438 3.5681 720.365 3.5554 720.291Z" fill="#1685B0"/>
<path d="M3.54335 719.782C3.53425 719.858 3.52899 719.934 3.53004 720.011C3.52961 719.935 3.53389 719.858 3.54335 719.782Z" fill="#1685B0"/>
<path d="M3.85062 721.013C3.80062 720.942 3.75756 720.869 3.719 720.793C3.7573 720.868 3.80062 720.942 3.85062 721.013Z" fill="#1685B0"/>
<path d="M3.61792 720.552C3.63948 720.617 3.66581 720.68 3.69482 720.743C3.66544 720.68 3.63948 720.617 3.61792 720.552Z" fill="#1685B0"/>
<path d="M9.01936 728.286C9.06936 728.356 9.12475 728.421 9.18311 728.482C9.12449 728.421 9.0691 728.356 9.01936 728.286Z" fill="#1685B0"/>
<path d="M16.2837 713.066C16.2688 713.065 16.2541 713.062 16.2389 713.061C16.2537 713.062 16.2686 713.065 16.2837 713.066Z" fill="#1685B0"/>
<path d="M7.66367 719.365C7.66245 719.374 7.66212 719.383 7.66091 719.393C7.66212 719.383 7.66245 719.374 7.66367 719.365Z" fill="#1685B0"/>
<path d="M16.519 713.1C16.5101 713.098 16.501 713.096 16.4921 713.094C16.501 713.096 16.5101 713.098 16.519 713.1Z" fill="#1685B0"/>
<path d="M7.71637 719.117C7.71199 719.131 7.70983 719.146 7.70607 719.161C7.70983 719.146 7.71199 719.131 7.71637 719.117Z" fill="#1685B0"/>
<path d="M24.7329 718.771C24.7507 718.703 24.7659 718.634 24.7757 718.565C24.7659 718.634 24.7511 718.703 24.7329 718.771Z" fill="#1685B0"/>
<path d="M24.7769 718.537C24.786 718.461 24.791 718.384 24.7902 718.308C24.7906 718.385 24.7863 718.461 24.7769 718.537Z" fill="#1685B0"/>
<path d="M10.9944 713.554C10.8443 713.589 10.7008 713.643 10.5674 713.714C10.701 713.643 10.8445 713.589 10.9944 713.554Z" fill="#1685B0"/>
<path d="M16.7456 713.166C16.7456 713.166 16.7411 713.164 16.739 713.163C16.7411 713.164 16.7435 713.165 16.7456 713.166Z" fill="#1685B0"/>
<path d="M9.62503 728.813L11.3474 725.053C11.4203 725.092 11.496 725.126 11.5739 725.154C11.576 725.155 11.5781 725.155 11.5802 725.157C11.6523 725.183 11.7268 725.203 11.8018 725.22C11.8108 725.221 11.8193 725.224 11.8286 725.226C11.8968 725.239 11.9665 725.248 12.0368 725.253C12.0517 725.254 12.0662 725.257 12.081 725.258C12.1639 725.262 12.2471 725.261 12.3311 725.253L17.0966 724.802C17.4076 724.773 17.6993 724.662 17.9456 724.487L20.3413 727.858C20.095 728.033 19.8033 728.144 19.4922 728.174L10.6086 729.014C10.5246 729.021 10.4414 729.023 10.3585 729.018C10.3437 729.017 10.3292 729.014 10.3143 729.014C10.2444 729.008 10.1746 729 10.1061 728.986C10.0971 728.985 10.088 728.982 10.0791 728.98C10.004 728.963 9.92992 728.943 9.85803 728.917C9.85565 728.916 9.85353 728.915 9.85116 728.914C9.84004 728.91 9.82987 728.904 9.81912 728.9C9.75291 728.874 9.68775 728.846 9.62503 728.813Z" fill="#1685B0"/>
<path d="M20.9203 727.16C20.7902 727.444 20.5892 727.683 20.3429 727.858L17.9472 724.487C18.1936 724.312 18.3945 724.073 18.5246 723.789L20.5179 719.438C20.5529 719.361 20.5815 719.283 20.6046 719.203C20.6086 719.189 20.611 719.175 20.6148 719.16C20.6326 719.092 20.6481 719.023 20.6575 718.954C20.6588 718.945 20.6593 718.936 20.6606 718.927C20.6697 718.851 20.675 718.774 20.674 718.697C20.674 718.695 20.6741 718.693 20.6735 718.69C20.6722 718.608 20.6654 718.525 20.6531 718.444L24.7712 718.055C24.7838 718.136 24.7906 718.219 24.7919 718.301C24.7921 718.304 24.7921 718.306 24.7923 718.309C24.7931 718.385 24.7881 718.462 24.779 718.538C24.7778 718.547 24.7774 718.557 24.7762 718.566C24.7668 718.635 24.7517 718.703 24.7334 718.771C24.7294 718.786 24.7272 718.8 24.7232 718.815C24.7002 718.894 24.6716 718.972 24.6366 719.049L20.9203 727.16Z" fill="#1685B0"/>
<path d="M10.3753 713.833C10.3137 713.877 10.2552 713.924 10.1996 713.976C10.033 714.13 9.89558 714.318 9.79793 714.531L7.80465 718.882C7.76964 718.959 7.74109 719.037 7.71802 719.117C7.714 719.131 7.71148 719.146 7.70772 719.161C7.68985 719.229 7.67447 719.297 7.66529 719.366C7.66408 719.375 7.66374 719.385 7.66253 719.394C7.65344 719.47 7.64843 719.547 7.64885 719.623C7.6488 719.626 7.649 719.628 7.64894 719.63C7.65028 719.713 7.65705 719.795 7.66936 719.877L3.55156 720.267C3.53951 720.185 3.53176 720.103 3.53078 720.02C3.53058 720.017 3.53064 720.015 3.53044 720.013C3.53064 720.015 3.53058 720.017 3.53078 720.02C3.53212 720.103 3.53863 720.185 3.55131 720.266C3.53863 720.185 3.53186 720.102 3.53078 720.02C3.53058 720.017 3.53064 720.015 3.53044 720.013C3.52965 719.936 3.53466 719.859 3.54375 719.783C3.54496 719.774 3.5453 719.765 3.54651 719.756C3.55594 719.687 3.57133 719.618 3.58894 719.55C3.5927 719.535 3.59486 719.521 3.59924 719.506C3.62257 719.427 3.65086 719.348 3.68587 719.272L7.4019 711.16C7.49955 710.947 7.63697 710.759 7.80353 710.605C7.85917 710.554 7.91764 710.506 7.97932 710.462L10.375 713.833L10.3753 713.833Z" fill="#1685B0"/>
<path d="M18.4692 709.405C18.5468 709.434 18.6222 709.467 18.6951 709.506L16.9726 713.266C16.8997 713.227 16.824 713.194 16.7461 713.166C16.744 713.165 16.7416 713.164 16.7395 713.163C16.6676 713.137 16.5935 713.117 16.5181 713.101C16.5091 713.099 16.5001 713.096 16.4911 713.094C16.4229 713.08 16.3534 713.072 16.2832 713.067C16.2681 713.065 16.2536 713.063 16.2384 713.062C16.1558 713.058 16.0723 713.059 15.9883 713.067L15.0834 713.152L14.4101 710.124L12.0123 713.443L11.2228 713.517C11.145 713.524 11.0682 713.537 10.9935 713.554C10.8434 713.589 10.6999 713.642 10.5666 713.714C10.4996 713.749 10.4354 713.789 10.3738 713.833L7.9781 710.462C8.16276 710.33 8.37294 710.235 8.59785 710.183C8.67291 710.166 8.74935 710.153 8.82717 710.146L17.7118 709.306C17.7958 709.298 17.879 709.297 17.9618 709.301C17.9767 709.302 17.9916 709.305 18.0067 709.306C18.0766 709.311 18.1461 709.319 18.2146 709.333C18.2235 709.335 18.2326 709.338 18.2416 709.34C18.3166 709.356 18.3905 709.377 18.4626 709.403C18.465 709.404 18.4671 709.404 18.4695 709.406L18.4692 709.405Z" fill="#1685B0"/>
<path d="M7.669 719.877C7.67933 719.942 7.69262 720.007 7.70958 720.07C7.71055 720.074 7.71189 720.077 7.71286 720.081C7.72931 720.14 7.74846 720.199 7.77092 720.257C7.77827 720.275 7.78759 720.294 7.79592 720.313C7.81474 720.356 7.83357 720.399 7.85581 720.441C7.88927 720.504 7.9259 720.565 7.96765 720.623L10.7404 724.525C10.7824 724.584 10.828 724.639 10.8762 724.692C10.9078 724.726 10.942 724.757 10.9763 724.789C10.992 724.803 11.0069 724.819 11.0228 724.833C11.0694 724.872 11.1177 724.909 11.168 724.944C11.1716 724.947 11.1751 724.949 11.1791 724.952C11.2335 724.988 11.2896 725.023 11.3473 725.053L11.3478 725.054L9.62544 728.814C9.62544 728.814 9.62307 728.813 9.62219 728.813C9.61516 728.809 9.60813 728.805 9.60111 728.801C9.53596 728.766 9.47389 728.725 9.41357 728.682C9.40133 728.673 9.38873 728.665 9.3766 728.655C9.32264 728.614 9.27191 728.569 9.22294 728.52C9.20921 728.507 9.19491 728.496 9.18165 728.481C9.12304 728.421 9.06764 728.356 9.0179 728.286L3.84975 721.013C3.79975 720.943 3.75669 720.869 3.71814 720.793C3.70949 720.777 3.70317 720.759 3.6955 720.742C3.66649 720.68 3.6399 720.617 3.6186 720.552C3.61398 720.538 3.61024 720.524 3.60598 720.51C3.58433 720.438 3.56636 720.365 3.55429 720.291C3.55322 720.284 3.5519 720.277 3.55083 720.27C3.55078 720.268 3.55073 720.267 3.55032 720.265L7.66812 719.876L7.669 719.877Z" fill="#1685B0"/>
<path d="M3.55088 720.266C3.53821 720.184 3.53144 720.102 3.53035 720.02C3.53107 720.102 3.53883 720.184 3.55114 720.266L3.55088 720.266Z" fill="#1685B0"/>
<path d="M9.62583 728.813C9.68855 728.846 9.75335 728.874 9.81991 728.899C9.83041 728.903 9.84058 728.909 9.85107 728.913C9.77381 728.885 9.69872 728.852 9.62608 728.813L9.62583 728.813Z" fill="#1685B0"/>
<path d="M3.53033 720.012C3.53033 720.012 3.53047 720.017 3.53067 720.019L3.53033 720.012Z" fill="#1685B0"/>
</g>
<path fill-rule="evenodd" clip-rule="evenodd" d="M380.508 603.28C383.515 600.42 387.741 599.334 391.64 600.395C391.973 604.417 390.109 608.37 386.735 610.715L381.741 614.253L380.591 614.799L375.491 608.634L376.27 607.615L380.508 603.28ZM374.383 605.603L378.616 601.323C378.616 601.323 378.759 601.266 378.761 601.239C377.09 601.449 374.96 602.184 372.175 604.099L374.383 605.603ZM382.29 598.701C385.602 597.052 389.621 596.76 393.227 598.015C393.762 598.2 394.135 598.646 394.223 599.205C394.851 603.006 393.825 606.826 391.632 609.826C391.712 610.481 391.639 611.314 391.414 612.299C391.072 614.61 389.705 617.615 386.389 620.861C385.034 622.173 382.878 621.638 382.056 620.037L381.132 618.028C380.426 618.227 379.754 618.043 379.385 617.543L379.508 617.705L378.466 618.591C377.278 619.573 375.502 619.416 374.505 618.24L371.022 614.022C370.024 612.86 370.177 611.124 371.365 610.142L372.407 609.256L372.53 609.432C372.163 608.904 372.089 608.181 372.416 607.604L370.602 606.315C369.179 605.28 368.961 603.072 370.575 601.948C374.262 599.175 377.497 598.401 379.838 598.401C380.803 598.39 381.616 598.531 382.29 598.701ZM374.149 611.365L373.106 612.251L376.725 616.481L377.767 615.596L374.149 611.365ZM383.471 616.486L384.506 618.794C386.912 616.5 388.056 614.467 388.47 612.893C388.468 612.92 388.465 612.947 388.325 612.976L383.471 616.486Z" fill="#1685B0"/>
<ellipse cx="388.094" cy="603.334" rx="2.46923" ry="2.4686" transform="rotate(5.05143 388.094 603.334)" fill="#1685B0"/>
<path fill-rule="evenodd" clip-rule="evenodd" d="M374.142 619.776C374.413 619.233 374.24 618.592 373.647 618.297C373.054 618.001 372.438 618.248 372.167 618.791C371.349 620.43 369.405 621.112 367.726 620.275C367.134 619.979 366.517 620.226 366.246 620.769C365.975 621.312 366.148 621.953 366.741 622.249C369.506 623.628 372.782 622.501 374.142 619.776Z" fill="#1685B0"/>
<path fill-rule="evenodd" clip-rule="evenodd" d="M366.211 621.228C366.381 621.796 366.934 622.137 367.554 621.951C368.174 621.765 368.448 621.176 368.278 620.608C367.763 618.893 368.691 617.105 370.448 616.578C371.068 616.392 371.341 615.803 371.171 615.235C371 614.667 370.447 614.326 369.827 614.512C366.934 615.38 365.355 618.376 366.211 621.228Z" fill="#1685B0"/>
<path d="M383.049 607.051C383.586 607.693 383.502 608.652 382.86 609.19L380.129 611.521C379.487 612.059 378.455 611.968 377.918 611.325C377.381 610.668 377.466 609.71 378.108 609.172L380.838 606.856C381.48 606.318 382.511 606.409 383.049 607.051Z" fill="#1685B0"/>
<path fill-rule="evenodd" clip-rule="evenodd" d="M13.4679 130.98C13.2401 131.588 12.616 131.897 11.9668 131.887L11.8739 131.933C10.9731 131.883 10.1652 131.786 9.39516 132.167C8.74387 132.655 7.63977 133.697 7.04656 136.139C6.27728 139.494 4.39963 141.745 2.82943 143.348C2.01813 144.08 1.26061 144.62 0.663132 144.915C0.423447 145.199 0.184456 145.317 0.0118503 145.403L-0.266974 145.541L-0.293529 145.554C-5.43188 148.095 -11.6242 146.034 -14.1863 140.855C-16.7484 135.675 -14.6291 129.503 -9.49072 126.962C-6.92818 125.695 -4.5005 124.99 -2.57805 124.701C-1.68916 124.426 -0.761812 124.463 -0.0727734 124.453C0.350718 124.574 0.68196 124.576 1.03906 124.73C1.39617 124.884 1.77983 125.025 2.14882 125.503C2.35988 125.729 2.47729 126.167 2.46193 126.671C2.38088 127.041 2.11465 127.338 1.80857 127.655C1.46336 127.826 1.0378 128.201 0.651366 128.723C1.54095 128.283 2.47037 127.824 3.54445 127.623C6.35718 126.728 9.82823 126.829 12.9584 129.248C13.4734 129.655 13.6824 130.378 13.4679 130.98ZM-1.60741 142.898C-5.27197 144.71 -9.69138 143.26 -11.5308 139.541C-13.3703 135.823 -11.8414 131.431 -8.17683 129.618C-5.9064 128.495 -3.84979 127.809 -2.28514 127.531C-2.40532 127.756 -2.52551 127.98 -2.6457 128.205C-3.35287 129.381 -4.07609 131.226 -3.28776 132.82C-3.02498 133.351 -2.62873 133.651 -2.23111 133.62C-1.76778 133.721 -1.26394 133.637 -0.931308 133.307C0.0532968 132.325 2.01974 131.022 4.28809 130.396C5.24337 130.088 6.29021 130.067 7.27066 130.078C5.92825 131.072 4.84794 132.763 4.17437 135.41C3.55391 138.031 2.1151 139.9 0.824425 141.199C0.106753 141.72 -0.49142 142.181 -0.903712 142.55L-1.60741 142.898Z" fill="#1685B0"/>
<g clip-path="url(#clip4_5897_75005)">
<path d="M197.659 190.571C197.735 190.541 197.808 190.505 197.88 190.466C197.808 190.506 197.735 190.541 197.659 190.571Z" fill="#1685B0"/>
<path d="M197.926 190.443C198.009 190.395 198.09 190.341 198.167 190.281C198.09 190.341 198.009 190.395 197.926 190.443Z" fill="#1685B0"/>
<path d="M205.567 171.698C205.553 171.601 205.532 171.506 205.504 171.414C205.531 171.506 205.553 171.601 205.567 171.698Z" fill="#1685B0"/>
<path d="M195.365 171.02C195.287 170.989 195.207 170.964 195.127 170.943C195.207 170.964 195.286 170.989 195.365 171.02Z" fill="#1685B0"/>
<path d="M194.154 170.932C194.154 170.932 194.149 170.933 194.146 170.933C194.148 170.932 194.151 170.932 194.154 170.932Z" fill="#1685B0"/>
<path d="M189.097 182.442C189.102 182.458 189.109 182.474 189.114 182.49C189.109 182.474 189.102 182.458 189.097 182.442Z" fill="#1685B0"/>
<path d="M193.639 171.127C193.624 171.136 193.608 171.142 193.593 171.151C193.608 171.142 193.624 171.136 193.639 171.127Z" fill="#1685B0"/>
<path d="M193.889 171.012C193.879 171.016 193.869 171.019 193.859 171.023C193.869 171.019 193.879 171.016 193.889 171.012Z" fill="#1685B0"/>
<path d="M194.683 170.881C194.678 170.88 194.673 170.88 194.667 170.88C194.673 170.88 194.678 170.881 194.683 170.881Z" fill="#1685B0"/>
<path d="M201.136 173.457C201.133 173.454 201.129 173.452 201.126 173.449C201.129 173.452 201.133 173.454 201.136 173.457Z" fill="#1685B0"/>
<path d="M194.969 170.911C194.945 170.907 194.92 170.901 194.896 170.898C194.92 170.901 194.945 170.907 194.969 170.911Z" fill="#1685B0"/>
<path d="M200.956 173.314C200.937 173.3 200.916 173.288 200.897 173.275C200.916 173.289 200.937 173.3 200.956 173.314Z" fill="#1685B0"/>
<path d="M200.758 173.187C200.685 173.147 200.611 173.111 200.533 173.08C200.611 173.111 200.685 173.147 200.758 173.187Z" fill="#1685B0"/>
<path d="M197.629 190.582C197.545 190.613 197.46 190.64 197.373 190.66C197.46 190.64 197.545 190.613 197.629 190.582Z" fill="#1685B0"/>
<path d="M193.746 166.129L193.75 166.128C193.75 166.128 193.748 166.129 193.746 166.129Z" fill="#1685B0"/>
<path d="M205.487 171.365C205.462 171.288 205.434 171.212 205.399 171.138C205.433 171.212 205.462 171.287 205.487 171.365Z" fill="#1685B0"/>
<path d="M205.071 170.642L201.298 173.621L205.071 170.642Z" fill="#1685B0"/>
<path d="M193.46 166.174C193.474 166.171 193.487 166.171 193.5 166.168C193.487 166.171 193.473 166.171 193.46 166.174L193.46 166.174Z" fill="#1685B0"/>
<path d="M202.553 180.979C202.531 181.065 202.504 181.148 202.472 181.23C202.439 181.312 202.402 181.391 202.359 181.468C202.444 181.314 202.51 181.15 202.553 180.979Z" fill="#1685B0"/>
<path d="M189.201 182.718C189.206 182.727 189.211 182.737 189.216 182.746C189.211 182.737 189.206 182.728 189.201 182.718Z" fill="#1685B0"/>
<path d="M184.517 172.98C184.231 173.206 184.017 173.498 183.887 173.825C183.757 174.151 183.712 174.511 183.764 174.87L185.257 185.137C185.271 185.234 185.293 185.328 185.32 185.42C185.293 185.328 185.271 185.234 185.257 185.137L183.764 174.87C183.659 174.151 183.946 173.43 184.517 172.98L192.658 166.553C192.735 166.493 192.816 166.439 192.899 166.391C192.816 166.439 192.735 166.493 192.658 166.553L184.517 172.98Z" fill="#1685B0"/>
<path d="M189.348 182.979C189.348 182.979 189.351 182.983 189.353 182.985C189.352 182.983 189.35 182.981 189.348 182.979Z" fill="#1685B0"/>
<path d="M189.528 183.214C189.735 183.446 189.993 183.636 190.292 183.755L195.46 185.814C195.76 185.934 196.077 185.974 196.387 185.947L197.08 190.706C197.176 190.698 197.27 190.683 197.364 190.662C196.966 190.754 196.545 190.73 196.153 190.574L186.518 186.734C186.126 186.578 185.803 186.305 185.578 185.965C185.631 186.045 185.69 186.121 185.754 186.193L189.528 183.214L189.528 183.214Z" fill="#1685B0"/>
<path d="M205.072 170.641C205.072 170.641 205.07 170.638 205.069 170.637C205.134 170.71 205.194 170.787 205.248 170.869C205.195 170.789 205.136 170.713 205.072 170.641Z" fill="#1685B0"/>
<path d="M194.036 166.124C193.95 166.119 193.863 166.119 193.777 166.125C193.863 166.119 193.949 166.119 194.036 166.124Z" fill="#1685B0"/>
<path d="M201.477 173.856C201.477 173.856 201.474 173.851 201.472 173.849C201.474 173.851 201.476 173.853 201.477 173.856Z" fill="#1685B0"/>
<path d="M194.323 166.161C194.245 166.146 194.167 166.133 194.088 166.126C194.167 166.133 194.245 166.145 194.323 166.161Z" fill="#1685B0"/>
<path d="M193.168 166.264C193.092 166.293 193.019 166.329 192.947 166.368C193.019 166.329 193.092 166.294 193.168 166.264Z" fill="#1685B0"/>
<path d="M193.453 166.175C193.367 166.195 193.282 166.222 193.198 166.253C193.282 166.221 193.367 166.195 193.453 166.175Z" fill="#1685B0"/>
<path d="M193.745 166.129C193.65 166.137 193.555 166.152 193.462 166.173C193.555 166.152 193.65 166.137 193.745 166.129Z" fill="#1685B0"/>
<path d="M205.052 170.619C204.993 170.554 204.93 170.495 204.863 170.438C204.93 170.494 204.993 170.555 205.052 170.619Z" fill="#1685B0"/>
<path d="M205.385 171.109C205.345 171.029 205.302 170.951 205.253 170.877C205.302 170.951 205.345 171.028 205.385 171.109Z" fill="#1685B0"/>
<path d="M204.307 170.1C204.4 170.137 204.489 170.182 204.574 170.232C204.489 170.182 204.4 170.137 204.307 170.1Z" fill="#1685B0"/>
<path d="M204.825 170.404C204.763 170.355 204.698 170.309 204.63 170.267C204.698 170.309 204.763 170.355 204.825 170.404Z" fill="#1685B0"/>
<path d="M194.671 166.261C194.578 166.224 194.483 166.195 194.388 166.173C194.483 166.196 194.578 166.224 194.671 166.261Z" fill="#1685B0"/>
<path d="M197.187 185.707C197.202 185.699 197.218 185.693 197.234 185.684C197.218 185.692 197.202 185.699 197.187 185.707Z" fill="#1685B0"/>
<path d="M201.624 174.117C201.62 174.108 201.614 174.098 201.61 174.089C201.614 174.098 201.62 174.108 201.624 174.117Z" fill="#1685B0"/>
<path d="M196.936 185.823C196.946 185.819 196.956 185.816 196.966 185.812C196.956 185.816 196.946 185.819 196.936 185.823Z" fill="#1685B0"/>
<path d="M201.729 174.393C201.724 174.376 201.717 174.361 201.712 174.344C201.717 174.361 201.724 174.376 201.729 174.393Z" fill="#1685B0"/>
<path d="M185.338 185.469C185.363 185.547 185.392 185.623 185.426 185.697C185.392 185.623 185.363 185.547 185.338 185.469Z" fill="#1685B0"/>
<path d="M185.442 185.725C185.481 185.806 185.525 185.884 185.574 185.958C185.525 185.883 185.481 185.806 185.442 185.725Z" fill="#1685B0"/>
<path d="M202.041 181.893C202.166 181.764 202.272 181.621 202.357 181.467C202.272 181.621 202.165 181.764 202.041 181.893Z" fill="#1685B0"/>
<path d="M196.672 185.903C196.672 185.903 196.677 185.902 196.68 185.901C196.677 185.902 196.674 185.902 196.672 185.903Z" fill="#1685B0"/>
<path d="M193.746 166.129L194.438 170.888C194.343 170.896 194.248 170.911 194.154 170.933C194.151 170.933 194.149 170.934 194.146 170.934C194.059 170.954 193.974 170.981 193.89 171.012C193.88 171.016 193.87 171.019 193.86 171.023C193.785 171.053 193.711 171.089 193.639 171.128C193.624 171.136 193.608 171.143 193.593 171.151C193.51 171.199 193.429 171.253 193.352 171.314L188.985 174.761C188.7 174.986 188.485 175.279 188.355 175.605L183.889 173.825C184.019 173.499 184.233 173.206 184.518 172.981L192.66 166.554C192.737 166.494 192.817 166.44 192.901 166.392C192.916 166.384 192.932 166.377 192.947 166.369C193.019 166.33 193.092 166.294 193.167 166.264C193.177 166.26 193.188 166.257 193.198 166.253C193.282 166.222 193.367 166.195 193.453 166.175C193.456 166.175 193.459 166.174 193.462 166.173C193.475 166.17 193.489 166.17 193.502 166.167C193.583 166.15 193.664 166.137 193.746 166.129Z" fill="#1685B0"/>
<path d="M183.765 174.871C183.713 174.512 183.759 174.152 183.889 173.825L188.355 175.605C188.225 175.931 188.18 176.291 188.232 176.651L189.033 182.158C189.047 182.255 189.069 182.349 189.097 182.442C189.102 182.458 189.108 182.474 189.114 182.49C189.139 182.568 189.168 182.645 189.202 182.718C189.207 182.728 189.212 182.737 189.216 182.747C189.256 182.827 189.299 182.905 189.348 182.98C189.35 182.982 189.351 182.984 189.353 182.986C189.406 183.066 189.465 183.142 189.529 183.214L185.755 186.193C185.691 186.121 185.632 186.045 185.579 185.965C185.577 185.963 185.575 185.961 185.574 185.958C185.525 185.884 185.481 185.806 185.442 185.726C185.437 185.716 185.432 185.707 185.427 185.697C185.393 185.624 185.364 185.547 185.339 185.469C185.334 185.453 185.327 185.437 185.322 185.421C185.294 185.328 185.272 185.234 185.258 185.137L183.765 174.871Z" fill="#1685B0"/>
<path d="M202.471 181.23C202.504 181.149 202.531 181.065 202.553 180.98C202.618 180.724 202.634 180.454 202.595 180.184L201.793 174.677C201.779 174.58 201.758 174.486 201.73 174.394C201.725 174.377 201.718 174.361 201.712 174.344C201.687 174.267 201.659 174.19 201.624 174.117C201.62 174.107 201.614 174.098 201.609 174.088C201.57 174.008 201.527 173.93 201.478 173.855C201.476 173.853 201.475 173.851 201.473 173.849C201.42 173.769 201.361 173.692 201.297 173.62L205.071 170.641C205.134 170.713 205.194 170.789 205.247 170.869C205.249 170.872 205.25 170.874 205.252 170.876C205.25 170.874 205.249 170.872 205.247 170.869C205.194 170.789 205.136 170.713 205.072 170.642C205.136 170.713 205.194 170.79 205.247 170.869C205.249 170.872 205.25 170.874 205.252 170.876C205.301 170.95 205.345 171.028 205.384 171.109C205.389 171.118 205.394 171.128 205.399 171.137C205.433 171.21 205.461 171.287 205.487 171.365C205.493 171.381 205.5 171.397 205.505 171.414C205.532 171.506 205.554 171.601 205.568 171.698L207.061 181.964C207.1 182.233 207.085 182.503 207.02 182.759C206.998 182.845 206.971 182.928 206.938 183.01L202.472 181.23L202.471 181.23Z" fill="#1685B0"/>
<path d="M197.365 190.662C197.271 190.683 197.176 190.698 197.081 190.706L196.388 185.947C196.484 185.939 196.579 185.924 196.673 185.902C196.675 185.901 196.678 185.901 196.681 185.9C196.767 185.88 196.852 185.853 196.936 185.822C196.946 185.818 196.957 185.815 196.967 185.811C197.042 185.781 197.115 185.745 197.187 185.707C197.203 185.698 197.219 185.692 197.234 185.683C197.317 185.635 197.398 185.581 197.475 185.521L198.304 184.866L200.873 187.397L201.119 182.644L201.842 182.073C201.914 182.017 201.981 181.956 202.043 181.892C202.168 181.764 202.274 181.621 202.359 181.467C202.402 181.39 202.44 181.311 202.472 181.229L206.939 183.009C206.841 183.254 206.696 183.479 206.51 183.672C206.447 183.736 206.38 183.797 206.309 183.853L198.167 190.281C198.09 190.341 198.009 190.395 197.925 190.443C197.91 190.451 197.894 190.458 197.879 190.467C197.807 190.505 197.734 190.542 197.658 190.571C197.649 190.575 197.638 190.578 197.628 190.582C197.544 190.613 197.459 190.64 197.373 190.66C197.37 190.66 197.367 190.661 197.364 190.661L197.365 190.662Z" fill="#1685B0"/>
<path d="M201.296 173.621C201.245 173.564 201.191 173.509 201.134 173.457C201.131 173.454 201.127 173.452 201.124 173.449C201.071 173.401 201.015 173.356 200.957 173.314C200.938 173.3 200.917 173.288 200.897 173.275C200.851 173.245 200.806 173.214 200.757 173.187C200.685 173.147 200.611 173.111 200.533 173.08L195.364 171.02C195.285 170.989 195.206 170.964 195.126 170.943C195.074 170.93 195.02 170.921 194.967 170.912C194.943 170.907 194.918 170.902 194.894 170.898C194.824 170.889 194.753 170.883 194.682 170.881C194.677 170.881 194.672 170.88 194.666 170.88C194.59 170.879 194.513 170.881 194.438 170.887L194.437 170.887L193.745 166.128C193.745 166.128 193.748 166.128 193.749 166.128C193.758 166.127 193.767 166.126 193.776 166.125C193.862 166.119 193.949 166.119 194.035 166.124C194.052 166.125 194.07 166.125 194.088 166.126C194.167 166.133 194.245 166.145 194.323 166.161C194.345 166.165 194.366 166.168 194.388 166.173C194.483 166.196 194.578 166.224 194.671 166.261L204.307 170.1C204.4 170.138 204.489 170.182 204.574 170.232C204.593 170.243 204.61 170.256 204.628 170.268C204.696 170.31 204.762 170.355 204.824 170.405C204.837 170.416 204.849 170.427 204.863 170.438C204.929 170.495 204.993 170.555 205.051 170.619C205.057 170.625 205.062 170.632 205.068 170.638C205.069 170.639 205.07 170.641 205.071 170.642L201.297 173.621L201.296 173.621Z" fill="#1685B0"/>
<path d="M205.07 170.641C205.134 170.713 205.193 170.789 205.246 170.868C205.193 170.788 205.133 170.713 205.07 170.641L205.07 170.641Z" fill="#1685B0"/>
<path d="M193.745 166.129C193.663 166.136 193.582 166.15 193.501 166.167C193.489 166.17 193.475 166.17 193.462 166.173C193.555 166.152 193.65 166.137 193.745 166.129L193.745 166.129Z" fill="#1685B0"/>
<path d="M205.251 170.877C205.251 170.877 205.248 170.872 205.246 170.87L205.251 170.877Z" fill="#1685B0"/>
</g>
<path fill-rule="evenodd" clip-rule="evenodd" d="M11.3689 390.765C9.32189 387.156 9.29148 382.792 11.2646 379.266C15.2482 379.917 18.6317 382.682 20.0906 386.524L22.3143 392.226L22.5653 393.473L15.3486 396.929L14.5484 395.927L11.3689 390.765ZM12.1393 397.271L9.01166 392.127C9.01166 392.127 8.99163 391.975 8.96571 391.966C8.76526 393.638 8.96196 395.883 10.1463 399.049L12.1393 397.271ZM7.35715 387.928C6.55944 384.315 7.24912 380.345 9.34009 377.15C9.64891 376.676 10.1722 376.422 10.7356 376.471C14.5754 376.782 18.0332 378.703 20.4138 381.557C21.0679 381.638 21.8587 381.911 22.7603 382.368C24.9194 383.259 27.504 385.313 29.8503 389.316C30.7954 390.948 29.7546 392.91 28.0021 393.321L25.8287 393.73C25.8511 394.464 25.5105 395.071 24.9353 395.308L25.1227 395.228L25.7296 396.453C26.3954 397.844 25.8131 399.529 24.4306 400.212L19.4946 402.57C18.125 403.257 16.4786 402.688 15.8128 401.297L15.2059 400.072L15.4062 399.996C14.8051 400.224 14.0862 400.12 13.6054 399.664L11.9152 401.111C10.5669 402.242 8.37118 401.918 7.6712 400.08C5.87409 395.831 5.90609 392.505 6.4731 390.234C6.6959 389.296 7.02948 388.54 7.35715 387.928ZM17.6739 398.893L18.2808 400.119L23.2616 397.632L22.6547 396.406L17.6739 398.893ZM24.899 391.087L27.3893 390.642C25.7466 387.753 24.0507 386.151 22.6234 385.368C22.6494 385.377 22.6753 385.386 22.6694 385.529L24.899 391.087Z" fill="#1685B0"/>
<ellipse cx="13.2579" cy="383.418" rx="2.46923" ry="2.4686" transform="rotate(-70.9372 13.2579 383.418)" fill="#1685B0"/>
<path fill-rule="evenodd" clip-rule="evenodd" d="M25.8331 400.936C25.372 400.542 24.7078 400.555 24.2776 401.058C23.8473 401.561 23.9378 402.22 24.399 402.614C25.7908 403.804 25.9822 405.856 24.7632 407.282C24.3329 407.785 24.4234 408.443 24.8846 408.838C25.3457 409.232 26.0099 409.219 26.4401 408.716C28.448 406.367 28.1473 402.915 25.8331 400.936Z" fill="#1685B0"/>
<path fill-rule="evenodd" clip-rule="evenodd" d="M25.3212 408.983C25.9138 408.955 26.3784 408.501 26.3481 407.854C26.3177 407.208 25.8126 406.799 25.22 406.827C23.4314 406.912 21.9217 405.579 21.8357 403.746C21.8053 403.1 21.3002 402.691 20.7076 402.719C20.115 402.747 19.6504 403.201 19.6807 403.848C19.8225 406.866 22.3474 409.123 25.3212 408.983Z" fill="#1685B0"/>
<path d="M15.6431 389.213C16.3963 388.847 17.3062 389.162 17.6728 389.915L19.2728 393.129C19.6394 393.882 19.3011 394.861 18.5479 395.227C17.7807 395.588 16.8708 395.273 16.5042 394.521L14.9182 391.311C14.5516 390.558 14.8899 389.579 15.6431 389.213Z" fill="#1685B0"/>
<defs>
<clipPath id="clip0_5897_75005">
<rect width="18.9557" height="21.342" fill="white" transform="matrix(0.97151 0.236997 0.237111 -0.971482 192.43 574.923)"/>
</clipPath>
<clipPath id="clip1_5897_75005">
<rect width="33.7363" height="37.9836" fill="white" transform="matrix(-0.879971 0.475028 -0.474916 -0.880031 364.077 693.919)"/>
</clipPath>
<clipPath id="clip2_5897_75005">
<rect width="22.0368" height="24.8121" fill="white" transform="matrix(-0.370008 0.929028 -0.928964 -0.370171 117.021 505.778)"/>
</clipPath>
<clipPath id="clip3_5897_75005">
<rect width="18.9557" height="21.342" fill="white" transform="matrix(-0.8152 0.579179 -0.579275 -0.815132 28.0681 722.369)"/>
</clipPath>
<clipPath id="clip4_5897_75005">
<rect width="22.0368" height="24.8121" fill="white" transform="matrix(0.370008 -0.929028 0.928964 0.370171 179.811 184.062)"/>
</clipPath>
</defs>
</svg>
