<svg width="390" height="475" viewBox="0 0 390 475" fill="none" xmlns="http://www.w3.org/2000/svg">
<g clip-path="url(#clip0_5859_12534)">
<path d="M210.153 2.62988C210.194 2.646 210.234 2.66567 210.273 2.6867C210.234 2.6653 210.194 2.64626 210.153 2.62988Z" fill="#C19EDD"/>
<path d="M210.3 2.69983C210.345 2.72604 210.389 2.75519 210.431 2.7882C210.389 2.75519 210.345 2.72604 210.3 2.69983Z" fill="#C19EDD"/>
<path d="M214.46 12.904C214.452 12.9568 214.441 13.0081 214.426 13.0584C214.44 13.0082 214.452 12.9568 214.46 12.904Z" fill="#C19EDD"/>
<path d="M208.904 13.2736C208.862 13.2904 208.818 13.3041 208.775 13.3154C208.818 13.3041 208.861 13.2906 208.904 13.2736Z" fill="#C19EDD"/>
<path d="M208.246 13.3218C208.246 13.3218 208.243 13.321 208.242 13.321C208.243 13.3214 208.245 13.3218 208.246 13.3218Z" fill="#C19EDD"/>
<path d="M205.493 7.05551C205.496 7.04652 205.5 7.038 205.502 7.02901C205.5 7.038 205.496 7.04652 205.493 7.05551Z" fill="#C19EDD"/>
<path d="M207.965 13.215C207.957 13.2104 207.948 13.2069 207.94 13.2023C207.948 13.2069 207.957 13.2105 207.965 13.215Z" fill="#C19EDD"/>
<path d="M208.103 13.2771C208.098 13.275 208.092 13.2735 208.087 13.2711C208.092 13.2732 208.098 13.275 208.103 13.2771Z" fill="#C19EDD"/>
<path d="M208.535 13.3494C208.532 13.3497 208.529 13.3499 208.526 13.3499C208.529 13.35 208.532 13.3494 208.535 13.3494Z" fill="#C19EDD"/>
<path d="M212.046 11.9467C212.044 11.9483 212.042 11.9497 212.041 11.9513C212.042 11.9497 212.044 11.9483 212.046 11.9467Z" fill="#C19EDD"/>
<path d="M208.688 13.3325C208.675 13.3348 208.661 13.3379 208.648 13.3398C208.661 13.3382 208.675 13.3348 208.688 13.3325Z" fill="#C19EDD"/>
<path d="M211.949 12.0251C211.938 12.0326 211.927 12.0392 211.916 12.0463C211.927 12.0389 211.938 12.0327 211.949 12.0251Z" fill="#C19EDD"/>
<path d="M211.841 12.0935C211.802 12.1149 211.762 12.1349 211.719 12.1518C211.762 12.1349 211.802 12.1152 211.841 12.0935Z" fill="#C19EDD"/>
<path d="M210.137 2.62356C210.091 2.60619 210.045 2.592 209.998 2.58105C210.045 2.592 210.091 2.60655 210.137 2.62356Z" fill="#C19EDD"/>
<path d="M208.022 15.9369L208.024 15.9372C208.024 15.9372 208.023 15.9368 208.022 15.9369Z" fill="#C19EDD"/>
<path d="M214.415 13.0856C214.401 13.1277 214.385 13.1693 214.367 13.2093C214.385 13.1692 214.401 13.128 214.415 13.0856Z" fill="#C19EDD"/>
<path d="M214.19 13.4788L212.135 11.8571L214.19 13.4788Z" fill="#C19EDD"/>
<path d="M207.869 15.9116C207.877 15.9132 207.884 15.9134 207.891 15.9148C207.884 15.9134 207.876 15.913 207.869 15.9114L207.869 15.9116Z" fill="#C19EDD"/>
<path d="M212.818 7.85118C212.806 7.80467 212.792 7.7593 212.774 7.71481C212.756 7.67033 212.736 7.62726 212.712 7.58533C212.759 7.66892 212.795 7.75841 212.818 7.85118Z" fill="#C19EDD"/>
<path d="M205.549 6.90575C205.552 6.90052 205.555 6.89545 205.557 6.89022C205.555 6.89545 205.552 6.90026 205.549 6.90575Z" fill="#C19EDD"/>
<path d="M202.999 12.206C202.844 12.0832 202.727 11.9239 202.656 11.7462C202.585 11.5685 202.561 11.3725 202.589 11.1768L203.402 5.58796C203.41 5.53514 203.421 5.48379 203.436 5.4335C203.422 5.48369 203.41 5.53514 203.402 5.58796L202.589 11.1768C202.532 11.5686 202.688 11.9608 202.999 12.206L207.431 15.7048C207.473 15.7378 207.517 15.7669 207.562 15.7931C207.517 15.767 207.473 15.7378 207.431 15.7048L202.999 12.206Z" fill="#C19EDD"/>
<path d="M205.63 6.76284C205.63 6.76284 205.632 6.76043 205.633 6.75939C205.632 6.76059 205.631 6.76179 205.63 6.76284Z" fill="#C19EDD"/>
<path d="M205.727 6.63494C205.84 6.50821 205.98 6.40521 206.143 6.34027L208.957 5.21915C209.12 5.15421 209.292 5.13243 209.461 5.14689L209.838 2.55596C209.891 2.56037 209.942 2.56866 209.993 2.58018C209.777 2.53024 209.547 2.54326 209.334 2.62821L204.088 4.71837C203.875 4.80332 203.699 4.95188 203.577 5.13692C203.606 5.0935 203.638 5.05196 203.673 5.01294L205.727 6.63484L205.727 6.63494Z" fill="#C19EDD"/>
<path d="M214.19 13.4795C214.19 13.4795 214.188 13.4812 214.187 13.4819C214.223 13.4423 214.256 13.4001 214.285 13.3556C214.256 13.399 214.224 13.4405 214.19 13.4795Z" fill="#C19EDD"/>
<path d="M208.181 15.9389C208.134 15.9413 208.087 15.9416 208.04 15.938C208.087 15.9412 208.134 15.9416 208.181 15.9389Z" fill="#C19EDD"/>
<path d="M212.232 11.7292C212.232 11.7292 212.23 11.7317 212.229 11.7329C212.23 11.7317 212.231 11.7304 212.232 11.7292Z" fill="#C19EDD"/>
<path d="M208.339 15.918C208.297 15.9264 208.254 15.9334 208.211 15.9369C208.254 15.9334 208.296 15.9268 208.339 15.918Z" fill="#C19EDD"/>
<path d="M207.709 15.863C207.668 15.8469 207.628 15.8273 207.589 15.8059C207.628 15.8273 207.668 15.8466 207.709 15.863Z" fill="#C19EDD"/>
<path d="M207.864 15.9118C207.817 15.9008 207.77 15.8863 207.725 15.8693C207.771 15.8865 207.817 15.9008 207.864 15.9118Z" fill="#C19EDD"/>
<path d="M208.023 15.9366C207.971 15.9321 207.92 15.9238 207.869 15.9125C207.92 15.9241 207.971 15.9321 208.023 15.9366Z" fill="#C19EDD"/>
<path d="M214.178 13.492C214.146 13.5271 214.111 13.5597 214.075 13.5905C214.112 13.5599 214.146 13.5269 214.178 13.492Z" fill="#C19EDD"/>
<path d="M214.358 13.2246C214.337 13.2683 214.314 13.3107 214.287 13.3511C214.313 13.3105 214.337 13.2685 214.358 13.2246Z" fill="#C19EDD"/>
<path d="M213.774 13.7734C213.824 13.7531 213.873 13.7288 213.919 13.7018C213.873 13.7287 213.824 13.7531 213.774 13.7734Z" fill="#C19EDD"/>
<path d="M214.055 13.6082C214.021 13.6353 213.986 13.6599 213.949 13.683C213.986 13.6601 214.021 13.6353 214.055 13.6082Z" fill="#C19EDD"/>
<path d="M208.527 15.8646C208.477 15.8848 208.425 15.9003 208.373 15.9125C208.425 15.9002 208.477 15.8847 208.527 15.8646Z" fill="#C19EDD"/>
<path d="M209.898 5.27795C209.906 5.28257 209.915 5.28598 209.923 5.29086C209.915 5.28624 209.906 5.28246 209.898 5.27795Z" fill="#C19EDD"/>
<path d="M212.312 11.587C212.309 11.5922 212.306 11.5974 212.304 11.6026C212.306 11.5974 212.309 11.5922 212.312 11.587Z" fill="#C19EDD"/>
<path d="M209.76 5.21472C209.766 5.21682 209.771 5.21845 209.777 5.22055C209.771 5.21845 209.766 5.21682 209.76 5.21472Z" fill="#C19EDD"/>
<path d="M212.37 11.4372C212.368 11.4465 212.364 11.455 212.361 11.4641C212.364 11.455 212.368 11.4465 212.37 11.4372Z" fill="#C19EDD"/>
<path d="M203.446 5.40731C203.46 5.36512 203.475 5.32345 203.494 5.28331C203.475 5.32345 203.459 5.36486 203.446 5.40731Z" fill="#C19EDD"/>
<path d="M203.503 5.26811C203.525 5.22442 203.548 5.18193 203.575 5.14158C203.549 5.18219 203.525 5.22415 203.503 5.26811Z" fill="#C19EDD"/>
<path d="M212.539 7.35449C212.607 7.42447 212.665 7.50243 212.711 7.58613C212.665 7.50253 212.607 7.42457 212.539 7.35449Z" fill="#C19EDD"/>
<path d="M209.616 5.17139C209.616 5.17139 209.619 5.17202 209.62 5.17239C209.619 5.17202 209.617 5.17175 209.616 5.17139Z" fill="#C19EDD"/>
<path d="M208.024 15.936L208.4 13.3454C208.348 13.341 208.297 13.3328 208.246 13.321C208.244 13.3206 208.243 13.3203 208.241 13.3203C208.194 13.3094 208.147 13.2946 208.102 13.2776C208.097 13.2755 208.091 13.274 208.086 13.2717C208.045 13.2556 208.005 13.236 207.966 13.2146C207.957 13.21 207.949 13.2065 207.94 13.2019C207.895 13.1757 207.851 13.1465 207.809 13.1135L205.432 11.2367C205.276 11.1142 205.16 10.9548 205.089 10.7772L202.657 11.7461C202.728 11.9238 202.845 12.0831 203 12.2056L207.432 15.7044C207.474 15.7374 207.518 15.7667 207.564 15.7928C207.572 15.7974 207.58 15.8009 207.589 15.8055C207.628 15.8267 207.668 15.8462 207.709 15.8626C207.714 15.8647 207.72 15.8663 207.725 15.8684C207.771 15.8854 207.817 15.9 207.864 15.9109C207.866 15.9112 207.867 15.9116 207.869 15.9118C207.876 15.9135 207.884 15.9138 207.891 15.9152C207.935 15.9244 207.979 15.9319 208.024 15.936Z" fill="#C19EDD"/>
<path d="M202.59 11.1767C202.562 11.3724 202.586 11.5684 202.657 11.7461L205.089 10.7771C205.018 10.5995 204.993 10.4034 205.022 10.2078L205.458 7.20972C205.466 7.1569 205.477 7.10555 205.492 7.05526C205.495 7.04627 205.499 7.03785 205.502 7.02875C205.516 6.98656 205.531 6.94464 205.55 6.90476C205.552 6.89953 205.555 6.89446 205.557 6.88923C205.579 6.84554 205.602 6.80278 205.629 6.76234C205.63 6.76114 205.631 6.75993 205.632 6.75889C205.661 6.71547 205.693 6.67393 205.728 6.63464L203.673 5.013C203.638 5.05203 203.606 5.09356 203.577 5.13699C203.576 5.13829 203.575 5.1395 203.574 5.1408C203.548 5.18114 203.524 5.22363 203.503 5.26733C203.5 5.27256 203.497 5.27773 203.495 5.28296C203.476 5.32284 203.46 5.3645 203.447 5.40696C203.444 5.41595 203.44 5.42447 203.437 5.43346C203.422 5.48376 203.41 5.5351 203.403 5.58792L202.59 11.1767Z" fill="#C19EDD"/>
<path d="M212.775 7.71484C212.792 7.75932 212.807 7.80469 212.819 7.85121C212.854 7.99049 212.863 8.13748 212.842 8.28421L212.406 11.2823C212.398 11.3351 212.386 11.3864 212.371 11.4367C212.368 11.4457 212.364 11.4545 212.361 11.4636C212.348 11.5058 212.332 11.5473 212.313 11.5873C212.311 11.5925 212.308 11.5977 212.305 11.6029C212.284 11.6466 212.26 11.6891 212.234 11.7297C212.233 11.7309 212.232 11.7322 212.231 11.7334C212.202 11.7769 212.17 11.8184 212.136 11.8577L214.19 13.4794C214.224 13.4403 214.257 13.3991 214.286 13.3555C214.287 13.3541 214.288 13.3529 214.289 13.3516C214.288 13.3529 214.287 13.3541 214.286 13.3555C214.257 13.3989 214.225 13.4403 214.19 13.4793C214.225 13.4403 214.257 13.3988 214.286 13.3555C214.287 13.3541 214.288 13.3529 214.289 13.3516C214.315 13.3113 214.339 13.2688 214.36 13.2251C214.363 13.2199 214.366 13.2147 214.368 13.2095C214.387 13.1696 214.402 13.128 214.416 13.0857C214.419 13.0766 214.423 13.0681 214.426 13.0589C214.441 13.0087 214.453 12.9572 214.461 12.9044L215.273 7.31555C215.295 7.16881 215.286 7.02183 215.251 6.88254C215.239 6.83603 215.224 6.79066 215.206 6.74617L212.775 7.7151L212.775 7.71484Z" fill="#C19EDD"/>
<path d="M209.994 2.58024C209.943 2.56871 209.892 2.56043 209.84 2.55601L209.463 5.14695C209.515 5.15136 209.567 5.15954 209.618 5.17133C209.619 5.17169 209.621 5.17196 209.622 5.17233C209.669 5.18327 209.715 5.19783 209.761 5.2151C209.767 5.2172 209.772 5.21883 209.778 5.22093C209.819 5.23704 209.858 5.25671 209.898 5.27774C209.906 5.28225 209.915 5.28577 209.923 5.29064C209.968 5.31686 210.012 5.346 210.054 5.37901L210.506 5.73547L211.904 4.35723L212.038 6.94495L212.432 7.25583C212.471 7.28643 212.507 7.31948 212.541 7.35421C212.609 7.42418 212.667 7.50214 212.713 7.58584C212.737 7.62777 212.757 7.67084 212.775 7.71533L215.206 6.7464C215.153 6.61321 215.074 6.49034 214.973 6.38528C214.939 6.35029 214.902 6.3175 214.864 6.2869L210.431 2.78766C210.389 2.75465 210.345 2.7254 210.3 2.69929C210.291 2.69467 210.283 2.6909 210.274 2.68639C210.235 2.66525 210.195 2.64558 210.154 2.62957C210.149 2.62747 210.143 2.62584 210.138 2.62374C210.092 2.60673 210.046 2.59208 209.999 2.58124C209.997 2.58097 209.996 2.5806 209.994 2.58034L209.994 2.58024Z" fill="#C19EDD"/>
<path d="M212.136 11.858C212.108 11.8891 212.078 11.919 212.047 11.9471C212.046 11.9487 212.044 11.9501 212.042 11.9517C212.013 11.9775 211.983 12.002 211.951 12.025C211.94 12.0325 211.929 12.0391 211.918 12.0461C211.893 12.0627 211.868 12.0793 211.842 12.094C211.803 12.1157 211.763 12.1355 211.72 12.1523L208.906 13.2738C208.863 13.2908 208.82 13.3043 208.776 13.3156C208.748 13.3231 208.719 13.328 208.69 13.3328C208.677 13.3351 208.663 13.3383 208.65 13.3402C208.612 13.3452 208.573 13.3484 208.535 13.3495C208.532 13.3498 208.529 13.3499 208.526 13.3499C208.485 13.3507 208.443 13.3497 208.402 13.3461L208.401 13.3463L208.024 15.9369C208.024 15.9369 208.026 15.9371 208.027 15.9372C208.032 15.9376 208.037 15.938 208.042 15.9385C208.089 15.9419 208.136 15.9417 208.182 15.9394C208.192 15.9389 208.202 15.9387 208.211 15.9379C208.254 15.9345 208.297 15.9278 208.339 15.919C208.351 15.9168 208.363 15.9155 208.375 15.9126C208.427 15.9003 208.478 15.8848 208.529 15.8647L213.775 13.7745C213.825 13.7542 213.873 13.7299 213.92 13.7028C213.93 13.6969 213.94 13.6898 213.95 13.6835C213.986 13.6603 214.022 13.6357 214.056 13.6087C214.063 13.6027 214.07 13.5967 214.077 13.5905C214.113 13.5597 214.148 13.5271 214.18 13.492C214.183 13.4887 214.186 13.4853 214.189 13.482C214.189 13.4812 214.19 13.4804 214.191 13.4798L212.136 11.858L212.136 11.858Z" fill="#C19EDD"/>
<path d="M214.189 13.4793C214.224 13.4403 214.256 13.3988 214.285 13.3555C214.256 13.399 214.224 13.4402 214.189 13.4794L214.189 13.4793Z" fill="#C19EDD"/>
<path d="M208.023 15.9365C207.979 15.9325 207.935 15.9252 207.89 15.9158C207.884 15.9143 207.876 15.9139 207.869 15.9125C207.92 15.9241 207.971 15.9321 208.023 15.9366L208.023 15.9365Z" fill="#C19EDD"/>
<path d="M214.288 13.3517C214.288 13.3517 214.286 13.3542 214.285 13.3555L214.288 13.3517Z" fill="#C19EDD"/>
</g>
<g clip-path="url(#clip1_5859_12534)">
<path d="M346.893 40.4679C346.973 40.5775 347.063 40.6805 347.156 40.7813C347.062 40.6812 346.974 40.5776 346.893 40.4679Z" fill="#C19EDD"/>
<path d="M347.212 40.8463C347.326 40.961 347.447 41.0696 347.579 41.1689C347.447 41.0696 347.326 40.961 347.212 40.8463Z" fill="#C19EDD"/>
<path d="M380.898 45.2904C381.049 45.226 381.193 45.1511 381.332 45.0667C381.193 45.1502 381.049 45.226 380.898 45.2904Z" fill="#C19EDD"/>
<path d="M377.658 28.4353C377.676 28.2957 377.682 28.1557 377.682 28.0166C377.682 28.1557 377.676 28.2949 377.658 28.4353Z" fill="#C19EDD"/>
<path d="M377.286 26.4304C377.286 26.4304 377.281 26.4229 377.28 26.4183C377.282 26.4221 377.285 26.4259 377.286 26.4304Z" fill="#C19EDD"/>
<path d="M356.449 23.1091C356.424 23.1244 356.402 23.1426 356.377 23.1579C356.402 23.1426 356.424 23.1244 356.449 23.1091Z" fill="#C19EDD"/>
<path d="M376.75 25.6786C376.73 25.6578 376.712 25.6346 376.692 25.6138C376.712 25.6346 376.73 25.6569 376.75 25.6786Z" fill="#C19EDD"/>
<path d="M377.044 26.0362C377.034 26.0218 377.025 26.0067 377.014 25.9922C377.024 26.0066 377.034 26.0218 377.044 26.0362Z" fill="#C19EDD"/>
<path d="M377.594 27.2691C377.593 27.2602 377.591 27.2521 377.589 27.243C377.591 27.2512 377.592 27.2601 377.594 27.2691Z" fill="#C19EDD"/>
<path d="M376.157 38.8405C376.16 38.8339 376.163 38.8272 376.166 38.8207C376.163 38.8272 376.16 38.8339 376.157 38.8405Z" fill="#C19EDD"/>
<path d="M377.667 27.7448C377.663 27.7033 377.662 27.6612 377.658 27.6204C377.663 27.6613 377.663 27.7033 377.667 27.7448Z" fill="#C19EDD"/>
<path d="M376.314 38.4911C376.328 38.4543 376.339 38.4154 376.351 38.3776C376.338 38.4153 376.328 38.4535 376.314 38.4911Z" fill="#C19EDD"/>
<path d="M376.435 38.1138C376.468 37.9797 376.496 37.844 376.513 37.7045C376.496 37.844 376.469 37.9798 376.435 38.1138Z" fill="#C19EDD"/>
<path d="M346.862 40.4223C346.775 40.3004 346.696 40.1726 346.626 40.0406C346.696 40.1726 346.776 40.2997 346.862 40.4223Z" fill="#C19EDD"/>
<path d="M384.914 23.7271L384.917 23.7335C384.917 23.7335 384.914 23.7297 384.914 23.7271Z" fill="#C19EDD"/>
<path d="M381.406 45.0174C381.521 44.9433 381.633 44.8653 381.737 44.7776C381.632 44.8643 381.522 44.9434 381.406 45.0174Z" fill="#C19EDD"/>
<path d="M382.402 44.036L375.96 39.1738L382.402 44.036Z" fill="#C19EDD"/>
<path d="M384.719 23.2843C384.73 23.3057 384.736 23.3266 384.746 23.347C384.736 23.3266 384.729 23.3047 384.719 23.2842L384.719 23.2843Z" fill="#C19EDD"/>
<path d="M364.547 44.3385C364.399 44.3395 364.252 44.3309 364.106 44.3128C363.959 44.2947 363.815 44.2672 363.671 44.2302C363.957 44.3041 364.252 44.3405 364.547 44.3385Z" fill="#C19EDD"/>
<path d="M356.047 23.3973C356.033 23.4087 356.02 23.4211 356.006 23.4326C356.02 23.4211 356.032 23.4086 356.047 23.3973Z" fill="#C19EDD"/>
<path d="M369.862 11.6551C369.375 11.2877 368.808 11.0637 368.223 10.9913C367.638 10.9189 367.034 10.9981 366.473 11.2358L350.439 18.0223C350.288 18.0866 350.144 18.1615 350.006 18.2459C350.144 18.1624 350.288 18.0866 350.439 18.0223L366.473 11.2358C367.596 10.7598 368.888 10.9196 369.862 11.6551L383.76 22.1443C383.891 22.2437 384.013 22.3523 384.126 22.4669C384.013 22.3514 383.891 22.2437 383.76 22.1443L369.862 11.6551Z" fill="#C19EDD"/>
<path d="M355.683 23.7467C355.683 23.7467 355.677 23.753 355.675 23.7571C355.678 23.7539 355.681 23.7508 355.683 23.7467Z" fill="#C19EDD"/>
<path d="M355.38 24.1395C355.09 24.5743 354.892 25.0739 354.826 25.6107L353.681 34.8776C353.614 35.4144 353.684 35.9461 353.86 36.4393L346.427 39.586C346.481 39.7378 346.546 39.885 346.62 40.028C346.302 39.4218 346.161 38.7264 346.248 38.0242L348.383 20.7476C348.47 20.0453 348.776 19.4052 349.232 18.8947C349.125 19.0153 349.026 19.1431 348.937 19.2772L355.38 24.1404L355.38 24.1395Z" fill="#C19EDD"/>
<path d="M382.402 44.036C382.402 44.036 382.406 44.0312 382.407 44.0279C382.317 44.1646 382.217 44.2948 382.107 44.4177C382.214 44.297 382.313 44.1702 382.402 44.036Z" fill="#C19EDD"/>
<path d="M385.044 24.196C385.015 24.0541 384.979 23.9131 384.932 23.777C384.978 23.9139 385.016 24.0533 385.044 24.196Z" fill="#C19EDD"/>
<path d="M375.656 39.5656C375.656 39.5656 375.662 39.5585 375.665 39.5554C375.662 39.5585 375.659 39.5625 375.656 39.5656Z" fill="#C19EDD"/>
<path d="M385.106 24.6795C385.098 24.5464 385.086 24.4137 385.062 24.2831C385.086 24.4137 385.099 24.5457 385.106 24.6795Z" fill="#C19EDD"/>
<path d="M384.448 22.8452C384.368 22.7356 384.278 22.6318 384.184 22.5317C384.278 22.6318 384.367 22.7355 384.448 22.8452Z" fill="#C19EDD"/>
<path d="M384.714 23.2718C384.645 23.1399 384.565 23.0128 384.479 22.8901C384.566 23.0129 384.645 23.1399 384.714 23.2718Z" fill="#C19EDD"/>
<path d="M384.913 23.7266C384.859 23.5756 384.794 23.4284 384.721 23.2864C384.795 23.4285 384.859 23.5756 384.913 23.7266Z" fill="#C19EDD"/>
<path d="M382.431 43.9931C382.511 43.8709 382.581 43.7422 382.645 43.6101C382.582 43.7423 382.51 43.8699 382.431 43.9931Z" fill="#C19EDD"/>
<path d="M381.777 44.7418C381.89 44.6439 381.998 44.5409 382.098 44.429C381.998 44.5399 381.891 44.644 381.777 44.7418Z" fill="#C19EDD"/>
<path d="M382.955 42.5647C382.934 42.7319 382.899 42.8946 382.855 43.0545C382.899 42.8955 382.934 42.7319 382.955 42.5647Z" fill="#C19EDD"/>
<path d="M382.682 43.534C382.736 43.4121 382.782 43.2865 382.822 43.1585C382.782 43.2866 382.736 43.4121 382.682 43.534Z" fill="#C19EDD"/>
<path d="M385.091 25.2879C385.112 25.1208 385.118 24.9544 385.114 24.7903C385.118 24.9553 385.112 25.1216 385.091 25.2879Z" fill="#C19EDD"/>
<path d="M354.588 37.6345C354.609 37.6554 354.626 37.6794 354.647 37.7004C354.627 37.6795 354.608 37.6562 354.588 37.6345Z" fill="#C19EDD"/>
<path d="M375.293 39.9146C375.307 39.9032 375.32 39.8899 375.333 39.8785C375.32 39.8899 375.307 39.9032 375.293 39.9146Z" fill="#C19EDD"/>
<path d="M354.295 37.276C354.306 37.2904 354.315 37.3065 354.326 37.3209C354.315 37.3065 354.306 37.2904 354.295 37.276Z" fill="#C19EDD"/>
<path d="M374.889 40.2037C374.915 40.1885 374.937 40.1703 374.962 40.1541C374.937 40.1703 374.915 40.1885 374.889 40.2037Z" fill="#C19EDD"/>
<path d="M349.934 18.2946C349.819 18.3687 349.707 18.4476 349.602 18.5343C349.707 18.4476 349.819 18.3686 349.934 18.2946Z" fill="#C19EDD"/>
<path d="M349.562 18.5707C349.448 18.6686 349.34 18.7725 349.241 18.8835C349.341 18.7726 349.447 18.6685 349.562 18.5707Z" fill="#C19EDD"/>
<path d="M362.846 43.8973C363.107 44.0452 363.385 44.1565 363.671 44.2295C363.385 44.1557 363.108 44.0443 362.846 43.8973Z" fill="#C19EDD"/>
<path d="M354.051 36.882C354.051 36.882 354.055 36.8904 354.058 36.8941C354.055 36.8904 354.053 36.8857 354.051 36.882Z" fill="#C19EDD"/>
<path d="M384.913 23.7279L377.481 26.8738C377.427 26.7219 377.362 26.5739 377.287 26.4308C377.285 26.427 377.283 26.4233 377.282 26.4187C377.212 26.2859 377.132 26.1588 377.045 26.0361C377.035 26.0217 377.026 26.0066 377.015 25.9921C376.935 25.8825 376.845 25.7786 376.751 25.6786C376.731 25.6577 376.714 25.6346 376.693 25.6138C376.58 25.4982 376.458 25.3905 376.327 25.2911L368.872 19.6642C368.386 19.2969 367.819 19.0729 367.234 19.0005L368.224 10.9916C368.809 11.064 369.375 11.288 369.862 11.6553L383.76 22.1445C383.891 22.2439 384.013 22.3516 384.126 22.4671C384.146 22.488 384.164 22.5111 384.184 22.532C384.277 22.6319 384.367 22.7357 384.448 22.8455C384.458 22.8599 384.468 22.8759 384.478 22.8903C384.564 23.013 384.644 23.1401 384.714 23.272C384.716 23.2766 384.718 23.2804 384.72 23.285C384.73 23.3056 384.737 23.3274 384.747 23.3479C384.809 23.4719 384.866 23.5979 384.913 23.7279Z" fill="#C19EDD"/>
<path d="M366.473 11.236C367.035 10.9984 367.638 10.9191 368.224 10.9915L367.234 19.0004C366.648 18.928 366.045 19.0073 365.483 19.2449L356.882 22.8856C356.731 22.95 356.587 23.0249 356.449 23.1093C356.424 23.1246 356.402 23.142 356.377 23.1582C356.262 23.2323 356.149 23.311 356.045 23.3979C356.031 23.4093 356.018 23.4217 356.005 23.4331C355.891 23.531 355.782 23.6348 355.682 23.7467C355.679 23.7498 355.676 23.7529 355.674 23.757C355.567 23.8777 355.468 24.0054 355.378 24.1395L348.936 19.2765C349.026 19.1423 349.125 19.0145 349.231 18.8939C349.234 18.8899 349.237 18.8868 349.241 18.8828C349.34 18.7718 349.448 18.6679 349.562 18.57C349.576 18.5586 349.589 18.5453 349.602 18.5339C349.707 18.447 349.819 18.3682 349.935 18.2942C349.959 18.2788 349.982 18.2606 350.006 18.2453C350.144 18.1609 350.288 18.086 350.44 18.0216L366.473 11.236Z" fill="#C19EDD"/>
<path d="M364.106 44.3125C364.252 44.3306 364.399 44.3391 364.547 44.3382C364.99 44.3353 365.435 44.246 365.856 44.068L374.457 40.4273C374.608 40.3629 374.752 40.288 374.89 40.2036C374.915 40.1883 374.938 40.1701 374.963 40.154C375.078 40.0798 375.19 40.0018 375.295 39.9142C375.308 39.9027 375.321 39.8895 375.335 39.878C375.449 39.7801 375.557 39.6763 375.657 39.5653C375.66 39.5622 375.663 39.5582 375.666 39.5551C375.773 39.4345 375.872 39.3067 375.962 39.1727L382.404 44.0348C382.314 44.168 382.217 44.2968 382.109 44.4174C382.106 44.4214 382.103 44.4245 382.1 44.4285C382.103 44.4245 382.106 44.4214 382.109 44.4174C382.216 44.2967 382.315 44.1699 382.404 44.0357C382.315 44.1699 382.216 44.2976 382.109 44.4174C382.106 44.4214 382.103 44.4245 382.1 44.4285C382 44.5395 381.892 44.6433 381.778 44.7413C381.765 44.7527 381.752 44.766 381.738 44.7774C381.634 44.8642 381.522 44.9422 381.407 45.0172C381.382 45.0334 381.359 45.0516 381.334 45.0668C381.196 45.1503 381.052 45.2261 380.9 45.2905L364.867 52.077C364.446 52.255 364.001 52.3443 363.558 52.3472C363.41 52.3481 363.263 52.3396 363.116 52.3215L364.106 44.3126L364.106 44.3125Z" fill="#C19EDD"/>
<path d="M346.62 40.0282C346.545 39.8852 346.48 39.7381 346.427 39.5862L353.859 36.4396C353.913 36.5914 353.978 36.7394 354.053 36.8826C354.055 36.8863 354.057 36.8909 354.059 36.8947C354.129 37.0267 354.209 37.1537 354.296 37.2765C354.306 37.2909 354.316 37.3069 354.326 37.3214C354.406 37.431 354.496 37.5339 354.589 37.6347C354.609 37.6565 354.627 37.6796 354.648 37.7006C354.761 37.8152 354.882 37.9238 355.014 38.0232L356.43 39.0915L353.412 44.3379L361.234 42.7179L362.469 43.6502C362.59 43.7422 362.718 43.8253 362.848 43.8991C363.109 44.0469 363.387 44.1583 363.673 44.2313C363.816 44.2682 363.961 44.2957 364.107 44.3138L363.117 52.3227C362.678 52.2685 362.25 52.1289 361.858 51.908C361.727 51.8341 361.601 51.7511 361.479 51.6591L347.579 41.1687C347.448 41.0694 347.327 40.9616 347.213 40.8461C347.193 40.8252 347.175 40.802 347.155 40.7803C347.061 40.6804 346.972 40.5774 346.892 40.4669C346.881 40.4525 346.872 40.4365 346.861 40.422C346.775 40.2994 346.695 40.1732 346.626 40.0404C346.624 40.0357 346.622 40.032 346.62 40.0273L346.62 40.0282Z" fill="#C19EDD"/>
<path d="M375.96 39.173C376.031 39.0654 376.097 38.9546 376.157 38.8404C376.16 38.8338 376.163 38.8272 376.166 38.8206C376.22 38.7136 376.27 38.6042 376.314 38.4915C376.328 38.4548 376.339 38.4159 376.351 38.3781C376.381 38.2908 376.411 38.2036 376.435 38.1137C376.469 37.9797 376.496 37.844 376.513 37.7044L377.659 28.4349C377.676 28.2945 377.683 28.1554 377.683 28.0162C377.683 27.9252 377.675 27.835 377.666 27.7448C377.663 27.7032 377.662 27.6611 377.657 27.6203C377.642 27.5021 377.622 27.3849 377.595 27.2688C377.593 27.2598 377.592 27.2518 377.589 27.2427C377.559 27.1183 377.524 26.9949 377.481 26.875L377.481 26.8733L384.913 23.7274C384.913 23.7274 384.915 23.732 384.915 23.7339C384.921 23.7485 384.926 23.7631 384.931 23.7778C384.978 23.9148 385.014 24.0549 385.044 24.1967C385.05 24.2255 385.057 24.2543 385.062 24.2838C385.085 24.4144 385.099 24.5465 385.106 24.6803C385.108 24.7173 385.113 24.753 385.114 24.7907C385.118 24.9556 385.112 25.122 385.092 25.2883L382.956 42.5658C382.935 42.733 382.9 42.8957 382.856 43.0556C382.847 43.0911 382.833 43.1244 382.822 43.1589C382.781 43.2869 382.736 43.4134 382.682 43.5344C382.669 43.5609 382.657 43.5856 382.644 43.612C382.58 43.7441 382.51 43.8727 382.43 43.9949C382.423 44.0063 382.415 44.0184 382.408 44.0297C382.406 44.0321 382.404 44.0345 382.402 44.037L375.96 39.1748L375.96 39.173Z" fill="#C19EDD"/>
<path d="M382.403 44.036C382.314 44.1702 382.215 44.298 382.108 44.4177C382.216 44.2981 382.313 44.1693 382.403 44.0352L382.403 44.036Z" fill="#C19EDD"/>
<path d="M384.913 23.7274C384.866 23.5974 384.81 23.4715 384.747 23.3474C384.737 23.3278 384.731 23.306 384.721 23.2864C384.795 23.4285 384.859 23.5756 384.913 23.7266L384.913 23.7274Z" fill="#C19EDD"/>
<path d="M382.098 44.4288C382.098 44.4288 382.104 44.4217 382.107 44.4177L382.098 44.4288Z" fill="#C19EDD"/>
</g>
<g clip-path="url(#clip2_5859_12534)">
<path d="M6.56641 158.406C6.55029 158.365 6.53062 158.326 6.50959 158.286C6.53099 158.325 6.55003 158.365 6.56641 158.406Z" fill="#C19EDD"/>
<path d="M6.49756 158.262C6.47134 158.217 6.4422 158.173 6.40919 158.131C6.4422 158.173 6.47134 158.217 6.49756 158.262Z" fill="#C19EDD"/>
<path d="M2.14273 163.069C2.15172 163.066 2.16024 163.062 2.16923 163.059C2.16024 163.062 2.15172 163.066 2.14273 163.069Z" fill="#C19EDD"/>
<path d="M6.57273 158.424C6.5901 158.469 6.60429 158.516 6.61523 158.563C6.60429 158.516 6.58974 158.469 6.57273 158.424Z" fill="#C19EDD"/>
<path d="M1.34621 155.742C1.39272 155.754 1.43809 155.769 1.48257 155.786C1.52706 155.804 1.57013 155.825 1.61206 155.848C1.52847 155.801 1.43898 155.766 1.34621 155.742Z" fill="#C19EDD"/>
<path d="M2.29152 163.011C2.29674 163.009 2.30181 163.006 2.30704 163.003C2.30181 163.006 2.29701 163.009 2.29152 163.011Z" fill="#C19EDD"/>
<path d="M-3.00857 165.561C-2.88581 165.716 -2.72648 165.833 -2.54881 165.903C-2.37114 165.974 -2.17512 165.999 -1.97944 165.97L3.60943 165.158C3.66225 165.15 3.71359 165.138 3.76389 165.123C3.7137 165.138 3.66225 165.15 3.60943 165.158L-1.97944 165.97C-2.37117 166.028 -2.76341 165.871 -3.00857 165.561L-6.50739 161.128C-6.5404 161.086 -6.56955 161.042 -6.59576 160.997C-6.56965 161.043 -6.5404 161.086 -6.50739 161.128L-3.00857 165.561Z" fill="#C19EDD"/>
<path d="M2.43345 162.931C2.43345 162.931 2.43586 162.93 2.4369 162.929C2.4357 162.93 2.4345 162.93 2.43345 162.931Z" fill="#C19EDD"/>
<path d="M2.5611 162.832C2.68783 162.72 2.79083 162.579 2.85578 162.416L3.9769 159.603C4.04184 159.44 4.06362 159.267 4.04915 159.098L6.64009 158.721C6.63567 158.669 6.62739 158.617 6.61586 158.566C6.6658 158.783 6.65279 159.012 6.56783 159.226L4.47768 164.471C4.39272 164.684 4.24416 164.86 4.05912 164.983C4.10255 164.954 4.14409 164.922 4.18311 164.887L2.56121 162.832L2.5611 162.832Z" fill="#C19EDD"/>
<path d="M3.92041 158.664C3.9158 158.655 3.91238 158.647 3.90751 158.638C3.91212 158.646 3.9159 158.655 3.92041 158.664Z" fill="#C19EDD"/>
<path d="M3.98267 158.8C3.98057 158.795 3.97894 158.789 3.97684 158.784C3.97894 158.789 3.98057 158.795 3.98267 158.8Z" fill="#C19EDD"/>
<path d="M3.78983 165.114C3.83202 165.1 3.87369 165.084 3.91383 165.066C3.87369 165.084 3.83229 165.1 3.78983 165.114Z" fill="#C19EDD"/>
<path d="M3.92915 165.057C3.97285 165.036 4.01534 165.012 4.05568 164.985C4.01508 165.012 3.97311 165.036 3.92915 165.057Z" fill="#C19EDD"/>
<path d="M1.84277 156.021C1.7728 155.953 1.69484 155.896 1.61114 155.849C1.69473 155.896 1.7727 155.954 1.84277 156.021Z" fill="#C19EDD"/>
<path d="M4.02686 158.943C4.02686 158.943 4.02622 158.941 4.02586 158.939C4.02622 158.941 4.02649 158.942 4.02686 158.943Z" fill="#C19EDD"/>
<path d="M-1.97954 165.97C-2.17522 165.999 -2.37124 165.974 -2.54891 165.903L-1.57998 163.472C-1.40231 163.543 -1.20629 163.567 -1.01061 163.539L1.98743 163.103C2.04024 163.095 2.09159 163.083 2.14188 163.068C2.15088 163.065 2.15929 163.062 2.16839 163.059C2.21058 163.045 2.25251 163.029 2.29239 163.011C2.29761 163.008 2.30268 163.006 2.30791 163.003C2.35161 162.982 2.39436 162.958 2.43481 162.931C2.43601 162.93 2.43721 162.93 2.43825 162.929C2.48168 162.899 2.52321 162.868 2.5625 162.833L4.18414 164.888C4.14512 164.922 4.10358 164.954 4.06016 164.983C4.05885 164.984 4.05765 164.985 4.05634 164.986C4.016 165.013 3.97351 165.037 3.92981 165.058C3.92459 165.06 3.91941 165.063 3.91419 165.066C3.8743 165.085 3.83264 165.1 3.79019 165.114C3.7812 165.117 3.77268 165.121 3.76368 165.123C3.71339 165.138 3.66204 165.15 3.60922 165.158L-1.97954 165.97Z" fill="#C19EDD"/>
<path d="M1.48255 155.787C1.43806 155.769 1.39269 155.755 1.34618 155.743C1.2069 155.707 1.05991 155.699 0.913174 155.72L-2.08487 156.156C-2.13768 156.164 -2.18903 156.176 -2.23932 156.191C-2.24832 156.193 -2.2571 156.197 -2.26619 156.2C-2.30838 156.214 -2.34994 156.229 -2.38993 156.248C-2.39516 156.251 -2.40033 156.254 -2.40556 156.256C-2.44926 156.278 -2.49175 156.301 -2.53235 156.328C-2.53355 156.329 -2.53486 156.33 -2.53606 156.33C-2.57948 156.359 -2.62102 156.391 -2.6603 156.426L-4.28205 154.372C-4.24287 154.337 -4.20175 154.305 -4.15806 154.276C-4.15676 154.275 -4.15556 154.274 -4.15425 154.273C-4.15556 154.274 -4.15676 154.275 -4.15806 154.276C-4.20149 154.305 -4.24292 154.337 -4.28194 154.371C-4.24292 154.337 -4.20138 154.305 -4.15806 154.276C-4.15676 154.275 -4.15556 154.274 -4.15425 154.273C-4.11391 154.246 -4.07142 154.223 -4.02772 154.201C-4.0225 154.199 -4.01732 154.196 -4.01209 154.193C-3.97221 154.175 -3.93065 154.159 -3.88836 154.145C-3.87926 154.142 -3.87074 154.138 -3.86149 154.136C-3.8113 154.121 -3.75985 154.109 -3.70703 154.101L1.88184 153.288C2.02858 153.267 2.17556 153.276 2.31485 153.311C2.36136 153.323 2.40673 153.338 2.45121 153.355L1.48229 155.787L1.48255 155.787Z" fill="#C19EDD"/>
<path d="M6.61605 158.567C6.62758 158.618 6.63586 158.67 6.64028 158.722L4.04934 159.099C4.04493 159.047 4.03675 158.995 4.02496 158.944C4.02459 158.943 4.02433 158.941 4.02396 158.94C4.01302 158.893 3.99846 158.846 3.98119 158.8C3.97909 158.795 3.97746 158.789 3.97536 158.784C3.95925 158.743 3.93958 158.703 3.91855 158.664C3.91404 158.656 3.91052 158.647 3.90565 158.639C3.87943 158.593 3.85029 158.549 3.81728 158.507L3.46082 158.056L4.83906 156.658L2.25134 156.524L1.94046 156.13C1.90986 156.091 1.87681 156.054 1.84208 156.02C1.77211 155.953 1.69415 155.895 1.61045 155.848C1.56852 155.825 1.52545 155.805 1.48096 155.787L2.44989 153.355C2.58308 153.408 2.70595 153.487 2.81101 153.589C2.846 153.623 2.87879 153.659 2.90939 153.698L6.40863 158.131C6.44164 158.173 6.47089 158.216 6.497 158.262C6.50161 158.27 6.50539 158.279 6.5099 158.287C6.53104 158.327 6.55071 158.366 6.56672 158.407C6.56882 158.413 6.57045 158.419 6.57254 158.424C6.58956 158.47 6.60421 158.516 6.61505 158.563C6.61532 158.565 6.61569 158.566 6.61595 158.568L6.61605 158.567Z" fill="#C19EDD"/>
</g>
<g clip-path="url(#clip3_5859_12534)">
<path d="M22.1819 397.995C22.1502 397.974 22.1166 397.957 22.0822 397.939C22.1168 397.956 22.1499 397.975 22.1819 397.995Z" fill="#C19EDD"/>
<path d="M22.062 397.928C22.021 397.909 21.9786 397.893 21.9346 397.88C21.9786 397.893 22.021 397.909 22.062 397.928Z" fill="#C19EDD"/>
<path d="M12.8343 400.1C12.8012 400.132 12.771 400.166 12.7433 400.202C12.7711 400.166 12.8012 400.132 12.8343 400.1Z" fill="#C19EDD"/>
<path d="M15.3454 404.177C15.3547 404.215 15.3668 404.252 15.3806 404.289C15.3668 404.252 15.3548 404.215 15.3454 404.177Z" fill="#C19EDD"/>
<path d="M15.6421 404.663C15.6421 404.663 15.644 404.664 15.6448 404.665C15.6438 404.665 15.6429 404.664 15.6421 404.663Z" fill="#C19EDD"/>
<path d="M21.4072 403.469C21.4121 403.462 21.4161 403.455 21.421 403.449C21.4161 403.455 21.4121 403.462 21.4072 403.469Z" fill="#C19EDD"/>
<path d="M15.8565 404.806C15.8638 404.81 15.8706 404.814 15.8779 404.817C15.8706 404.814 15.8639 404.81 15.8565 404.806Z" fill="#C19EDD"/>
<path d="M15.7436 404.742C15.7477 404.745 15.7515 404.748 15.7559 404.75C15.7517 404.748 15.7477 404.745 15.7436 404.742Z" fill="#C19EDD"/>
<path d="M15.4786 404.475C15.4799 404.477 15.4812 404.479 15.4827 404.481C15.4812 404.479 15.4802 404.477 15.4786 404.475Z" fill="#C19EDD"/>
<path d="M14.7088 401.314C14.7086 401.316 14.7086 401.318 14.7083 401.32C14.7086 401.318 14.7086 401.316 14.7088 401.314Z" fill="#C19EDD"/>
<path d="M15.4126 404.357C15.4176 404.368 15.422 404.379 15.4272 404.389C15.4218 404.379 15.4176 404.368 15.4126 404.357Z" fill="#C19EDD"/>
<path d="M14.7025 401.421C14.7024 401.432 14.7034 401.443 14.7038 401.454C14.7036 401.443 14.7024 401.432 14.7025 401.421Z" fill="#C19EDD"/>
<path d="M14.7095 401.531C14.7142 401.569 14.7202 401.608 14.7295 401.646C14.7202 401.608 14.7139 401.569 14.7095 401.531Z" fill="#C19EDD"/>
<path d="M22.1958 398.004C22.2306 398.027 22.2638 398.053 22.2949 398.08C22.2638 398.053 22.2304 398.027 22.1958 398.004Z" fill="#C19EDD"/>
<path d="M13.9202 406.123L13.9188 406.121C13.9188 406.121 13.9198 406.122 13.9202 406.123Z" fill="#C19EDD"/>
<path d="M12.7296 400.221C12.7069 400.252 12.6854 400.284 12.6668 400.317C12.6857 400.284 12.7067 400.252 12.7296 400.221Z" fill="#C19EDD"/>
<path d="M12.5666 400.576L14.728 401.208L12.5666 400.576Z" fill="#C19EDD"/>
<path d="M14.0132 406.219C14.0083 406.214 14.0047 406.209 14.0001 406.205C14.0047 406.209 14.0086 406.214 14.0134 406.219L14.0132 406.219Z" fill="#C19EDD"/>
<path d="M17.1947 398.731C17.2332 398.716 17.2724 398.704 17.3124 398.694C17.3524 398.684 17.3928 398.677 17.4338 398.673C17.352 398.682 17.2715 398.701 17.1947 398.731Z" fill="#C19EDD"/>
<path d="M21.4818 403.354C21.4842 403.349 21.4864 403.345 21.4888 403.34C21.4864 403.345 21.4845 403.349 21.4818 403.354Z" fill="#C19EDD"/>
<path d="M19.0404 407.784C19.2039 407.831 19.3738 407.834 19.5336 407.795C19.6935 407.756 19.8432 407.675 19.9661 407.558L23.4776 404.202C23.5108 404.17 23.5409 404.136 23.5686 404.1C23.5409 404.136 23.5108 404.17 23.4776 404.202L19.9661 407.558C19.72 407.793 19.3672 407.879 19.0404 407.784L14.3774 406.422C14.3333 406.409 14.2909 406.392 14.25 406.374C14.291 406.393 14.3333 406.409 14.3774 406.422L19.0404 407.784Z" fill="#C19EDD"/>
<path d="M21.5428 403.226C21.5428 403.226 21.5437 403.224 21.5439 403.223C21.5435 403.224 21.543 403.225 21.5428 403.226Z" fill="#C19EDD"/>
<path d="M21.5841 403.094C21.6168 402.952 21.6188 402.802 21.5831 402.655L20.9654 400.125C20.9296 399.978 20.8587 399.846 20.7642 399.735L22.392 398.179C22.363 398.145 22.3315 398.113 22.298 398.083C22.4409 398.209 22.5464 398.377 22.5932 398.569L23.7448 403.287C23.7916 403.479 23.7751 403.676 23.7066 403.854C23.7226 403.812 23.7357 403.769 23.7457 403.725L21.584 403.094L21.5841 403.094Z" fill="#C19EDD"/>
<path d="M12.5654 400.576C12.5654 400.576 12.5648 400.578 12.5648 400.579C12.5748 400.534 12.5881 400.49 12.6045 400.447C12.5886 400.489 12.5754 400.532 12.5654 400.576Z" fill="#C19EDD"/>
<path d="M13.8381 406.013C13.8599 406.047 13.8832 406.08 13.9089 406.111C13.8834 406.08 13.8597 406.047 13.8381 406.013Z" fill="#C19EDD"/>
<path d="M14.7673 401.075C14.7673 401.075 14.7664 401.077 14.7659 401.078C14.7664 401.077 14.7668 401.076 14.7673 401.075Z" fill="#C19EDD"/>
<path d="M13.7763 405.893C13.7915 405.927 13.8079 405.96 13.8269 405.992C13.8079 405.96 13.7914 405.927 13.7763 405.893Z" fill="#C19EDD"/>
<path d="M14.1286 406.307C14.1604 406.327 14.194 406.346 14.2285 406.362C14.194 406.346 14.1606 406.327 14.1286 406.307Z" fill="#C19EDD"/>
<path d="M14.0163 406.222C14.0475 406.249 14.0808 406.274 14.1155 406.298C14.0806 406.275 14.0475 406.249 14.0163 406.222Z" fill="#C19EDD"/>
<path d="M13.9197 406.122C13.9487 406.156 13.9802 406.188 14.0134 406.218C13.98 406.188 13.9487 406.156 13.9197 406.122Z" fill="#C19EDD"/>
<path d="M12.5637 400.59C12.555 400.63 12.5494 400.67 12.5459 400.711C12.5491 400.67 12.5552 400.63 12.5637 400.59Z" fill="#C19EDD"/>
<path d="M12.6583 400.33C12.6383 400.367 12.6203 400.404 12.6054 400.443C12.6206 400.404 12.6381 400.367 12.6583 400.33Z" fill="#C19EDD"/>
<path d="M12.5666 401.014C12.5554 400.969 12.5484 400.923 12.5442 400.877C12.5484 400.922 12.5554 400.969 12.5666 401.014Z" fill="#C19EDD"/>
<path d="M12.5426 400.735C12.5404 400.772 12.541 400.809 12.5432 400.846C12.5408 400.809 12.5404 400.772 12.5426 400.735Z" fill="#C19EDD"/>
<path d="M13.719 405.733C13.7301 405.779 13.7451 405.823 13.7625 405.865C13.7451 405.822 13.7301 405.778 13.719 405.733Z" fill="#C19EDD"/>
<path d="M20.4548 399.495C20.4475 399.492 20.4407 399.487 20.4331 399.484C20.4404 399.487 20.4475 399.491 20.4548 399.495Z" fill="#C19EDD"/>
<path d="M14.8274 400.948C14.8249 400.952 14.8229 400.957 14.8204 400.961C14.8229 400.957 14.8249 400.952 14.8274 400.948Z" fill="#C19EDD"/>
<path d="M20.5681 399.56C20.564 399.557 20.5599 399.554 20.5558 399.551C20.5599 399.554 20.564 399.557 20.5681 399.56Z" fill="#C19EDD"/>
<path d="M14.9041 400.833C14.899 400.839 14.8949 400.846 14.8901 400.853C14.8949 400.846 14.899 400.839 14.9041 400.833Z" fill="#C19EDD"/>
<path d="M23.5809 404.08C23.6036 404.05 23.625 404.018 23.6439 403.985C23.625 404.018 23.6038 404.05 23.5809 404.08Z" fill="#C19EDD"/>
<path d="M23.6508 403.971C23.6707 403.935 23.6887 403.897 23.7037 403.858C23.6885 403.897 23.671 403.935 23.6508 403.971Z" fill="#C19EDD"/>
<path d="M17.6824 398.678C17.5995 398.666 17.516 398.664 17.4342 398.673C17.5161 398.664 17.5995 398.666 17.6824 398.678Z" fill="#C19EDD"/>
<path d="M20.6702 399.638C20.6702 399.638 20.6682 399.637 20.6673 399.636C20.6682 399.637 20.6692 399.638 20.6702 399.638Z" fill="#C19EDD"/>
<path d="M13.9204 406.122L15.548 404.567C15.577 404.601 15.6086 404.633 15.6423 404.663C15.6433 404.664 15.6442 404.665 15.645 404.666C15.6762 404.694 15.7098 404.719 15.7444 404.742C15.7486 404.745 15.7523 404.748 15.7567 404.751C15.7885 404.771 15.8221 404.79 15.8566 404.806C15.8639 404.81 15.8707 404.814 15.878 404.818C15.9191 404.836 15.9614 404.853 16.0055 404.866L18.5068 405.596C18.6701 405.644 18.84 405.646 18.9998 405.607L19.5337 407.795C19.3739 407.834 19.2039 407.831 19.0407 407.783L14.3777 406.421C14.3336 406.409 14.2913 406.392 14.2502 406.374C14.2429 406.37 14.2361 406.366 14.2288 406.362C14.1945 406.345 14.1609 406.327 14.1289 406.307C14.1248 406.304 14.1207 406.301 14.1166 406.298C14.0819 406.274 14.0486 406.249 14.0174 406.222C14.0164 406.221 14.0155 406.22 14.0145 406.219C14.0097 406.215 14.0057 406.21 14.0012 406.205C13.9728 406.179 13.9455 406.152 13.9204 406.122Z" fill="#C19EDD"/>
<path d="M19.9656 407.557C19.8426 407.675 19.6929 407.755 19.5331 407.794L18.9992 405.607C19.1591 405.568 19.3088 405.488 19.4317 405.37L21.3153 403.57C21.3485 403.538 21.3787 403.504 21.4064 403.469C21.4113 403.462 21.4154 403.455 21.4202 403.449C21.4429 403.418 21.4646 403.386 21.4832 403.353C21.4857 403.349 21.4878 403.345 21.4902 403.34C21.5102 403.303 21.5284 403.266 21.5433 403.227C21.5438 403.225 21.5442 403.224 21.5444 403.223C21.5604 403.181 21.5735 403.138 21.5838 403.094L23.7452 403.726C23.7352 403.769 23.7221 403.812 23.7061 403.854C23.7057 403.856 23.7052 403.857 23.7048 403.858C23.6898 403.897 23.6719 403.935 23.6519 403.972C23.6495 403.976 23.6474 403.981 23.645 403.985C23.6263 404.018 23.6049 404.05 23.582 404.081C23.5771 404.087 23.573 404.094 23.5681 404.1C23.5404 404.136 23.5103 404.17 23.4771 404.202L19.9656 407.557Z" fill="#C19EDD"/>
<path d="M17.3109 398.694C17.2709 398.704 17.2317 398.716 17.1932 398.731C17.0779 398.776 16.9706 398.843 16.8784 398.931L14.9948 400.731C14.9616 400.763 14.9315 400.797 14.9038 400.833C14.8989 400.839 14.8946 400.846 14.8897 400.853C14.8671 400.884 14.8456 400.915 14.827 400.948C14.8245 400.952 14.8225 400.957 14.82 400.962C14.8001 400.998 14.7821 401.036 14.7669 401.075C14.7664 401.076 14.766 401.077 14.7655 401.079C14.7496 401.121 14.7364 401.164 14.7262 401.208L12.5648 400.576C12.5751 400.533 12.5877 400.489 12.6039 400.447C12.6043 400.446 12.6048 400.445 12.6052 400.443C12.6048 400.445 12.6043 400.446 12.6039 400.447C12.588 400.489 12.5747 400.532 12.5647 400.576C12.5747 400.532 12.5879 400.489 12.6039 400.447C12.6043 400.446 12.6048 400.445 12.6052 400.443C12.6202 400.405 12.6381 400.367 12.6581 400.33C12.6605 400.326 12.6626 400.321 12.665 400.317C12.6837 400.284 12.7052 400.252 12.7278 400.221C12.7327 400.215 12.7367 400.208 12.7418 400.201C12.7696 400.166 12.7997 400.132 12.8328 400.1L16.3443 396.744C16.4366 396.656 16.5438 396.589 16.6591 396.544C16.6977 396.529 16.7368 396.517 16.7768 396.507L17.3107 398.694L17.3109 398.694Z" fill="#C19EDD"/>
<path d="M22.2979 398.083C22.3314 398.113 22.3629 398.145 22.392 398.179L20.7642 399.735C20.7351 399.701 20.7036 399.668 20.6698 399.638C20.6689 399.638 20.6679 399.637 20.667 399.636C20.6358 399.608 20.6024 399.583 20.5676 399.56C20.5634 399.557 20.5594 399.554 20.5552 399.551C20.5235 399.53 20.4899 399.512 20.4556 399.495C20.4482 399.492 20.4414 399.487 20.4338 399.484C20.3929 399.465 20.3505 399.449 20.3064 399.436L19.8314 399.297L20.0998 397.63L18.2194 398.826L17.805 398.705C17.7642 398.693 17.7228 398.684 17.6816 398.678C17.5987 398.665 17.5153 398.663 17.4335 398.673C17.3924 398.677 17.352 398.684 17.312 398.694L16.7782 396.507C16.898 396.478 17.0235 396.472 17.1478 396.49C17.1892 396.497 17.2304 396.506 17.2712 396.518L21.9347 397.88C21.9788 397.893 22.0211 397.909 22.0622 397.928C22.0695 397.931 22.0765 397.936 22.0839 397.939C22.1182 397.956 22.1517 397.974 22.1835 397.995C22.1877 397.998 22.1917 398.001 22.1959 398.004C22.2305 398.027 22.2638 398.052 22.2951 398.08C22.296 398.081 22.297 398.082 22.298 398.083L22.2979 398.083Z" fill="#C19EDD"/>
<path d="M14.7267 401.207C14.7188 401.242 14.7125 401.278 14.7083 401.313C14.708 401.315 14.708 401.317 14.7078 401.319C14.7042 401.353 14.7021 401.386 14.7018 401.42C14.7018 401.431 14.7028 401.442 14.7032 401.453C14.704 401.479 14.7048 401.505 14.7076 401.53C14.712 401.569 14.7183 401.607 14.7276 401.645L15.3455 404.176C15.3548 404.215 15.3668 404.252 15.3807 404.288C15.3897 404.312 15.4008 404.335 15.4118 404.357C15.4168 404.368 15.4212 404.379 15.4265 404.389C15.4421 404.418 15.4591 404.447 15.4775 404.474C15.4788 404.477 15.48 404.478 15.4815 404.481C15.5017 404.51 15.5232 404.539 15.5462 404.566L15.5463 404.566L13.9187 406.122C13.9187 406.122 13.9177 406.121 13.9174 406.121C13.9146 406.117 13.9118 406.114 13.909 406.111C13.8832 406.08 13.8599 406.047 13.8381 406.012C13.8337 406.006 13.829 405.999 13.8248 405.992C13.8058 405.96 13.7893 405.927 13.7742 405.892C13.7699 405.883 13.765 405.874 13.7611 405.864C13.7437 405.822 13.7287 405.778 13.7177 405.732L12.566 401.014C12.5549 400.968 12.5479 400.922 12.5436 400.876C12.5426 400.866 12.5429 400.856 12.5425 400.846C12.5403 400.809 12.5396 400.771 12.5419 400.734C12.5424 400.726 12.5432 400.718 12.544 400.71C12.5475 400.669 12.5531 400.629 12.5618 400.589C12.5627 400.585 12.5635 400.581 12.5643 400.578C12.5646 400.577 12.5649 400.576 12.565 400.575L14.7264 401.207L14.7267 401.207Z" fill="#C19EDD"/>
<path d="M12.5659 400.576C12.5759 400.532 12.5891 400.489 12.6051 400.447C12.5888 400.489 12.5762 400.532 12.566 400.576L12.5659 400.576Z" fill="#C19EDD"/>
<path d="M13.9197 406.122C13.9448 406.151 13.9719 406.179 14.0005 406.205C14.005 406.209 14.0089 406.214 14.0134 406.218C13.98 406.188 13.9487 406.156 13.9197 406.122L13.9197 406.122Z" fill="#C19EDD"/>
<path d="M12.6074 400.444C12.6074 400.444 12.6065 400.446 12.606 400.447L12.6074 400.444Z" fill="#C19EDD"/>
</g>
<g clip-path="url(#clip4_5859_12534)">
<path d="M25.907 12.3046C25.8769 12.3276 25.8487 12.3532 25.8212 12.3799C25.8485 12.3529 25.8769 12.3278 25.907 12.3046Z" fill="#C19EDD"/>
<path d="M25.8049 12.3967C25.7737 12.4291 25.7441 12.4636 25.7172 12.5008C25.7441 12.4636 25.7737 12.4291 25.8049 12.3967Z" fill="#C19EDD"/>
<path d="M24.7739 21.8204C24.7928 21.8622 24.8146 21.9019 24.839 21.94C24.8149 21.902 24.7928 21.8622 24.7739 21.8204Z" fill="#C19EDD"/>
<path d="M29.4548 20.8131C29.4939 20.817 29.533 20.8181 29.5718 20.8171C29.533 20.8181 29.4941 20.8171 29.4548 20.8131Z" fill="#C19EDD"/>
<path d="M30.0123 20.6977C30.0123 20.6977 30.0144 20.6964 30.0156 20.696C30.0146 20.6967 30.0136 20.6973 30.0123 20.6977Z" fill="#C19EDD"/>
<path d="M30.8085 14.8641C30.804 14.8574 30.7988 14.8512 30.7944 14.8445C30.7988 14.8512 30.804 14.8574 30.8085 14.8641Z" fill="#C19EDD"/>
<path d="M30.2176 20.5427C30.2233 20.537 30.2297 20.532 30.2354 20.5262C30.2297 20.532 30.2236 20.537 30.2176 20.5427Z" fill="#C19EDD"/>
<path d="M30.119 20.6272C30.123 20.6242 30.1271 20.6217 30.1311 20.6184C30.1271 20.6214 30.123 20.6242 30.119 20.6272Z" fill="#C19EDD"/>
<path d="M29.7799 20.7888C29.7824 20.7883 29.7846 20.7878 29.7871 20.7871C29.7848 20.7879 29.7824 20.7881 29.7799 20.7888Z" fill="#C19EDD"/>
<path d="M26.5428 20.458C26.5447 20.459 26.5465 20.4596 26.5484 20.4605C26.5465 20.4596 26.5447 20.459 26.5428 20.458Z" fill="#C19EDD"/>
<path d="M29.648 20.8115C29.6595 20.8103 29.6713 20.8098 29.6826 20.8082C29.6712 20.81 29.6595 20.8103 29.648 20.8115Z" fill="#C19EDD"/>
<path d="M26.6425 20.4998C26.6528 20.5035 26.6638 20.5063 26.6744 20.5096C26.6638 20.506 26.6531 20.5035 26.6425 20.4998Z" fill="#C19EDD"/>
<path d="M26.7483 20.5313C26.7859 20.5397 26.8239 20.5467 26.863 20.5507C26.8239 20.5467 26.7859 20.5399 26.7483 20.5313Z" fill="#C19EDD"/>
<path d="M25.9197 12.296C25.9531 12.2709 25.9883 12.2482 26.0247 12.228C25.9883 12.2482 25.9533 12.2712 25.9197 12.296Z" fill="#C19EDD"/>
<path d="M30.8125 22.8081L30.8107 22.8089C30.8107 22.8089 30.8118 22.8083 30.8125 22.8081Z" fill="#C19EDD"/>
<path d="M24.8531 21.9591C24.8744 21.9907 24.8969 22.0215 24.922 22.0501C24.8972 22.0213 24.8744 21.9909 24.8531 21.9591Z" fill="#C19EDD"/>
<path d="M25.1325 22.2318L26.4487 20.4053L25.1325 22.2318Z" fill="#C19EDD"/>
<path d="M30.9345 22.7507C30.9286 22.7538 30.9229 22.7556 30.9172 22.7585C30.9229 22.7556 30.9289 22.7536 30.9346 22.7505L30.9345 22.7507Z" fill="#C19EDD"/>
<path d="M24.9366 17.2529C24.9355 17.2117 24.9369 17.1707 24.9411 17.1297C24.9452 17.0887 24.952 17.0483 24.9614 17.0081C24.9426 17.0882 24.9343 17.1706 24.9366 17.2529Z" fill="#C19EDD"/>
<path d="M30.7251 14.7539C30.7218 14.7502 30.7183 14.7466 30.715 14.7429C30.7183 14.7466 30.7218 14.7499 30.7251 14.7539Z" fill="#C19EDD"/>
<path d="M34.0879 18.536C34.1873 18.3978 34.2463 18.2384 34.2629 18.0747C34.2794 17.9111 34.2536 17.7431 34.1838 17.588L32.1915 13.1574C32.1726 13.1155 32.1508 13.0758 32.1264 13.0378C32.1506 13.0758 32.1726 13.1155 32.1915 13.1574L34.1838 17.588C34.3235 17.8985 34.287 18.2598 34.0879 18.536L31.2482 22.4765C31.2213 22.5137 31.1918 22.5482 31.1605 22.5806C31.192 22.5483 31.2213 22.5137 31.2482 22.4765L34.0879 18.536Z" fill="#C19EDD"/>
<path d="M30.6258 14.6549C30.6258 14.6549 30.624 14.6532 30.6228 14.6526C30.6237 14.6535 30.6246 14.6543 30.6258 14.6549Z" fill="#C19EDD"/>
<path d="M30.5159 14.5728C30.3928 14.4945 30.2523 14.4425 30.1021 14.4273L27.5102 14.1644C27.3601 14.1492 27.2122 14.1719 27.0757 14.2238L26.152 12.1699C26.11 12.1858 26.0693 12.2049 26.0299 12.2264C26.197 12.134 26.3901 12.0906 26.5865 12.1105L31.4187 12.6006C31.6151 12.6205 31.7955 12.7019 31.9407 12.8259C31.9064 12.7969 31.8702 12.7701 31.8322 12.746L30.5157 14.5727L30.5159 14.5728Z" fill="#C19EDD"/>
<path d="M25.1318 22.2313C25.1318 22.2313 25.1331 22.2324 25.1341 22.2327C25.0954 22.2084 25.0585 22.1812 25.0235 22.1514C25.0578 22.1805 25.0938 22.2072 25.1318 22.2313Z" fill="#C19EDD"/>
<path d="M30.6831 22.8466C30.7225 22.8375 30.7616 22.8266 30.7993 22.8126C30.7614 22.8263 30.7228 22.8377 30.6831 22.8466Z" fill="#C19EDD"/>
<path d="M26.3367 20.3229C26.3367 20.3229 26.3387 20.3246 26.3396 20.3254C26.3387 20.3246 26.3376 20.3237 26.3367 20.3229Z" fill="#C19EDD"/>
<path d="M30.5491 22.8672C30.5862 22.8641 30.6231 22.8598 30.6594 22.8525C30.6231 22.8598 30.5864 22.8644 30.5491 22.8672Z" fill="#C19EDD"/>
<path d="M31.0553 22.6728C31.0854 22.6498 31.1138 22.6242 31.1411 22.5973C31.1138 22.6242 31.0854 22.6496 31.0553 22.6728Z" fill="#C19EDD"/>
<path d="M30.9385 22.7496C30.9748 22.7295 31.0098 22.7065 31.0435 22.6816C31.0098 22.7067 30.9748 22.7295 30.9385 22.7496Z" fill="#C19EDD"/>
<path d="M30.813 22.8079C30.8548 22.792 30.8954 22.7729 30.9346 22.7516C30.8954 22.7732 30.8548 22.792 30.813 22.8079Z" fill="#C19EDD"/>
<path d="M25.1438 22.2395C25.1784 22.2611 25.2147 22.2798 25.252 22.2968C25.2147 22.2801 25.1787 22.2608 25.1438 22.2395Z" fill="#C19EDD"/>
<path d="M24.931 22.0613C24.959 22.0924 24.9884 22.1219 25.0202 22.149C24.9886 22.1217 24.9589 22.0926 24.931 22.0613Z" fill="#C19EDD"/>
<path d="M25.5463 22.3773C25.4995 22.3726 25.4539 22.3638 25.409 22.3524C25.4537 22.3638 25.4995 22.3726 25.5463 22.3773Z" fill="#C19EDD"/>
<path d="M25.2749 22.3067C25.3092 22.3211 25.3445 22.333 25.3804 22.3434C25.3445 22.3332 25.3092 22.3211 25.2749 22.3067Z" fill="#C19EDD"/>
<path d="M30.3784 22.8671C30.4251 22.8718 30.4716 22.8724 30.5173 22.8702C30.4713 22.8724 30.4249 22.8718 30.3784 22.8671Z" fill="#C19EDD"/>
<path d="M26.7461 14.4343C26.7404 14.4401 26.7338 14.445 26.7281 14.451C26.7338 14.4453 26.7402 14.4401 26.7461 14.4343Z" fill="#C19EDD"/>
<path d="M26.2375 20.2232C26.2407 20.227 26.2445 20.2305 26.2478 20.2342C26.2445 20.2305 26.2407 20.227 26.2375 20.2232Z" fill="#C19EDD"/>
<path d="M26.8438 14.35C26.8398 14.353 26.8354 14.3557 26.8314 14.3587C26.8354 14.3557 26.8398 14.353 26.8438 14.35Z" fill="#C19EDD"/>
<path d="M26.155 20.1129C26.1594 20.1199 26.1646 20.126 26.1693 20.1328C26.1646 20.126 26.1594 20.1199 26.155 20.1129Z" fill="#C19EDD"/>
<path d="M32.1114 13.0183C32.09 12.9867 32.0674 12.9559 32.0425 12.9271C32.0674 12.9559 32.0901 12.9865 32.1114 13.0183Z" fill="#C19EDD"/>
<path d="M32.0322 12.9162C32.0041 12.8851 31.9745 12.8556 31.9429 12.8285C31.9745 12.8558 32.0042 12.8849 32.0322 12.9162Z" fill="#C19EDD"/>
<path d="M25.0503 16.7761C25.0107 16.85 24.9813 16.9281 24.9628 17.0083C24.9816 16.9282 25.0109 16.8501 25.0503 16.7761Z" fill="#C19EDD"/>
<path d="M26.9524 14.28C26.9524 14.28 26.9501 14.2813 26.949 14.2819C26.9501 14.2813 26.9514 14.2807 26.9524 14.28Z" fill="#C19EDD"/>
<path d="M30.8129 22.8074L29.8893 20.7537C29.9314 20.7378 29.9723 20.7188 30.0117 20.697C30.0127 20.6964 30.0138 20.6957 30.015 20.6954C30.0516 20.6752 30.0866 20.652 30.1203 20.6272C30.1243 20.6242 30.1284 20.6217 30.1324 20.6184C30.1625 20.5954 30.1909 20.5698 30.2182 20.5429C30.2239 20.5371 30.2302 20.5321 30.2359 20.5264C30.2674 20.494 30.2967 20.4595 30.3236 20.4223L31.847 18.3085C31.9464 18.1705 32.0054 18.0112 32.0219 17.8475L34.262 18.0747C34.2454 18.2384 34.1864 18.3977 34.087 18.5357L31.2474 22.4762C31.2205 22.5134 31.1912 22.548 31.1597 22.5803C31.154 22.5861 31.1476 22.591 31.1419 22.5968C31.1146 22.6235 31.0862 22.6491 31.0561 22.6723C31.0522 22.6754 31.0478 22.6781 31.0438 22.6811C31.0101 22.7059 30.9752 22.7289 30.9388 22.7491C30.9375 22.7497 30.9365 22.7503 30.9352 22.7509C30.9295 22.754 30.9235 22.7561 30.9178 22.7589C30.8836 22.7769 30.8488 22.7935 30.8129 22.8074Z" fill="#C19EDD"/>
<path d="M34.182 17.5878C34.2518 17.743 34.2776 17.9109 34.261 18.0746L32.021 17.8474C32.0376 17.6837 32.0117 17.5158 31.942 17.3606L30.8732 14.9839C30.8543 14.9421 30.8325 14.9024 30.8081 14.8644C30.8037 14.8576 30.7987 14.8515 30.794 14.8447C30.7726 14.813 30.75 14.782 30.7251 14.7534C30.7218 14.7497 30.7183 14.7462 30.715 14.7424C30.687 14.7113 30.6574 14.6815 30.6256 14.6544C30.6247 14.6536 30.6238 14.6528 30.6226 14.6522C30.5883 14.6231 30.5521 14.5963 30.5141 14.572L31.8306 12.7456C31.8686 12.7696 31.9048 12.7964 31.9392 12.8255C31.9403 12.8263 31.9412 12.8271 31.9423 12.828C31.9739 12.8551 32.0035 12.8846 32.0316 12.9157C32.0348 12.9194 32.0386 12.923 32.0419 12.9267C32.0667 12.9553 32.0894 12.9861 32.1108 13.018C32.1152 13.0247 32.1204 13.0309 32.1249 13.0377C32.1493 13.0757 32.1711 13.1154 32.1899 13.1572L34.182 17.5878Z" fill="#C19EDD"/>
<path d="M24.9417 17.1299C24.9376 17.1708 24.9361 17.2118 24.9373 17.2531C24.9409 17.3767 24.9685 17.5003 25.0208 17.6166L26.0896 19.9933C26.1085 20.0352 26.1303 20.0749 26.1547 20.1129C26.1591 20.1197 26.1643 20.1261 26.1689 20.1329C26.1903 20.1645 26.2128 20.1953 26.2379 20.2239C26.2412 20.2276 26.2449 20.2312 26.2482 20.2349C26.2762 20.266 26.3059 20.2955 26.3374 20.3228C26.3383 20.3237 26.3395 20.3245 26.3403 20.3253C26.3747 20.3544 26.4109 20.3812 26.4489 20.4055L25.1326 22.232C25.0949 22.2077 25.0583 22.1814 25.0241 22.1521C25.0229 22.1512 25.022 22.1504 25.0209 22.1496C25.022 22.1504 25.0229 22.1512 25.0241 22.1521C25.0584 22.1811 25.0944 22.2079 25.1323 22.232C25.0944 22.2079 25.0581 22.1811 25.0241 22.1521C25.0229 22.1512 25.022 22.1504 25.0209 22.1496C24.9893 22.1225 24.9597 22.0929 24.9317 22.0619C24.9284 22.0581 24.9246 22.0546 24.9213 22.0508C24.8965 22.0223 24.874 21.9915 24.8524 21.9598C24.8477 21.953 24.8425 21.9469 24.8381 21.9399C24.8139 21.9019 24.7919 21.8621 24.773 21.8203L22.7807 17.3897C22.7285 17.2733 22.7008 17.1497 22.6972 17.0262C22.6961 16.9849 22.6975 16.9439 22.7017 16.9029L24.9417 17.1301L24.9417 17.1299Z" fill="#C19EDD"/>
<path d="M26.0278 12.2264C26.0672 12.2048 26.1079 12.1858 26.1499 12.1698L27.0736 14.2238C27.0316 14.2397 26.9907 14.2587 26.9513 14.2805C26.9502 14.2812 26.9489 14.2818 26.9479 14.2824C26.9115 14.3026 26.8766 14.3256 26.8429 14.3506C26.8389 14.3536 26.8345 14.3563 26.8306 14.3594C26.8005 14.3824 26.7723 14.408 26.7448 14.4347C26.7388 14.4404 26.7325 14.4454 26.7268 14.4513C26.6955 14.4837 26.666 14.5182 26.6391 14.5554L26.3498 14.9569L24.8678 14.1471L25.3681 16.3191L25.1157 16.6692C25.0908 16.7037 25.0684 16.7397 25.0487 16.7764C25.009 16.8503 24.9797 16.9284 24.9611 17.0086C24.9517 17.0488 24.9449 17.0892 24.9408 17.1302L22.7007 16.903C22.7132 16.7803 22.7494 16.6601 22.8086 16.5492C22.8284 16.5122 22.8508 16.4765 22.8757 16.442L25.7156 12.501C25.7425 12.4638 25.7718 12.4293 25.8033 12.3969C25.809 12.3912 25.8154 12.386 25.8213 12.3803C25.8486 12.3536 25.8768 12.3279 25.9071 12.305C25.9111 12.3019 25.9155 12.2992 25.9194 12.2962C25.9531 12.2714 25.9878 12.2484 26.0244 12.2282C26.0257 12.2276 26.0267 12.227 26.028 12.2264L26.0278 12.2264Z" fill="#C19EDD"/>
<path d="M26.4499 20.4046C26.4804 20.4237 26.5117 20.4415 26.5439 20.4574C26.5458 20.4584 26.5476 20.459 26.5495 20.46C26.5797 20.4745 26.6105 20.4876 26.6422 20.4991C26.6525 20.5028 26.6635 20.5056 26.6741 20.5089C26.6986 20.5167 26.7231 20.5246 26.7483 20.5305C26.7859 20.5392 26.8239 20.546 26.863 20.5499L29.4556 20.8129C29.4949 20.8169 29.5337 20.8179 29.5725 20.817C29.5979 20.8164 29.623 20.8136 29.6482 20.8108C29.6597 20.8095 29.6715 20.809 29.6828 20.8075C29.7157 20.8025 29.7482 20.7961 29.7805 20.7879C29.783 20.7874 29.7852 20.7869 29.7877 20.7862C29.8222 20.777 29.8564 20.7664 29.8896 20.7537L29.8901 20.7537L30.8136 22.8074C30.8136 22.8074 30.8123 22.808 30.8118 22.8082C30.8078 22.8097 30.8037 22.8113 30.7997 22.8128C30.7617 22.8267 30.7229 22.8376 30.6835 22.8468C30.6755 22.8487 30.6675 22.8508 30.6593 22.8524C30.623 22.8597 30.5863 22.8642 30.549 22.867C30.5387 22.8679 30.5288 22.8696 30.5183 22.87C30.4723 22.8721 30.4258 22.8716 30.3793 22.8668L25.5469 22.3767C25.5002 22.372 25.4546 22.3632 25.4097 22.3518C25.3997 22.3494 25.3904 22.3457 25.3807 22.3428C25.3447 22.3323 25.3092 22.3205 25.2751 22.306C25.2676 22.3029 25.2606 22.2995 25.2532 22.296C25.216 22.2791 25.1796 22.2603 25.1451 22.2388C25.1419 22.2368 25.1384 22.2347 25.1352 22.2327C25.1345 22.2321 25.1339 22.2316 25.1332 22.2313L26.4494 20.4048L26.4499 20.4046Z" fill="#C19EDD"/>
<path d="M25.1318 22.2315C25.0938 22.2075 25.0575 22.1806 25.0235 22.1516C25.0575 22.1809 25.0941 22.2072 25.132 22.2315L25.1318 22.2315Z" fill="#C19EDD"/>
<path d="M30.8127 22.8079C30.8487 22.794 30.8835 22.7776 30.9177 22.7594C30.9231 22.7565 30.9292 22.7544 30.9346 22.7516C30.8954 22.7732 30.8548 22.792 30.813 22.8079L30.8127 22.8079Z" fill="#C19EDD"/>
<path d="M25.0203 22.1497C25.0203 22.1497 25.0223 22.1513 25.0235 22.1522L25.0203 22.1497Z" fill="#C19EDD"/>
</g>
<path fill-rule="evenodd" clip-rule="evenodd" d="M14.2169 272.767C14.5706 272.768 14.8464 273.027 14.9647 273.361L15.0058 273.399C15.151 273.868 15.255 274.299 15.5955 274.62C15.9677 274.86 16.7088 275.225 18.0675 275.065C19.9257 274.821 21.4305 275.352 22.5463 275.849C23.0736 276.125 23.4928 276.409 23.7569 276.658C23.9472 276.726 24.0529 276.826 24.1292 276.897L24.2524 277.014L24.2642 277.025C26.5356 279.165 26.6582 282.716 24.5013 285.005C22.3445 287.295 18.793 287.384 16.5216 285.244C15.3888 284.177 14.5687 283.072 14.0563 282.146C13.7477 281.744 13.5908 281.264 13.4549 280.914C13.4364 280.675 13.3743 280.506 13.3851 280.294C13.396 280.083 13.3951 279.861 13.5693 279.581C13.6447 279.431 13.8458 279.288 14.1057 279.2C14.3102 279.171 14.5122 279.251 14.7319 279.347C14.8845 279.491 15.1569 279.637 15.4964 279.735C15.1032 279.364 14.6923 278.977 14.3862 278.467C13.3959 277.202 12.7893 275.411 13.43 273.355C13.5397 273.015 13.869 272.771 14.2169 272.767ZM23.1581 278.199C24.778 279.725 24.876 282.255 23.3275 283.899C21.779 285.543 19.2476 285.596 17.6277 284.07C16.624 283.124 15.8836 282.205 15.445 281.459C15.5825 281.478 15.7199 281.497 15.8574 281.516C16.5917 281.653 17.6705 281.672 18.3342 280.968C18.5554 280.733 18.6333 280.474 18.5418 280.277C18.5057 280.021 18.3673 279.78 18.136 279.673C17.4477 279.357 16.4097 278.601 15.6601 277.562C15.3221 277.133 15.1124 276.603 14.932 276.1C15.6941 276.597 16.7621 276.827 18.2407 276.669C19.6957 276.488 20.9222 276.868 21.8301 277.28C22.2317 277.548 22.5804 277.765 22.847 277.906L23.1581 278.199Z" fill="#C19EDD"/>
<path fill-rule="evenodd" clip-rule="evenodd" d="M108.598 466.573C106.761 465.259 105.747 463.11 105.915 460.917C108.032 460.327 110.336 460.919 111.936 462.483L114.339 464.79L114.748 465.349L111.974 468.708L111.35 468.396L108.598 466.573ZM110.467 469.611L107.745 467.786C107.745 467.786 107.7 467.715 107.686 467.717C107.969 468.588 108.58 469.652 109.889 470.945L110.467 469.611ZM105.967 466.09C104.746 464.488 104.179 462.369 104.48 460.312C104.524 460.007 104.725 459.762 105.014 459.657C106.982 458.933 109.13 459.09 110.959 459.955C111.301 459.845 111.754 459.799 112.304 459.819C113.574 459.765 115.321 460.188 117.396 461.629C118.236 462.219 118.171 463.426 117.399 464.03L116.419 464.73C116.598 465.087 116.569 465.465 116.339 465.713L116.413 465.631L116.993 466.097C117.64 466.632 117.738 467.598 117.212 468.251L115.313 470.545C114.794 471.198 113.85 471.294 113.203 470.759L112.623 470.293L112.704 470.209C112.459 470.459 112.081 470.573 111.739 470.457L111.235 471.559C110.828 472.426 109.669 472.769 108.903 472.021C107.043 470.333 106.297 468.683 106.058 467.431C105.953 466.917 105.945 466.467 105.967 466.09ZM113.572 469.146L114.152 469.612L116.044 467.244L115.464 466.778L113.572 469.146ZM115.355 463.637L116.483 462.847C115.011 461.796 113.807 461.392 112.922 461.332C112.937 461.33 112.952 461.329 112.982 461.401L115.355 463.637Z" fill="#C19EDD"/>
<ellipse cx="107.85" cy="462.512" rx="1.34425" ry="1.34391" transform="rotate(-95.7908 107.85 462.512)" fill="#C19EDD"/>
<path fill-rule="evenodd" clip-rule="evenodd" d="M118.07 468.288C117.752 468.199 117.427 468.357 117.33 468.704C117.232 469.051 117.428 469.356 117.746 469.445C118.706 469.715 119.269 470.684 118.994 471.668C118.896 472.015 119.092 472.319 119.41 472.408C119.728 472.498 120.053 472.339 120.15 471.992C120.604 470.372 119.666 468.736 118.07 468.288Z" fill="#C19EDD"/>
<path fill-rule="evenodd" clip-rule="evenodd" d="M119.658 472.38C119.945 472.231 120.07 471.9 119.907 471.588C119.744 471.275 119.402 471.189 119.115 471.339C118.251 471.789 117.2 471.476 116.738 470.591C116.575 470.278 116.233 470.192 115.946 470.342C115.66 470.491 115.534 470.822 115.697 471.134C116.458 472.593 118.221 473.13 119.658 472.38Z" fill="#C19EDD"/>
<path d="M110.354 464.829C110.642 464.476 111.164 464.423 111.517 464.711L113.043 465.933C113.396 466.221 113.453 466.782 113.165 467.135C112.869 467.489 112.347 467.541 111.994 467.253L110.476 466.031C110.123 465.743 110.066 465.182 110.354 464.829Z" fill="#C19EDD"/>
<g clip-path="url(#clip5_5859_12534)">
<path d="M301.303 426.176C301.392 426.279 301.471 426.39 301.548 426.504C301.472 426.389 301.392 426.28 301.303 426.176Z" fill="#C19EDD"/>
<path d="M301.599 426.575C301.684 426.712 301.762 426.855 301.828 427.005C301.762 426.855 301.684 426.712 301.599 426.575Z" fill="#C19EDD"/>
<path d="M298.157 460.378C298.059 460.511 297.953 460.633 297.839 460.748C297.952 460.633 298.059 460.511 298.157 460.378Z" fill="#C19EDD"/>
<path d="M282.503 453.339C282.363 453.324 282.225 453.298 282.09 453.266C282.225 453.298 282.362 453.324 282.503 453.339Z" fill="#C19EDD"/>
<path d="M280.638 452.516C280.638 452.516 280.631 452.51 280.627 452.507C280.63 452.51 280.634 452.513 280.638 452.516Z" fill="#C19EDD"/>
<path d="M282.209 431.473C282.23 431.452 282.253 431.435 282.274 431.414C282.253 431.435 282.23 431.452 282.209 431.473Z" fill="#C19EDD"/>
<path d="M280.029 451.82C280.013 451.796 279.995 451.774 279.979 451.749C279.995 451.774 280.012 451.796 280.029 451.82Z" fill="#C19EDD"/>
<path d="M280.31 452.189C280.298 452.175 280.286 452.163 280.274 452.149C280.286 452.162 280.298 452.175 280.31 452.189Z" fill="#C19EDD"/>
<path d="M281.384 453.009C281.375 453.005 281.368 453.002 281.36 452.997C281.367 453.002 281.375 453.004 281.384 453.009Z" fill="#C19EDD"/>
<path d="M292.974 454.277C292.967 454.278 292.96 454.279 292.952 454.281C292.96 454.279 292.967 454.278 292.974 454.277Z" fill="#C19EDD"/>
<path d="M281.829 453.188C281.79 453.175 281.749 453.164 281.71 453.151C281.749 453.165 281.79 453.175 281.829 453.188Z" fill="#C19EDD"/>
<path d="M292.597 454.349C292.558 454.355 292.517 454.356 292.478 454.36C292.517 454.355 292.557 454.354 292.597 454.349Z" fill="#C19EDD"/>
<path d="M292.201 454.38C292.063 454.382 291.925 454.378 291.785 454.362C291.925 454.378 292.063 454.382 292.201 454.38Z" fill="#C19EDD"/>
<path d="M301.268 426.135C301.169 426.022 301.063 425.916 300.951 425.818C301.063 425.916 301.168 426.023 301.268 426.135Z" fill="#C19EDD"/>
<path d="M276.248 459.313L276.253 459.317C276.253 459.317 276.25 459.314 276.248 459.313Z" fill="#C19EDD"/>
<path d="M297.774 460.808C297.675 460.903 297.573 460.994 297.464 461.075C297.573 460.993 297.675 460.904 297.774 460.808Z" fill="#C19EDD"/>
<path d="M296.59 461.552L293.344 454.163L296.59 461.552Z" fill="#C19EDD"/>
<path d="M275.864 459.022C275.882 459.038 275.901 459.048 275.919 459.063C275.901 459.048 275.881 459.037 275.864 459.022L275.864 459.022Z" fill="#C19EDD"/>
<path d="M301.001 444.246C301.036 444.103 301.061 443.958 301.077 443.811C301.094 443.664 301.1 443.517 301.097 443.369C301.103 443.665 301.071 443.96 301.001 444.246Z" fill="#C19EDD"/>
<path d="M282.583 431.147C282.598 431.136 282.613 431.127 282.627 431.116C282.613 431.127 282.598 431.136 282.583 431.147Z" fill="#C19EDD"/>
<path d="M267.973 441.885C267.728 441.326 267.64 440.723 267.705 440.137C267.769 439.551 267.986 438.981 268.346 438.49L278.647 424.453C278.744 424.32 278.85 424.198 278.964 424.083C278.851 424.198 278.744 424.32 278.647 424.453L268.346 438.49C267.624 439.473 267.482 440.767 267.973 441.885L274.975 457.826C275.042 457.977 275.12 458.12 275.205 458.257C275.119 458.12 275.042 457.977 274.975 457.826L267.973 441.885Z" fill="#C19EDD"/>
<path d="M283.006 430.875C283.006 430.875 283.013 430.871 283.018 430.869C283.014 430.872 283.01 430.874 283.006 430.875Z" fill="#C19EDD"/>
<path d="M283.46 430.67C283.95 430.488 284.482 430.411 285.019 430.47L294.301 431.492C294.838 431.551 295.34 431.742 295.779 432.026L300.555 425.519C300.69 425.607 300.818 425.704 300.94 425.809C300.424 425.36 299.78 425.063 299.076 424.985L281.773 423.08C281.069 423.003 280.376 423.152 279.774 423.478C279.916 423.402 280.063 423.336 280.214 423.28L283.461 430.67L283.46 430.67Z" fill="#C19EDD"/>
<path d="M296.591 461.553C296.591 461.553 296.585 461.555 296.582 461.556C296.735 461.499 296.885 461.432 297.03 461.354C296.888 461.43 296.742 461.497 296.591 461.553Z" fill="#C19EDD"/>
<path d="M276.676 459.548C276.545 459.486 276.416 459.419 276.294 459.342C276.417 459.418 276.544 459.487 276.676 459.548Z" fill="#C19EDD"/>
<path d="M293.797 453.956C293.797 453.956 293.788 453.961 293.785 453.963C293.788 453.961 293.793 453.959 293.797 453.956Z" fill="#C19EDD"/>
<path d="M277.132 459.72C277.004 459.681 276.878 459.639 276.756 459.586C276.878 459.639 277.003 459.682 277.132 459.72Z" fill="#C19EDD"/>
<path d="M275.497 458.657C275.409 458.553 275.329 458.442 275.253 458.327C275.329 458.442 275.409 458.552 275.497 458.657Z" fill="#C19EDD"/>
<path d="M275.852 459.014C275.74 458.916 275.635 458.809 275.535 458.696C275.635 458.81 275.74 458.916 275.852 459.014Z" fill="#C19EDD"/>
<path d="M276.25 459.312C276.115 459.225 275.987 459.128 275.866 459.024C275.987 459.129 276.115 459.225 276.25 459.312Z" fill="#C19EDD"/>
<path d="M296.542 461.57C296.405 461.62 296.264 461.659 296.12 461.69C296.263 461.659 296.404 461.619 296.542 461.57Z" fill="#C19EDD"/>
<path d="M297.421 461.106C297.299 461.194 297.174 461.275 297.042 461.346C297.173 461.274 297.299 461.195 297.421 461.106Z" fill="#C19EDD"/>
<path d="M295.031 461.752C295.198 461.77 295.365 461.774 295.531 461.768C295.366 461.774 295.198 461.77 295.031 461.752Z" fill="#C19EDD"/>
<path d="M296.037 461.708C295.906 461.733 295.774 461.748 295.64 461.758C295.773 461.749 295.906 461.733 296.037 461.708Z" fill="#C19EDD"/>
<path d="M277.727 459.846C277.56 459.828 277.397 459.795 277.238 459.753C277.397 459.795 277.561 459.828 277.727 459.846Z" fill="#C19EDD"/>
<path d="M296.773 433.011C296.789 433.035 296.808 433.057 296.824 433.083C296.808 433.058 296.79 433.035 296.773 433.011Z" fill="#C19EDD"/>
<path d="M294.219 453.685C294.205 453.696 294.189 453.705 294.175 453.716C294.189 453.705 294.205 453.696 294.219 453.685Z" fill="#C19EDD"/>
<path d="M296.491 432.643C296.503 432.656 296.516 432.669 296.528 432.683C296.516 432.669 296.503 432.656 296.491 432.643Z" fill="#C19EDD"/>
<path d="M294.593 453.358C294.573 453.38 294.55 453.397 294.528 453.418C294.55 453.397 294.573 453.38 294.593 453.358Z" fill="#C19EDD"/>
<path d="M279.027 424.024C279.126 423.93 279.228 423.839 279.337 423.756C279.228 423.839 279.126 423.929 279.027 424.024Z" fill="#C19EDD"/>
<path d="M279.382 423.726C279.504 423.638 279.63 423.557 279.761 423.485C279.63 423.558 279.504 423.637 279.382 423.726Z" fill="#C19EDD"/>
<path d="M300.964 442.49C301.047 442.779 301.092 443.074 301.097 443.369C301.091 443.074 301.047 442.779 300.964 442.49Z" fill="#C19EDD"/>
<path d="M296.165 432.316C296.165 432.316 296.172 432.322 296.175 432.325C296.172 432.322 296.168 432.319 296.165 432.316Z" fill="#C19EDD"/>
<path d="M276.25 459.313L281.024 452.806C280.889 452.719 280.76 452.622 280.638 452.516C280.635 452.513 280.632 452.51 280.627 452.508C280.514 452.409 280.409 452.302 280.31 452.189C280.298 452.176 280.285 452.164 280.274 452.15C280.185 452.046 280.105 451.935 280.03 451.821C280.014 451.796 279.995 451.774 279.98 451.75C279.893 451.612 279.817 451.469 279.75 451.319L275.994 442.767C275.748 442.209 275.661 441.606 275.725 441.02L267.704 440.137C267.64 440.723 267.727 441.326 267.972 441.884L274.975 457.826C275.041 457.976 275.118 458.12 275.204 458.257C275.22 458.281 275.238 458.303 275.254 458.328C275.33 458.442 275.41 458.553 275.498 458.657C275.51 458.67 275.523 458.683 275.535 458.697C275.634 458.809 275.74 458.916 275.852 459.014C275.856 459.017 275.859 459.02 275.863 459.023C275.881 459.038 275.9 459.05 275.918 459.064C276.025 459.152 276.134 459.237 276.25 459.313Z" fill="#C19EDD"/>
<path d="M268.346 438.49C267.985 438.981 267.769 439.551 267.704 440.137L275.726 441.02C275.79 440.434 276.007 439.865 276.367 439.373L281.893 431.843C281.99 431.711 282.097 431.588 282.21 431.473C282.231 431.453 282.253 431.435 282.275 431.415C282.373 431.32 282.476 431.228 282.584 431.146C282.599 431.136 282.614 431.126 282.628 431.115C282.749 431.027 282.876 430.945 283.007 430.874C283.011 430.872 283.015 430.87 283.019 430.868C283.161 430.792 283.309 430.726 283.46 430.669L280.213 423.279C280.062 423.335 279.915 423.402 279.773 423.478C279.768 423.48 279.764 423.482 279.76 423.485C279.629 423.556 279.503 423.637 279.381 423.725C279.367 423.736 279.351 423.745 279.337 423.756C279.228 423.838 279.126 423.928 279.027 424.024C279.006 424.045 278.983 424.062 278.963 424.083C278.849 424.198 278.743 424.32 278.645 424.453L268.346 438.49Z" fill="#C19EDD"/>
<path d="M301.077 443.811C301.061 443.958 301.036 444.103 301.001 444.247C300.896 444.677 300.706 445.09 300.436 445.458L294.91 452.988C294.813 453.12 294.707 453.243 294.593 453.358C294.572 453.379 294.549 453.397 294.528 453.417C294.429 453.512 294.327 453.603 294.218 453.685C294.204 453.695 294.188 453.705 294.173 453.716C294.052 453.804 293.926 453.885 293.795 453.957C293.791 453.959 293.786 453.961 293.783 453.964C293.641 454.04 293.494 454.106 293.342 454.163L296.588 461.553C296.739 461.496 296.887 461.431 297.029 461.354C297.033 461.352 297.037 461.349 297.042 461.347C297.037 461.349 297.033 461.352 297.029 461.354C296.887 461.43 296.74 461.497 296.589 461.553C296.74 461.497 296.888 461.43 297.029 461.354C297.033 461.352 297.037 461.349 297.042 461.347C297.173 461.276 297.299 461.195 297.42 461.107C297.434 461.096 297.45 461.087 297.464 461.076C297.573 460.994 297.675 460.903 297.774 460.809C297.796 460.788 297.819 460.771 297.839 460.749C297.952 460.634 298.059 460.512 298.157 460.379L308.457 446.342C308.727 445.974 308.917 445.561 309.022 445.131C309.057 444.987 309.082 444.842 309.099 444.695L301.077 443.812L301.077 443.811Z" fill="#C19EDD"/>
<path d="M300.939 425.809C300.817 425.704 300.689 425.607 300.553 425.519L295.778 432.026C295.913 432.114 296.042 432.211 296.164 432.317C296.167 432.32 296.171 432.323 296.175 432.326C296.287 432.424 296.392 432.531 296.492 432.644C296.503 432.657 296.517 432.67 296.528 432.684C296.617 432.787 296.696 432.898 296.773 433.012C296.789 433.037 296.808 433.059 296.823 433.084C296.909 433.221 296.986 433.364 297.053 433.515L297.766 435.139L303.567 433.411L300.187 440.65L300.809 442.066C300.871 442.206 300.922 442.349 300.964 442.492C301.048 442.781 301.092 443.077 301.097 443.372C301.1 443.52 301.094 443.667 301.077 443.813L309.099 444.696C309.147 444.257 309.11 443.808 308.986 443.375C308.944 443.231 308.892 443.089 308.831 442.949L301.827 427.006C301.761 426.855 301.684 426.712 301.598 426.575C301.582 426.551 301.564 426.528 301.547 426.503C301.472 426.389 301.392 426.278 301.303 426.175C301.292 426.161 301.278 426.149 301.266 426.135C301.167 426.023 301.063 425.916 300.949 425.818C300.945 425.815 300.942 425.812 300.938 425.809L300.939 425.809Z" fill="#C19EDD"/>
<path d="M293.343 454.163C293.222 454.207 293.099 454.246 292.974 454.277C292.966 454.279 292.959 454.28 292.952 454.282C292.836 454.31 292.718 454.333 292.598 454.35C292.559 454.355 292.519 454.357 292.479 454.36C292.387 454.369 292.295 454.378 292.202 454.38C292.064 454.383 291.926 454.378 291.786 454.363L282.502 453.34C282.362 453.325 282.225 453.299 282.089 453.267C282.001 453.246 281.915 453.217 281.829 453.188C281.789 453.175 281.748 453.165 281.71 453.151C281.598 453.109 281.489 453.062 281.382 453.009C281.374 453.006 281.366 453.002 281.358 452.998C281.244 452.94 281.132 452.877 281.025 452.807L281.024 452.807L276.249 459.313C276.249 459.313 276.253 459.316 276.255 459.318C276.268 459.326 276.281 459.334 276.294 459.343C276.416 459.42 276.544 459.487 276.676 459.549C276.702 459.562 276.729 459.575 276.756 459.587C276.878 459.639 277.003 459.683 277.132 459.721C277.167 459.732 277.201 459.745 277.237 459.754C277.397 459.796 277.56 459.829 277.727 459.847L295.031 461.753C295.199 461.771 295.365 461.775 295.531 461.768C295.568 461.767 295.603 461.761 295.639 461.758C295.773 461.749 295.907 461.734 296.037 461.709C296.065 461.703 296.092 461.696 296.121 461.69C296.264 461.659 296.406 461.62 296.543 461.57C296.556 461.566 296.569 461.561 296.582 461.556C296.585 461.555 296.588 461.554 296.59 461.553L293.344 454.164L293.343 454.163Z" fill="#C19EDD"/>
<path d="M296.589 461.553C296.741 461.497 296.888 461.43 297.029 461.354C296.888 461.431 296.74 461.496 296.589 461.553L296.589 461.553Z" fill="#C19EDD"/>
<path d="M276.251 459.313C276.135 459.237 276.026 459.153 275.919 459.064C275.902 459.05 275.883 459.038 275.866 459.024C275.987 459.129 276.115 459.225 276.25 459.312L276.251 459.313Z" fill="#C19EDD"/>
<path d="M297.043 461.346C297.043 461.346 297.035 461.351 297.03 461.353L297.043 461.346Z" fill="#C19EDD"/>
</g>
<g clip-path="url(#clip6_5859_12534)">
<path d="M376.395 243.331C376.427 243.391 376.464 243.447 376.503 243.503C376.464 243.448 376.428 243.391 376.395 243.331Z" fill="#C19EDD"/>
<path d="M376.529 243.54C376.577 243.604 376.629 243.666 376.686 243.724C376.629 243.666 376.577 243.604 376.529 243.54Z" fill="#C19EDD"/>
<path d="M382.289 235.451C382.276 235.457 382.263 235.464 382.25 235.47C382.263 235.464 382.276 235.457 382.289 235.451Z" fill="#C19EDD"/>
<path d="M376.385 243.308C376.35 243.242 376.32 243.173 376.295 243.104C376.32 243.173 376.351 243.241 376.385 243.308Z" fill="#C19EDD"/>
<path d="M384.812 246.447C384.739 246.437 384.667 246.423 384.596 246.404C384.526 246.385 384.456 246.361 384.388 246.333C384.524 246.389 384.666 246.427 384.812 246.447Z" fill="#C19EDD"/>
<path d="M382.07 235.566C382.063 235.57 382.056 235.576 382.048 235.58C382.056 235.576 382.062 235.57 382.07 235.566Z" fill="#C19EDD"/>
<path d="M389.673 230.74C389.459 230.525 389.196 230.376 388.913 230.301C388.63 230.225 388.328 230.222 388.035 230.301L379.684 232.538C379.605 232.559 379.529 232.586 379.455 232.618C379.529 232.586 379.605 232.559 379.684 232.538L388.035 230.301C388.621 230.144 389.245 230.311 389.673 230.74L395.787 236.851C395.845 236.909 395.897 236.971 395.945 237.035C395.897 236.971 395.845 236.909 395.787 236.851L389.673 230.74Z" fill="#C19EDD"/>
<path d="M381.868 235.712C381.868 235.712 381.864 235.715 381.863 235.716C381.865 235.715 381.866 235.714 381.868 235.712Z" fill="#C19EDD"/>
<path d="M381.693 235.884C381.52 236.078 381.389 236.31 381.319 236.57L380.119 241.048C380.049 241.308 380.047 241.574 380.1 241.828L376.228 242.866C376.244 242.944 376.266 243.021 376.292 243.096C376.178 242.776 376.156 242.425 376.247 242.085L378.485 233.736C378.576 233.397 378.77 233.103 379.03 232.883C378.969 232.935 378.912 232.991 378.858 233.051L381.693 235.885L381.693 235.884Z" fill="#C19EDD"/>
<path d="M380.375 242.467C380.384 242.478 380.391 242.491 380.399 242.503C380.391 242.491 380.384 242.479 380.375 242.467Z" fill="#C19EDD"/>
<path d="M380.255 242.27C380.26 242.278 380.263 242.287 380.267 242.294C380.263 242.287 380.26 242.278 380.255 242.27Z" fill="#C19EDD"/>
<path d="M379.416 232.637C379.354 232.665 379.294 232.696 379.236 232.732C379.294 232.696 379.354 232.665 379.416 232.637Z" fill="#C19EDD"/>
<path d="M379.213 232.747C379.151 232.788 379.09 232.831 379.034 232.879C379.091 232.831 379.15 232.787 379.213 232.747Z" fill="#C19EDD"/>
<path d="M384.007 246.112C384.125 246.203 384.254 246.277 384.39 246.332C384.254 246.277 384.125 246.203 384.007 246.112Z" fill="#C19EDD"/>
<path d="M380.164 242.059C380.164 242.059 380.166 242.064 380.167 242.066C380.166 242.064 380.165 242.061 380.164 242.059Z" fill="#C19EDD"/>
<path d="M396.244 237.709L392.373 238.746C392.357 238.668 392.335 238.59 392.308 238.515C392.307 238.513 392.306 238.511 392.306 238.508C392.281 238.438 392.25 238.37 392.216 238.304C392.212 238.296 392.209 238.288 392.204 238.28C392.173 238.221 392.136 238.164 392.096 238.108C392.088 238.096 392.081 238.084 392.072 238.072C392.024 238.008 391.972 237.946 391.914 237.888L388.635 234.61C388.421 234.396 388.158 234.247 387.875 234.171L388.912 230.301C389.195 230.376 389.458 230.525 389.672 230.739L395.786 236.851C395.844 236.909 395.896 236.97 395.944 237.035C395.952 237.047 395.959 237.059 395.968 237.071C396.007 237.126 396.044 237.184 396.076 237.243C396.08 237.251 396.084 237.259 396.088 237.267C396.122 237.333 396.152 237.401 396.177 237.471C396.178 237.473 396.179 237.475 396.18 237.478C396.183 237.489 396.185 237.5 396.189 237.511C396.21 237.576 396.23 237.642 396.244 237.709Z" fill="#C19EDD"/>
<path d="M388.035 230.301C388.328 230.223 388.63 230.225 388.913 230.301L387.876 234.171C387.593 234.095 387.29 234.093 386.998 234.171L382.518 235.371C382.439 235.393 382.363 235.42 382.289 235.452C382.276 235.457 382.264 235.464 382.251 235.471C382.189 235.499 382.128 235.53 382.071 235.566C382.063 235.57 382.056 235.576 382.049 235.58C381.986 235.621 381.925 235.664 381.869 235.712C381.867 235.714 381.865 235.715 381.864 235.717C381.803 235.769 381.746 235.825 381.692 235.885L378.858 233.051C378.912 232.991 378.969 232.935 379.03 232.883C379.032 232.882 379.033 232.88 379.035 232.879C379.092 232.831 379.152 232.787 379.215 232.747C379.222 232.742 379.229 232.736 379.237 232.732C379.294 232.696 379.355 232.665 379.417 232.637C379.43 232.631 379.442 232.623 379.455 232.618C379.529 232.586 379.605 232.559 379.684 232.537L388.035 230.301Z" fill="#C19EDD"/>
<path d="M384.598 246.404C384.668 246.423 384.74 246.437 384.813 246.447C385.031 246.476 385.256 246.462 385.475 246.404L389.955 245.204C390.034 245.182 390.11 245.155 390.184 245.123C390.197 245.118 390.21 245.11 390.223 245.104C390.285 245.075 390.345 245.045 390.402 245.009C390.41 245.004 390.417 244.998 390.425 244.994C390.487 244.953 390.548 244.91 390.605 244.862C390.606 244.861 390.608 244.859 390.61 244.858C390.671 244.806 390.728 244.75 390.782 244.69L393.616 247.523C393.562 247.582 393.505 247.639 393.444 247.691C393.442 247.693 393.441 247.694 393.439 247.696C393.441 247.694 393.442 247.693 393.444 247.691C393.505 247.639 393.562 247.583 393.615 247.523C393.562 247.583 393.505 247.639 393.444 247.691C393.442 247.693 393.441 247.694 393.439 247.696C393.382 247.744 393.322 247.787 393.259 247.828C393.252 247.832 393.245 247.838 393.237 247.843C393.18 247.878 393.119 247.909 393.058 247.938C393.044 247.944 393.032 247.951 393.018 247.957C392.945 247.989 392.869 248.016 392.79 248.037L384.438 250.274C384.219 250.333 383.994 250.346 383.776 250.317C383.703 250.308 383.631 250.293 383.561 250.274L384.598 246.404L384.598 246.404Z" fill="#C19EDD"/>
<path d="M376.292 243.097C376.265 243.021 376.243 242.944 376.227 242.866L380.099 241.829C380.115 241.907 380.137 241.984 380.164 242.06C380.165 242.062 380.165 242.064 380.166 242.066C380.191 242.136 380.222 242.204 380.256 242.27C380.26 242.278 380.264 242.287 380.268 242.294C380.3 242.354 380.337 242.411 380.376 242.467C380.384 242.479 380.391 242.491 380.4 242.503C380.448 242.567 380.5 242.629 380.558 242.687L381.181 243.309L379.336 245.682L383.294 245.422L383.837 245.965C383.891 246.019 383.948 246.069 384.006 246.114C384.125 246.205 384.254 246.278 384.389 246.334C384.457 246.362 384.527 246.385 384.597 246.404L383.56 250.275C383.348 250.218 383.147 250.12 382.969 249.984C382.91 249.939 382.853 249.89 382.8 249.836L376.686 243.723C376.628 243.666 376.575 243.604 376.528 243.54C376.519 243.528 376.512 243.515 376.503 243.503C376.464 243.448 376.427 243.391 376.396 243.331C376.391 243.323 376.388 243.315 376.384 243.307C376.35 243.241 376.319 243.173 376.294 243.103C376.293 243.101 376.293 243.099 376.292 243.096L376.292 243.097Z" fill="#C19EDD"/>
</g>
<g clip-path="url(#clip7_5859_12534)">
<path d="M383.157 8.89087C383.168 8.92717 383.182 8.9626 383.197 8.99782C383.182 8.96271 383.168 8.92728 383.157 8.89087Z" fill="#C19EDD"/>
<path d="M383.206 9.02075C383.225 9.0615 383.247 9.10138 383.272 9.13975C383.247 9.10138 383.225 9.0615 383.206 9.02075Z" fill="#C19EDD"/>
<path d="M387.293 5.22091C387.285 5.22263 387.278 5.22533 387.27 5.22706C387.278 5.22533 387.285 5.22263 387.293 5.22091Z" fill="#C19EDD"/>
<path d="M383.155 8.8766C383.143 8.8364 383.134 8.79544 383.128 8.75427C383.134 8.79544 383.143 8.83629 383.155 8.8766Z" fill="#C19EDD"/>
<path d="M387.437 11.5581C387.398 11.5446 387.36 11.5286 387.323 11.5102C387.287 11.4917 387.251 11.471 387.217 11.4479C387.285 11.494 387.359 11.5311 387.437 11.5581Z" fill="#C19EDD"/>
<path d="M387.159 5.25945C387.155 5.26118 387.15 5.26324 387.145 5.26497C387.15 5.26324 387.154 5.26107 387.159 5.25945Z" fill="#C19EDD"/>
<path d="M391.891 3.46374C391.797 3.32164 391.669 3.20983 391.522 3.13614C391.375 3.06244 391.209 3.02686 391.039 3.03688L386.19 3.32302C386.144 3.32579 386.099 3.33203 386.055 3.34131C386.099 3.33225 386.144 3.32579 386.19 3.32302L391.039 3.03688C391.379 3.01673 391.704 3.17943 391.891 3.46374L394.564 7.51923C394.589 7.55761 394.611 7.59749 394.63 7.63824C394.611 7.59727 394.589 7.55761 394.564 7.51923L391.891 3.46374Z" fill="#C19EDD"/>
<path d="M387.032 5.31691C387.032 5.31691 387.03 5.31799 387.029 5.31886C387.03 5.31831 387.031 5.31777 387.032 5.31691Z" fill="#C19EDD"/>
<path d="M386.916 5.39248C386.799 5.47967 386.7 5.59256 386.633 5.72746L385.465 8.05635C385.397 8.19126 385.366 8.33757 385.366 8.48359L383.118 8.61638C383.118 8.66134 383.121 8.70608 383.127 8.7506C383.1 8.56155 383.128 8.36562 383.217 8.18914L385.394 3.84729C385.482 3.67081 385.622 3.5311 385.79 3.43951C385.75 3.46125 385.713 3.48558 385.677 3.51252L386.916 5.39269L386.916 5.39248Z" fill="#C19EDD"/>
<path d="M385.446 8.86536C385.449 8.87273 385.451 8.88064 385.455 8.88811C385.452 8.88074 385.449 8.87294 385.446 8.86536Z" fill="#C19EDD"/>
<path d="M385.401 8.74438C385.403 8.74915 385.404 8.75424 385.405 8.75901C385.404 8.75424 385.403 8.74915 385.401 8.74438Z" fill="#C19EDD"/>
<path d="M386.031 3.347C385.994 3.35574 385.957 3.36599 385.921 3.37896C385.957 3.36599 385.994 3.35563 386.031 3.347Z" fill="#C19EDD"/>
<path d="M385.906 3.38552C385.867 3.40065 385.829 3.41783 385.793 3.43773C385.829 3.41794 385.867 3.40054 385.906 3.38552Z" fill="#C19EDD"/>
<path d="M387.031 11.2826C387.085 11.3459 387.148 11.4011 387.216 11.447C387.148 11.4009 387.086 11.3457 387.031 11.2826Z" fill="#C19EDD"/>
<path d="M385.375 8.6178C385.375 8.6178 385.375 8.6204 385.375 8.62159C385.375 8.6204 385.375 8.61899 385.375 8.6178Z" fill="#C19EDD"/>
<path d="M394.717 8.04323L392.47 8.17591C392.47 8.13096 392.466 8.086 392.46 8.04137C392.46 8.04018 392.46 8.03898 392.46 8.03768C392.454 7.9963 392.445 7.95535 392.433 7.91504C392.432 7.91027 392.431 7.9055 392.43 7.90063C392.419 7.86433 392.405 7.82868 392.389 7.79357C392.386 7.7862 392.384 7.7785 392.38 7.77113C392.361 7.73017 392.339 7.6905 392.314 7.65213L390.881 5.47659C390.787 5.3346 390.659 5.22279 390.512 5.1491L391.521 3.13635C391.668 3.21005 391.796 3.32185 391.89 3.46385L394.562 7.51934C394.588 7.55771 394.61 7.59738 394.629 7.63834C394.632 7.64571 394.634 7.65341 394.638 7.66078C394.653 7.69578 394.667 7.73143 394.678 7.76784C394.679 7.7726 394.68 7.7777 394.682 7.78247C394.693 7.82277 394.702 7.86362 394.708 7.90479C394.708 7.90619 394.708 7.90739 394.708 7.90879C394.709 7.91519 394.709 7.92158 394.709 7.92786C394.714 7.96621 394.717 8.00467 394.717 8.04323Z" fill="#C19EDD"/>
<path d="M391.037 3.03714C391.207 3.02712 391.373 3.0627 391.52 3.1364L390.511 5.14914C390.364 5.07545 390.198 5.03986 390.028 5.04988L387.427 5.20345C387.381 5.20622 387.336 5.21246 387.292 5.22174C387.284 5.22346 387.276 5.22595 387.268 5.22789C387.231 5.23663 387.194 5.24677 387.159 5.25984C387.154 5.26157 387.149 5.26363 387.145 5.26536C387.106 5.28048 387.067 5.29756 387.031 5.31767C387.03 5.31821 387.029 5.31875 387.028 5.31962C386.988 5.34135 386.95 5.36569 386.914 5.39252L385.675 3.51246C385.711 3.48552 385.749 3.46118 385.789 3.43945C385.79 3.43869 385.791 3.43815 385.792 3.43739C385.829 3.4175 385.867 3.40031 385.906 3.38518C385.91 3.38345 385.915 3.38118 385.92 3.37946C385.955 3.36638 385.992 3.35613 386.03 3.3475C386.037 3.34577 386.045 3.34307 386.053 3.34135C386.097 3.33207 386.142 3.32584 386.188 3.32306L391.037 3.03714Z" fill="#C19EDD"/>
<path d="M387.323 11.5095C387.36 11.5279 387.397 11.5439 387.436 11.5574C387.553 11.5981 387.678 11.6162 387.806 11.6087L390.407 11.4551C390.453 11.4524 390.498 11.4461 390.542 11.4369C390.55 11.4351 390.558 11.4325 390.566 11.4306C390.603 11.4219 390.64 11.4118 390.675 11.3985C390.68 11.3968 390.685 11.3945 390.689 11.3928C390.728 11.3777 390.767 11.3605 390.803 11.3407C390.804 11.3402 390.806 11.3394 390.807 11.3389C390.846 11.3171 390.884 11.2928 390.92 11.266L392.159 13.1458C392.123 13.1724 392.085 13.1972 392.046 13.2188C392.045 13.2196 392.044 13.2201 392.042 13.2209C392.044 13.2201 392.045 13.2196 392.046 13.2188C392.085 13.1971 392.123 13.173 392.159 13.146C392.123 13.173 392.085 13.1973 392.046 13.2188C392.045 13.2196 392.044 13.2201 392.042 13.2209C392.006 13.2408 391.968 13.258 391.929 13.2731C391.924 13.2748 391.919 13.2771 391.915 13.2788C391.879 13.2919 391.842 13.3019 391.805 13.3109C391.797 13.3128 391.789 13.3155 391.781 13.3171C391.737 13.3262 391.692 13.3327 391.646 13.3354L386.797 13.6216C386.67 13.629 386.544 13.6109 386.427 13.5703C386.388 13.5567 386.351 13.5408 386.314 13.5223L387.323 11.5096L387.323 11.5095Z" fill="#C19EDD"/>
<path d="M383.126 8.75081C383.12 8.70628 383.116 8.66154 383.117 8.61659L385.365 8.4838C385.365 8.52875 385.368 8.57371 385.374 8.61835C385.374 8.61954 385.375 8.62095 385.375 8.62214C385.381 8.66331 385.39 8.70415 385.401 8.74457C385.403 8.74934 385.404 8.75443 385.405 8.75919C385.416 8.79549 385.43 8.83093 385.445 8.86615C385.448 8.87373 385.45 8.88143 385.454 8.88891C385.473 8.92965 385.495 8.96954 385.52 9.00791L385.792 9.42099L384.508 10.5181L386.716 10.823L386.954 11.1834C386.977 11.219 387.003 11.2527 387.03 11.2843C387.085 11.3476 387.148 11.4028 387.216 11.4487C387.25 11.4718 387.286 11.4925 387.322 11.5109L386.313 13.5237C386.203 13.4684 386.104 13.3918 386.021 13.297C385.994 13.2653 385.968 13.2317 385.945 13.1962L383.272 9.14026C383.246 9.10189 383.225 9.06223 383.205 9.02126C383.202 9.01389 383.2 9.00609 383.196 8.9985C383.181 8.9635 383.167 8.92807 383.156 8.89155C383.155 8.88678 383.154 8.88169 383.153 8.87692C383.141 8.83662 383.132 8.79599 383.126 8.7546C383.126 8.75319 383.126 8.752 383.126 8.75059L383.126 8.75081Z" fill="#C19EDD"/>
</g>
<path d="M384.334 456.819L377.527 453.501C377.27 453.376 377.156 453.071 377.275 452.819L380.711 445.769C380.747 445.694 380.798 445.627 380.862 445.572C381.003 445.449 381.265 445.367 381.803 445.205C382.767 444.918 384.227 444.481 385.004 443.525L385.095 443.413C385.381 443.062 385.813 442.533 386.079 442.086C386.301 441.714 386.78 441.307 387.575 441.695C388.185 441.992 388.459 442.478 388.366 442.994C388.22 443.802 387.684 445.138 386.062 447.04C386.052 447.053 386.049 447.066 386.051 447.077C386.054 447.086 386.059 447.099 386.077 447.108L390.136 449.086C390.483 449.255 390.757 449.559 390.883 449.916C391.007 450.268 390.984 450.641 390.82 450.963C390.545 451.498 389.935 451.77 389.346 451.664C389.466 451.996 389.458 452.369 389.297 452.7C389.026 453.255 388.4 453.547 387.804 453.448C387.926 453.782 387.917 454.158 387.756 454.488C387.488 455.037 386.882 455.318 386.29 455.218C386.399 455.549 386.384 455.915 386.22 456.237C385.886 456.899 385.042 457.157 384.337 456.813L384.334 456.819ZM387.358 442.101C386.892 441.874 386.622 442.102 386.491 442.326C386.215 442.807 385.763 443.348 385.469 443.709L385.377 443.821C384.515 444.884 382.973 445.346 381.951 445.652C381.626 445.749 381.259 445.858 381.187 445.923C381.168 445.938 381.154 445.96 381.144 445.98L377.708 453.031C377.699 453.051 377.708 453.077 377.729 453.087L384.536 456.405C385.005 456.634 385.569 456.464 385.786 456.025C385.981 455.64 385.848 455.191 385.487 454.923C385.386 454.849 385.359 454.715 385.423 454.614C385.487 454.514 385.619 454.478 385.729 454.532L385.732 454.534L386.087 454.678C386.551 454.904 387.104 454.726 387.321 454.28C387.518 453.875 387.371 453.38 386.981 453.125C386.877 453.057 386.84 452.922 386.898 452.818C386.957 452.712 387.09 452.674 387.202 452.725C387.238 452.742 387.565 452.891 387.613 452.914C388.07 453.137 388.642 452.943 388.862 452.492C389.069 452.066 388.898 451.545 388.471 451.305C388.358 451.239 388.314 451.104 388.374 450.995C388.432 450.884 388.571 450.841 388.687 450.898C388.687 450.898 389.097 451.098 389.169 451.133C389.623 451.354 390.172 451.184 390.394 450.752C390.501 450.541 390.516 450.296 390.433 450.063C390.35 449.824 390.167 449.624 389.934 449.51L385.874 447.532C385.725 447.459 385.622 447.327 385.584 447.17C385.551 447.011 385.591 446.853 385.7 446.735C386.982 445.311 387.776 443.614 387.897 442.901C387.968 442.491 387.595 442.231 387.365 442.112C387.365 442.112 387.365 442.112 387.362 442.11L387.358 442.101Z" fill="#C19EDD" stroke="#C19EDD" stroke-width="1.9"/>
<path d="M376.245 451.24C376.476 451.352 376.751 451.263 376.859 451.041C376.968 450.819 376.868 450.547 376.637 450.435C376.406 450.322 376.131 450.411 376.022 450.633C375.914 450.855 376.014 451.127 376.245 451.24Z" fill="#C19EDD" stroke="#C19EDD"/>
<path d="M376.948 453.218L374.299 451.927C374.006 451.784 373.882 451.439 374.018 451.161L377.526 443.96C377.664 443.679 378.013 443.568 378.303 443.709L380.952 445C381.245 445.143 381.369 445.488 381.233 445.767L377.725 452.967C377.587 453.249 377.238 453.359 376.948 453.218ZM378.106 444.115C378.046 444.086 377.976 444.108 377.948 444.166L374.439 451.366C374.411 451.423 374.437 451.493 374.497 451.522L377.145 452.813C377.205 452.842 377.275 452.819 377.303 452.762L380.812 445.562C380.84 445.504 380.814 445.435 380.754 445.406L378.106 444.115Z" fill="#C19EDD" stroke="#C19EDD" stroke-width="1.9"/>
<defs>
<clipPath id="clip0_5859_12534">
<rect width="11.9969" height="13.5077" fill="white" transform="matrix(0.370008 0.929028 0.928964 -0.370171 200.438 6.17358)"/>
</clipPath>
<clipPath id="clip1_5859_12534">
<rect width="36.9884" height="41.6446" fill="white" transform="matrix(0.992435 0.122773 -0.122674 0.992447 349.869 8.72083)"/>
</clipPath>
<clipPath id="clip2_5859_12534">
<rect width="11.9969" height="13.5077" fill="white" transform="matrix(-0.929028 -0.370008 0.370171 -0.928964 3.02368 168.123)"/>
</clipPath>
<clipPath id="clip3_5859_12534">
<rect width="10.3195" height="11.6186" fill="white" transform="matrix(-0.97151 0.236997 -0.237111 -0.971482 24.5457 406.571)"/>
</clipPath>
<clipPath id="clip4_5859_12534">
<rect width="10.3191" height="11.619" fill="white" transform="matrix(-0.100703 0.994916 -0.994896 -0.100906 34.7812 12.9417)"/>
</clipPath>
<clipPath id="clip5_5859_12534">
<rect width="36.9884" height="41.6446" fill="white" transform="matrix(-0.10934 0.994004 0.993993 0.109439 269.726 421.754)"/>
</clipPath>
<clipPath id="clip6_5859_12534">
<rect width="18.3661" height="20.6783" fill="white" transform="matrix(0.965942 0.258758 -0.258881 0.965909 380.042 227.924)"/>
</clipPath>
<clipPath id="clip7_5859_12534">
<rect width="10.3191" height="11.619" fill="white" transform="matrix(0.894038 0.44799 -0.448172 0.893947 386.908 0.824463)"/>
</clipPath>
</defs>
</svg>
